<!-- Generated by IcoMoon.io -->
<svg version="1.1" xmlns="http://www.w3.org/2000/svg" width="1024" height="1024" viewBox="0 0 1024 1024">
<title></title>
<g id="icomoon-ignore">
</g>
<path fill="#5b150f" d="M642.617 5.027c-26.572 21.108-129.653 49.044-170.906 46.317-4.757-0.312-10.457 0.197-12.668 1.138-9.915 4.214-81.66 0.395-82.582-4.396-1.044-5.415-6.066-5.996-10.838-1.261-2.705 2.685-3.047 2.489-1.724-0.991 0.997-2.623 0.011-4.976-2.489-5.936-2.278-0.874-4.012-0.729-3.856 0.326 0.802 5.382-0.874 5.653-5.921 0.951-5.596-5.215-21.229-9.245-21.229-5.475 0 1.11-4.787 1.674-10.64 1.257-6.182-0.441-9.988 0.304-9.078 1.773 0.899 1.452-2.28 2.184-7.448 1.716-5.396-0.49-8.793 0.343-8.465 2.074 0.565 2.986-28.816-2.746-58.75-11.46-16.565-4.823-23.536-2.731-23.536 7.059 0 2.59-3.115 11.514-6.925 19.834l-6.925 15.126-12.813-1.699c-22.796-3.023-34.471 6.521-66.913 54.705-29.55 43.887-31.175 74.495-4.974 93.754 3.981 2.926 4.242 4.48 1.578 9.379-1.759 3.228-3.417 7.681-3.686 9.889-0.268 2.212-1.36 6.434-2.425 9.379-1.556 4.299-1.367 4.565 0.951 1.34 2.932-4.072 4.861 2.28 2.85 9.379-0.417 1.474-0.501 8.349-0.189 15.276 0.312 6.93-2.425 26.827-6.083 44.219-13.962 66.365-22.113 154.704-19.485 211.177 1.951 41.996 12.586 133.64 15.652 134.889 1.206 0.49 2.192 2.825 2.192 5.187 0 9.122 19.179 82.839 23.864 91.737 2.722 5.157 8.878 21.436 13.687 36.176 8.615 26.402 64.8 166.437 73.632 183.512 6.002 11.607 10.465 10.906 84.415-13.246 31.674-10.344 59.712-18.132 62.309-17.307 3.239 1.028 4.721 0.077 4.721-3.030 0-3.573 0.789-3.872 3.743-1.422 2.061 1.71 3.181 5.258 2.494 7.887-2.256 8.629 6.609 12.907 9.733 4.694 3.089-8.122 5.604-9.287 4.19-1.938-0.743 3.858 0.244 4.735 4.174 3.708 3.683-0.962 5.201 0.077 5.335 3.658 0.148 3.959 0.567 4.163 2.008 0.98 3.686-8.133 7.973-5.31 7.264 4.785-1.074 15.285 0.986 21.941 6.193 20.023 6.648-2.447 8.379-6.242 8.423-18.464 0.033-8.804 1.143-11.367 5.401-12.479 6.637-1.735 6.966-6.785 0.613-9.361-4.078-1.65-4.337-3.165-1.855-10.701 1.592-4.825 3.686-7.982 4.653-7.015s0.428 4.313-1.197 7.434c-1.803 3.461 0.641 2.014 6.259-3.702 5.069-5.157 10.051-11.567 11.073-14.238 1.019-2.674 3.091-4.097 4.598-3.165 1.51 0.932 2.030 2.847 1.16 4.256-0.868 1.408 0.013 2.23 1.968 1.825 2.346-0.488 3.494 1.99 3.387 7.303-0.246 12.369-3.715 60.005-5.488 75.383-1.055 9.144-0.54 14.394 1.54 15.68 4.818 2.975 5.223 1.567 8.171-28.29 5.105-51.68 8.303-69.473 12.485-69.473 2.129 0 3.165-1.143 2.302-2.54-0.868-1.4 0.973-2.050 4.108-1.447 4.119 0.795 5.264 0.022 4.174-2.819-0.918-2.395 0.112-3.913 2.658-3.913 2.288 0 3.672-1.463 3.074-3.252-0.595-1.789 3.518-5.53 9.146-8.314 5.626-2.784 9.557-6.143 8.742-7.467s0.696-2.5 3.362-2.617c2.812-0.123 3.442-0.778 1.496-1.562-4.039-1.63-4.497-8.946-0.559-8.946 1.532 0 6.055-2.267 10.049-5.036 3.992-2.768 20.362-12.709 36.376-22.086 16.014-9.379 47.2-30.619 69.302-47.198 22.106-16.581 41.125-29.567 42.27-28.86 1.143 0.707 3.617-0.567 5.497-2.834 2.452-2.954 3.957-3.245 5.33-1.022 1.112 1.8 4.308 2.332 7.645 1.274 3.151-1.002 5.023-2.97 4.154-4.374-0.868-1.406-0.584-2.381 0.63-2.17 5.886 1.022 8.593-0.635 7.158-4.379-0.872-2.272-0.532-3.937 0.754-3.704 5.653 1.033 9.212-0.439 7.555-3.121-0.989-1.6-4.003-2.337-6.697-1.633-4.203 1.101-4.451 0.565-1.735-3.784 1.74-2.786 4.565-5.066 6.277-5.066s4.302-3.409 5.752-7.571c1.452-4.165 13.816-20.045 27.476-35.288l24.837-27.717-1.501 32.619-1.505 32.619 6.736 1.691c8.358 2.099 11.323-2.044 11.78-16.453 0.187-5.897 0.773-14.942 1.305-20.1 6.7-65.154 5.299-59.512 20.039-80.795 7.505-10.835 19.685-30.855 27.067-44.485 12.8-23.631 13.756-24.692 20.566-22.779 37.623 10.555 56.977-8.714 72.619-72.301 10.388-42.229 10.687-58.838 1.307-72.646l-6.916-10.174 11.090-25.289c11.945-27.229 11.989-29.084 0.756-31.898-29.871-7.487-158.091-124.74-163.254-149.29-0.861-4.093-2.891-6.639-4.732-5.936-13.676 5.247-84.158-125.582-92.474-171.649-3.708-20.533-12.72-26.095-25.646-15.827zM291.547 67.441c61.978 14.94 82.455 31.729 69.425 56.922-3.535 6.834-3.65 8.673-0.672 10.635 1.984 1.307 7.595 4.908 12.479 8.004 6.292 3.992 8.349 6.903 7.078 10.001-0.986 2.403-2.916 8.245-4.282 12.984-3.486 12.059-5.223 12.358-19.412 3.362-15.438-9.79-15.476-9.79-21.319 0.099-8.083 13.685-18.371 17.269-31.028 10.813-5.796-2.957-19.971-7.944-31.504-11.081-26.037-7.086-26.698-7.637-30.378-25.364-3.267-15.742-5.448-18.433-12.991-16.041-4.108 1.305-4.748 3.697-3.812 14.243 1.77 19.896-32.825 78.334-46.372 78.334-5.576 0-6.22 0.76-3.974 4.688 6.67 11.651 6.815 11.723 15.877 7.914 16.35-6.875 38.272 5.444 30.901 17.367-1.041 1.685-0.668 2.28 0.839 1.345 3.047-1.883 5.083 2.129 19.834 39.086 13.687 34.286 9.772 52.873-11.13 52.873-5.187 0-5.738 1.074-4.462 8.711 3.447 20.642 5.79 23.259 18.042 20.149 21.64-5.494 28.032 5.44 34.957 59.756l3.486 27.361-11.87 10.871c-6.527 5.98-23.818 22.247-38.423 36.152l-26.555 25.281 5.020 9.322c4.919 9.131 4.916 9.399-0.085 13.057-7.52 5.497-9.445 4.636-9.445-4.22 0-15.891-11.051-6.222-20.113 17.6-9.922 26.078-9.223 25.013-25.193 38.385l-13.134 10.996 4.086-18.123c4.482-19.872 21.177-66.883 25.821-72.711 2.138-2.685 7.399-3.31 19.595-2.332l16.675 1.34 2.834-13.211c3.875-18.069 4.148-17.411-8.070-19.365-17.6-2.814-23.936-11.323-23.936-32.146 0-9.55-1.811-25.964-4.023-36.475-4.869-23.149-3.056-27.835 13.63-35.217 12.723-5.626 13.94-8.856 8.837-23.484-2.748-7.892-3.669-8.429-11.389-6.656-19.052 4.381-28.726-0.554-34.058-17.373-1.694-5.352-8.371-22.020-14.838-37.045-6.466-15.027-11.758-29.893-11.758-33.036 0-6.802 13.764-21.385 20.182-21.385 3.535 0 4.135-1.527 2.757-7.012-0.967-3.856-2.417-10.3-3.223-14.323-1.044-5.229-5.277-9.528-14.863-15.096-27.197-15.8-28.622-35.557-5.196-72.103 12.345-19.258 38.089-51.774 42.259-53.374 10.155-3.897 20.377-1.43 28.029 6.763l7.782 8.331 34.825-6.922v-10.35c0-22.522 14.167-27.482 52.258-18.301zM264.759 92.717c-4.84 3.54-4.798 3.754 1.11 5.629 5.299 1.683 5.881 3.107 4.236 10.391-1.050 4.642-2.181 10.851-2.513 13.8-0.334 2.946-2.617 5.749-5.075 6.226-5.247 1.017-5.927 7.283-1.118 10.289 6.889 4.302 46.499 16.836 53.44 16.908 8.27 0.088 12.572-4.546 6.415-6.908-4.609-1.77-4.269-10.147 0.613-15.027 1.749-1.749 3.179-5.149 3.179-7.558 0-6.532 2.518-7.878 9.656-5.165 7.344 2.792 7.498 2.505 3.447-6.382-3.318-7.283-8.711-10.232-35.681-19.502-21.188-7.283-30.529-7.953-37.711-2.7zM453.365 118.855c0.195 7.623 1.924 13.734 4.482 15.86 11.295 9.374 9.196 25.051-12.635 94.304-15.498 49.162-26.413 58.060-55.199 44.992-19.979-9.067-20.973-28.506-4.425-86.432 12.32-43.12 18.751-55.859 31.14-61.665 5.903-2.768 14.597-10.939 21.387-20.1l11.444-15.438 1.746 8.039c0.96 4.42 1.888 13.619 2.061 20.439zM552.13 124.727c-1.395 18.422-1.008 20.322 6.314 31.224 9.55 14.219 9.682 11.141-1.614 38.001-20.294 48.272-28.69 62.491-37.489 63.482-14.030 1.584-15.6 4.724-13.709 27.399 2.225 26.656-6.398 35.258-29.062 29-30.274-8.358-29.062-44.388 4.445-132.204 15.189-39.816 16.891-42.306 32.006-46.833 6.815-2.041 16.041-8.331 24.204-16.491 16.798-16.798 16.666-16.853 14.907 6.42zM170.449 114.48c-8.171 5.725-38.355 55.927-38.355 63.798 0 1.85 1.975 6.187 4.396 9.64l4.396 6.275 3.513-8.36c5.699-13.553 22.111-11.514 27.802 3.458 1.606 4.225 3.335 7.217 3.836 6.645 16.192-18.437 34.209-59.646 23.020-52.659-12.013 7.503-27.868-12.405-18.688-23.468 6.415-7.727-0.894-11.655-9.919-5.33zM651.133 161.016c-4.315 21.574-4.908 34.8-1.819 40.574 9.234 17.249 8.782 19.252-12.361 54.834-10.98 18.483-20.817 33.603-21.856 33.603-5.431 0-70.297-28.342-70.289-30.712 0.002-1.532 9.388-20.256 20.853-41.607 22.59-42.070 25.917-45.37 46.137-45.734 9.311-0.167 14.808-2.274 24.119-9.24 14.918-11.163 17.156-11.416 15.216-1.718zM743.114 223.901c0 0.479-2.907 9.412-6.459 19.852-6.119 17.995-6.242 19.59-2.359 30.619 4.086 11.611 4.075 11.67-5.398 27.715-5.223 8.845-13.824 23.543-19.118 32.669-8.109 13.973-25.947 32.99-30.945 32.99-0.778 0-8.645-14.013-17.477-31.142-8.834-17.129-18.837-32.984-22.225-35.236-7.806-5.182-7.319-6.288 15.567-35.302 20.344-25.791 26.884-29.468 46.205-25.977 6.947 1.255 11.692-0.299 23.451-7.681 13.448-8.445 18.76-10.851 18.76-8.505zM189.893 258.979c3.428 13.665-18.883 24.108-26.262 12.29-11.95-19.129-11.323 5.193 0.877 34.11 13.438 31.85 23.864 42.734 23.864 24.911 0-15.076 23.765-21.878 28.153-8.056 3.078 9.693 7.341 2.368 6.081-10.443-1.384-14.041-16.493-50.867-22.949-55.931-7.111-5.579-11.589-4.148-9.763 3.118zM378.403 286.948c16.809 9.363 41.073 10.963 51.319 3.387l7.881-5.826v7.716c0 25.564 49.499 50.957 68.535 35.16 4.726-3.924 4.401-4.282 10.114 11.15 6.387 17.255 20.078 32.168 38.59 42.035 34.159 18.206 25.582 54.65-10.917 46.383-34.409-7.793-103.643 11.807-103.643 29.343 0 6.239 7.097 6.949 14.893 1.49 11.125-7.793 40.646-17.993 56.44-19.505l16.398-1.567-6.842 19.784c-7.012 20.283-10.141 70.741-5.215 84.103 1.85 5.012 0.802 5.376-16.080 5.609-22.922 0.321-75.038 23.322-97.39 42.988-3.878 3.409-4.451 2.008-5.881-14.37-1.589-18.222-8.585-48.814-15.86-69.372-5.198-14.682-21.058-33.223-40.862-47.759l-16.178-11.876 2.025-46.409c3.678-84.333 5.163-94.242 18.162-121.216l11.514-23.89 5.839 13.169c4.385 9.878 8.67 14.746 17.156 19.469zM546.302 280.364c96.809 39.012 82.277 27.728 113.538 88.156l24.662 47.674-11.103 32.082 8.728 7.623c4.801 4.192 12.786 11.018 17.745 15.17l9.018 7.549-6.338 2.373c-3.486 1.305-12.969 3.559-21.075 5.012-23.393 4.19-23.262 4.091-28.424 21.322-5.639 18.822-5.925 19.107-25.175 25.087-8.109 2.522-20.771 6.741-28.139 9.383-34.77 12.457-40.177 13.298-51.842 8.076-20.639-9.24-25.824-41.967-13.145-82.965l6.215-20.1 40.242-4.726 13.287-38.497-6.398-14.988c-5.683-13.318-7.769-15.515-18.661-19.674-27.41-10.471-42.358-33.488-47.652-73.386-3.118-23.508-0.384-25.199 24.516-15.167zM807.099 299.429c60.633 29.057 83.521 56.111 65.006 76.833l-7.687 8.601 8.355 15.515c8.153 15.14 8.632 15.518 19.746 15.561 22.012 0.085 27.706 13.145 20.839 47.781-14.724 74.257-29.717 92.102-66.804 79.51-14.12-4.792-38.313 3.518-34.946 12.007 8.637 21.75 1.669 31.713-28.945 41.372-12.172 3.839-30.173 10.147-40.001 14.013l-17.872 7.031-7.905-5.629c-4.346-3.096-9.416-9.278-11.262-13.74-1.847-4.458-4.467-8.109-5.82-8.109-2.861 0-23.686 10.363-23.686 11.785 0 0.529 1.877 5.453 4.17 10.945 6.941 16.609 3.469 23.925-17.115 36.064-9.832 5.798-23.736 15.444-30.896 21.434-15.529 12.986-21.473 13.468-36.022 2.929l-10.991-7.964-12.323 15.761 0.83-47.17c0.565-31.904 1.866-48.193 4.020-50.316 6.591-6.499 37.571-26.32 49.129-31.433 13.937-6.165 21.722-3.217 30.024 11.378 5.299 9.317 5.33 9.322 20.469 2.206l11.956-5.62-4.001-9.579c-6.475-15.493-1.375-26.46 15.838-34.058 22.451-9.911 74.111-25.793 77.567-23.846 8.065 4.546 15.126 13.059 16.671 20.102 1.707 7.771 6.569 9.612 15.904 6.031 3.99-1.532 3.974-2.091-0.184-6.683-9.944-10.989 14.301-80.148 31.847-90.849 7.322-4.464 7.363-4.636 2.557-10.574l-4.886-6.033-13.131 8.327c-16.515 10.476-14.852 10.668-36.653-4.231-21.636-14.783-22.55-14.326-25.043 12.558-2.107 22.719-2.705 24.443-7.81 22.484-2.439-0.938-3.332-4.686-2.68-11.273 3.693-37.423 3.45-43.129-1.907-44.827-4.286-1.362-9.649-13.876-8.56-19.982 4.075-22.831 4.526-21.017-5.741-22.943-12.989-2.436-13.657-4.787-5.374-18.924 6.747-11.512 7.694-12.131 16.121-10.55 8.27 1.551 9.298 0.951 13.492-7.889 4.135-8.714 14.388-17.033 21.33-17.302 1.516-0.060 11.583 4.121 22.371 9.292zM781.302 321.283c-5.012 2.022-4.045 5.683 2.008 7.604 5.258 1.669 8.015 14.74 3.111 14.74-1.235 0-3.678 3.137-5.426 6.974-2.57 5.644-4.442 6.656-9.81 5.308-15.682-3.935-2.28 11.594 24.679 28.589 20.127 12.69 35.195 13.854 27.792 2.151-3.5-5.532 14.548-22.382 21.581-20.151 5.332 1.694 6.612-2.342 3.398-10.719-1.852-4.823-25.527-21.592-43.107-30.531-11.049-5.618-17.507-6.672-24.226-3.963zM238.36 398.667c4.541 11.833-18.543 19.404-28.049 9.199-8.928-9.583-12.824-0.921-8.979 19.951 1.716 9.309 3.118 21.68 3.118 27.493 0 18.143 5.752 22.651 15.537 12.178 11.185-11.974 27.216-8.703 27.432 5.598l0.088 5.877 5.272-6.327c11.385-13.665 1.381-78.090-12.125-78.090-2.386 0-3.267 1.584-2.294 4.121zM850.657 442.57c-2.905 1.795-18.94 49.718-19.072 57.001-0.019 1.019 3.17 0.189 7.086-1.841 11.292-5.859 27.923 13.454 19.143 22.234-3.609 3.609 4.488 4.618 12.468 1.554 4.352-1.669 14.865-20.595 14.865-26.755 0-1.811 1.301-3.726 2.891-4.258 2.935-0.978 5.872-18.916 6.27-38.283 0.167-8.122-0.896-10.882-4.469-11.585-3.126-0.617-4.691 0.749-4.691 4.097 0 14.836-23.306 16.003-28.693 1.436-1.494-4.034-3.289-5.149-5.798-3.598zM346.56 484.402c7.283 7.753 7.385 7.563-22.59 42.218-21.313 24.64-23.387 27.788-15.671 23.809 2.579-1.329 8.911-4.308 14.068-6.62 27.443-12.298 46.361-20.628 46.847-20.628 1.213 0 6.598 21.13 9.368 36.779 2.474 13.978 2.069 22.133-2.511 50.307-8.577 52.754-9.363 52.165 21.003 15.71 27.923-33.524 29.159-34.581 56.553-48.29l17.367-8.692 3.22 8.582c1.77 4.719 6.494 19.135 10.498 32.030 8.547 27.55 10.517 28.783 12.827 8.039 0.945-8.476 3.111-24.308 4.814-35.187l3.094-19.776 17.266 1.611c9.498 0.888 21.436 3.121 26.533 4.965l9.267 3.348-0.828 57.427-0.828 57.423-21.44 4.919c-11.791 2.705-30.485 7.352-41.539 10.33-11.054 2.975-49.041 12.087-84.417 20.241-63.6 14.665-64.411 14.942-72.813 24.648l-8.494 9.818 0.134-14.902c0.107-11.956-1.592-18.020-8.596-30.69-4.801-8.684-23.257-43.529-41.010-77.428-17.754-33.902-36.795-69.972-42.317-80.153l-10.040-18.516 28.591-27.35c15.724-15.041 34.596-32.823 41.939-39.508l13.347-12.161 15.162 10.635c8.336 5.848 17.875 13.523 21.192 17.058zM738.382 528.283c-24.141 8.404-28.86 11.281-30.828 18.793-1.057 4.056 0.156 4.897 6.648 4.603 12.246-0.554 19.535 18.039 10.076 25.7-5.258 4.258-5.677 5.563-2.461 7.654 4.741 3.085 33.006 0.602 34.255-3.008 0.494-1.43 2.135-1.833 3.647-0.899s3.803 0.038 5.091-1.992c1.789-2.828 2.348-2.883 2.379-0.239 0.030 2.441 1.024 2.65 3.392 0.71 1.841-1.51 7.27-5.886 12.059-9.722 8.9-7.133 12.035-15.649 4.726-12.846-2.575 0.989-4.864-0.789-6.475-5.029-1.37-3.606-4.645-8.709-7.272-11.336-4.59-4.587-4.535-4.981 1.318-9.722 15.178-12.287-4.741-13.742-36.557-2.667zM240.456 596.723l15.907 30.597-24.868 28.523c-13.676 15.688-24.454 28.915-23.947 29.391s15.983-3.784 34.39-9.473c18.409-5.686 34.264-9.482 35.233-8.432 0.973 1.050 9.089 15.803 18.039 32.79l16.271 30.885-6.697 44.090c-8.538 56.221-8.667 55.953 13.562 28.183 10.319-12.89 23.884-29.83 30.147-37.645l11.389-14.208 29.532-6.925c16.242-3.809 31.156-6.925 33.14-6.925 3.392 0 11.081 15.361 25.939 51.825 7.621 18.707 7.927 18.050 13.206-28.413 1.97-17.34 4.894-32.573 6.494-33.853 2.946-2.357 56.612-16.359 62.693-16.359 2.535 0 3.132 13.243 2.579 56.948l-0.723 56.948-56.278 13.808c-152.706 37.465-205.678 49.568-207.692 47.457-1.208-1.268-15.17-27.029-31.022-57.245-15.855-30.213-37.108-70.615-47.231-89.775-10.122-19.162-25.298-48.477-33.724-65.145l-15.32-30.307 40.199-38.601c22.108-21.231 40.802-38.632 41.536-38.667 0.738-0.038 8.5 13.701 17.247 30.529zM627.878 578.745c-8.555 3.28-42.731 27.737-46.721 33.431-6.769 9.662-5.763 19.604 1.469 14.537 13.189-9.238 29.438 13.046 17.916 24.569-9.827 9.827 14.21 2.153 31.414-10.027 30.72-21.752 38.21-32.874 20.371-30.257-14.109 2.072-22.768-19.905-10.44-26.503 8.768-4.694-3.565-9.755-14.008-5.749zM590.359 717.788c0 5.343-26.117 54.977-34.071 64.754l-5.936 7.289-0.096-20.858c-0.079-17.225 1.107-23.231 6.812-34.491 7.075-13.959 7.39-31.039 0.446-24.095-4.154 4.154-7.355 3.864-7.355-0.666 0-4.51 5.774-6.985 16.299-6.985 4.429 0 7.854-1.455 7.898-3.351 0.115-4.894 16.003 13.375 16.003 18.404z"></path>
</svg>
