<!-- Generated by IcoMoon.io -->
<svg version="1.1" xmlns="http://www.w3.org/2000/svg" width="1024" height="1024" viewBox="0 0 1024 1024">
<title></title>
<g id="icomoon-ignore">
</g>
<path fill="#5b150f" d="M366.229 1.058c0.702 0.702-5.090 4.227-12.876 7.834-19.181 8.886-33.52 20.701-44.219 36.431-4.915 7.227-8.179 10.952-7.255 8.279 1.125-3.266 0.262-4.863-2.633-4.863-2.371 0-3.793 1.554-3.16 3.45 0.632 1.899-1.452 4.813-4.631 6.478s-5.51 4.356-5.179 5.985c0.343 1.692-1.838 2.324-5.093 1.474-4.345-1.138-4.816-2.051-1.989-3.841 2.839-1.801 2.569-2.358-1.156-2.392-2.673-0.021-4.859 2.004-4.859 4.502s-2.815 7.184-6.256 10.415c-3.441 3.232-7.729 8.999-9.533 12.82-1.804 3.816-3.364 5.38-3.468 3.471-0.4-7.412-8.519-3.419-8.476 4.165 0.028 5.242 0.777 6.475 2.389 3.934 1.89-2.985 2.68-2.849 4.036 0.693 1.168 3.043 0.095 4.4-3.48 4.4-7.005 0-9.453 7.52-3.568 10.952 4.165 2.43 3.98 2.778-1.504 2.852-4.838 0.064-6.249-1.483-6.249-6.86 0-4.193-1.585-6.943-4.002-6.943-3.475 0-3.48 1.006-0.034 7.64 2.183 4.199 2.803 8.032 1.381 8.509-1.424 0.481-1.949 2.544-1.165 4.581 0.78 2.038 0.055 4.551-1.615 5.581-1.668 1.033-2.692 0.379-2.272-1.452 0.42-1.835-0.928-3.95-3-4.702-2.676-0.974-3.259 0.216-2.019 4.12 2.457 7.741-2.766 10.85-21.993 13.085-58.571 6.814-84.615 19.388-109.604 52.911-21.024 28.208-24.681 70.219-8.899 102.276l8.466 17.201-7.813 22.202c-4.298 12.213-10.078 31.889-12.847 43.728-2.769 11.843-5.966 21.527-7.103 21.527-8.854 0-54.239 85.607-58.167 109.718-8.811 54.063 20.413 104.56 69.732 120.488 7.711 2.491 10.671 5.46 13.517 13.569 10.381 29.546 42.067 84.985 67.056 117.321 4.132 5.346 8.359 13.471 9.394 18.052 4.686 20.747 80.749 85.068 105.084 88.864 8.965 1.399 45.073 17.117 51.587 22.457 0.53 0.434-0.561 7.439-2.426 15.564-1.865 8.127-4.313 32.274-5.438 53.663s-2.96 41.583-4.079 44.879c-1.456 4.286-0.379 7.65 3.777 11.806 16.156 16.156 19.708 4.057 23.999-81.682 0.675-13.498 4.945-34.72 6.989-34.72 14.044 0 17.112 5.165 16.094 27.126-1.397 30.145 8.683 33.033 12.324 3.53 2.694-21.848 0.132-20.019 21.496-15.332 9.878 2.167 27.024 5.454 38.099 7.304 11.075 1.853 20.136 4.477 20.136 5.833s2.254 1.751 5.008 0.879c2.753-0.875 10.239 0.938 16.633 4.027s17.578 6.391 24.853 7.341c7.273 0.947 14.882 3.034 16.912 4.634 2.583 2.041 4.249 1.992 5.583-0.17 3.074-4.974 36.564-7.168 36.564-2.396 0 2.599 4.095 4.209 12.379 4.868 11.586 0.922 12.283 0.589 10.841-5.155-1.692-6.743 5.547-9.958 23.297-10.35 4.961-0.107 9.024-1.095 9.028-2.192s2.099-1.193 4.656-0.213c3.525 1.351 4.218 0.657 2.867-2.864-0.984-2.559-0.613-4.649 0.817-4.649 1.433 0 1.933-1.749 1.116-3.882-2.612-6.805 26.527-14.969 31.1-8.716 2.044 2.794 4.945 3.941 6.907 2.728 2.482-1.533 2.019-3.086-1.733-5.833-2.815-2.056-3.73-3.74-2.038-3.74 1.696 0 5.276-0.845 7.957-1.872 3.956-1.52 4.474-0.863 2.753 3.471-1.168 2.939-2.646 16.936-3.284 31.106s-1.299 26.67-1.465 27.776c-0.922 6.071 0.94 8.956 5.781 8.956 6.237 0 7.405-5.026 9.708-41.663 2.263-36.030 5.602-44.139 15.897-38.629 3.784 2.022 4.597 1.729 3.459-1.236-1.045-2.726 0.706-3.884 5.864-3.884 4.695 0 10.224-3.135 15.28-8.673 6.925-7.582 8.836-8.325 15.209-5.901 10.418 3.962 12.299 3.487 11.091-2.784-0.586-3.055-0.037-5.556 1.227-5.556 1.261 0 2.948-2.501 3.746-5.556 0.956-3.657 3.675-5.479 7.961-5.337 3.582 0.123 4.949 0.851 3.040 1.622-1.912 0.77-3.475 3.323-3.475 5.676 0 3.475 0.777 3.632 4.143 0.838 2.892-2.401 8.127-2.787 17.358-1.283 73.907 12.049 124.379-28.696 136.665-110.328 5.161-34.285 5.090-70.725-0.148-75.988-4.113-4.134-3.841-6.040 3.355-23.725 4.304-10.578 10.381-27.813 13.505-38.302l5.679-19.070 15.968-5.020c57.967-18.228 82.574-100.462 46.515-155.451-8.602-13.115-46.438-52.402-58.833-61.081-3.135-2.198-6.45-7.727-7.363-12.29s-6.148-20.281-11.636-34.933l-9.974-26.636 5.636-9.124c40.291-65.19-13.84-145.973-103.691-154.747l-32.768-3.198-26.79-18.207c-68.101-46.281-159.021-75.602-234.429-75.602-25.103 0-28.806-0.666-36.557-6.58-4.745-3.616-19.239-12.022-32.207-18.675l-23.577-12.099-32.583-0.247c-17.919-0.139-32.006 0.327-31.304 1.029zM446.78 27.11c36.076 18.25 67.913 41.657 68.002 49.994 0.207 19.618 23.969 53.45 38.938 55.432 6.746 0.894 6.916 1.456 5.963 19.717-0.725 13.871 0.186 20.58 3.471 25.596 7.584 11.577 5.676 17.016-8.352 23.808-7.042 3.407-18.459 10.514-25.369 15.786-9.181 7.011-16.815 10.19-28.387 11.827-19.005 2.685-56.9 13.035-67.321 18.385-27.462 14.096-8.14-13.994 19.997-29.080 18.209-9.762 25.359-19.738 20.133-28.106-4.132-6.619-4.643-32.349-0.688-34.79 9.104-5.627 2.229-20.935-12.518-27.881-6.123-2.883-15.496-10.387-20.833-16.677-38.509-45.372-109.166-45.868-122.652-0.857-3.977 13.283-7.775 9.253-7.838-8.322-0.243-69.855 70.811-108.54 137.451-74.832zM256.589 73.632c-3.007 4.172-4.992 4.711-9.138 2.491-2.917-1.56-6.028-2.108-6.916-1.22s-0.204 1.613 1.52 1.613c1.72 0 5.679 2.735 8.797 6.080l5.66 6.076v-5.874c0-3.232 1.844-6.28 4.095-6.773 2.467-0.543 3.243-2.254 1.958-4.307-1.572-2.512-3.148-2.007-5.976 1.915zM236.043 96.368c-4.193 2.435-4.461 3.48-1.39 5.429 5.621 3.559 6.746 3.080 7.209-3.062 0.231-3.055 0.186-5.515-0.102-5.469s-2.862 1.443-5.717 3.102zM592.777 120.833c37.682 9.903 97.046 32.481 97.046 36.909 0 0.475-4.686 0.432-10.415-0.089-6.092-0.558-12.638 0.697-15.765 3.021-4.733 3.518-6.984 3.225-19.602-2.553-7.841-3.589-25.544-9.292-39.344-12.675-24.93-6.114-25.125-6.228-30.629-18.098-3.046-6.571-4.733-11.945-3.746-11.945s11.091 2.442 22.455 5.429zM435.316 130.465l7.252 9.506-9.006 1.936c-21.628 4.656-55.75 15.638-70.632 22.736l-16.143 7.702-14.146-14.509 13.446-7.557c7.393-4.156 16.824-8.633 20.96-9.946 4.134-1.317 18.141-6.126 31.124-10.689 29.746-10.455 28.523-10.483 37.146 0.823zM830.82 151.442c75.899 10.859 112.37 102.099 60.048 150.231-6.941 6.385-7.184 6.425-4.209 0.706 12.413-23.874-10.026-65.749-41.253-76.978-15.361-5.526-58.137-5.186-68.37 0.543-2.794 1.563-8.999 1.601-15.684 0.098-14.602-3.28-21.533-0.866-21.533 7.498 0 3.663-3.75 10.933-8.334 16.153-4.581 5.22-8.331 10.819-8.331 12.444s-3.323 4.584-7.384 6.576c-13.31 6.537-13.653 10.519-2.858 33.273 19.59 41.277 16.754 50.431-6.089 19.665-8.797-11.845-24.243-29.663-34.331-39.591-10.662-10.498-19.208-21.542-20.417-26.389-1.144-4.581-5.031-14.214-8.64-21.403-8.257-16.458-6.564-25.021 5.837-29.505 6.752-2.442 10.822-6.826 15.795-17.013 7.023-14.389 12.629-18.922 17.442-14.109 8.39 8.39 40.134 0.219 55.33-14.239 7.739-7.359 13.837-10.616 21.024-11.214 15.043-1.254 52.173 0.422 71.956 3.253zM256.746 160.899c12.361 15.711 37.245 21.249 63.976 14.235 6.582-1.726 7.868-0.666 13.633 11.238 4.859 10.039 8.904 14.205 17.108 17.614 14.349 5.963 15.375 12.147 6.358 38.268-6.033 17.476-7.221 24.94-6.040 37.982 1.378 15.246 0.931 16.84-7.403 26.386-12.912 14.787-22.942 30.647-28.378 44.879-6.734 17.642-8.347 18.693-16.757 10.936-14.273-13.165-15.888-22.097-7.85-43.467 3.904-10.369 8.145-22.153 9.431-26.182 3.007-9.413-2.149-20.158-10.224-21.321-3.33-0.477-6.807-3.259-7.736-6.176-0.925-2.919-4.736-7.708-8.463-10.641-3.727-2.935-6.78-7.773-6.78-10.754 0-11.125-9.292-15.604-24.703-11.904-7.625 1.828-16.747 2.396-20.272 1.261-49.831-16.033-103.117 18.173-103.117 66.19v19.834l-9.090-10.514c-45.931-53.133-13.655-131.131 60.625-146.525 44.055-9.129 79.12-9.678 85.678-1.342zM607.882 253.845c25.714 17.78 47.133 35.969 61.568 52.282 22.414 25.332 39.816 48.607 39.816 53.256 0 1.403 1.717 3.977 3.816 5.719s7.609 13.455 12.243 26.032c25.069 68.022 18.952 109.27-23.565 158.901-21.373 24.946-24.492 24.604-21.508-2.378 3.246-29.377-2.637-68.382-10.314-68.382-3.046 0-2.953 1.175 1.585 20.472 3.459 14.7 3.318 18.489-1.431 38.37-7.234 30.286-4.19 51.292 8.577 59.182 10.553 6.521 0.795 50.080-15.734 70.253-19.859 24.233-33.061 28.081-40.816 11.892-13.236-27.631-31.359-35.586-36.412-15.983-3.795 14.734-9.515 22.578-11.827 16.227-6.246-17.146-29.832-32.241-46.476-29.746-11.466 1.72-34.797 20.17-34.797 27.52 0 1.588-4.23-1.729-9.401-7.378-5.174-5.645-11.895-10.264-14.938-10.264-3.046 0-10.276-1.979-16.070-4.4-10.046-4.196-16.612-4.187-26.605 0.040-3.805 1.613-4.699-0.645-5.692-14.349-2.346-32.46-41.805-53.142-64.867-34.002-7.329 6.083-8.534-10.328-1.465-19.895 12.49-16.892-8.593-21.487-38.901-8.476l-12.669 5.438-6.278-9.163c-22.121-32.284-2.907-88.367 35.222-102.815 15.961-6.049 22.979-13.76 29.682-32.619 6.669-18.761 9.953-23.651 29.555-43.998 8.976-9.315 16.288-18.357 16.254-20.090-0.034-1.736-2.22-0.592-4.863 2.541-2.639 3.132-9.798 9.345-15.909 13.8-15.216 11.1-24.909 22.43-37.038 43.291-14.605 25.119-18.262 24.638-22.159-2.914-14.923-105.54 74.064-180.77 223.077-188.585 21.389-1.122 40.137-1.443 41.666-0.713 1.526 0.731 9.028 5.651 16.665 10.933zM805.094 255.029c10.964 14.127 43.047 65.622 43.051 69.101 0.009 4.584-22.264 3.827-23.734-0.808-1.912-6.019-33.009-53.382-40.384-61.503-3.068-3.379-7.393-8.124-9.613-10.544-5.485-5.976-5.103-7.507 2.21-8.917 14.555-2.803 17.466-1.508 28.471 12.672zM243.664 255.072c-2.862 3.385-5.864 6.783-6.666 7.545-0.804 0.765-5.319 6.389-10.035 12.499-8.778 11.373-10.178 13.705-28.369 47.148-8.836 16.245-11.959 19.661-19.343 21.172-4.847 0.993-10.693 3.364-12.992 5.276-6.253 5.188-5.322 2.315 8.022-24.69 11.45-23.186 34.741-60.958 43.103-69.905 2.094-2.242 9.832-4.261 17.612-4.6l13.878-0.598-5.208 6.154zM848.148 347.174c0 11.858 32.481 27.209 55.192 26.084 38.885-1.927 98.967 70.023 98.967 118.514 0 48.101-33.273 87.494-73.903 87.494h-6.493l6.13-4.295c41.9-29.348 22.032-97.832-36.119-124.504-5.717-2.621-13.84-9.086-18.055-14.368-8.713-10.921-20.297-12.894-26.253-4.47-4.113 5.819-21.064 10.141-35.672 9.099-12.604-0.904-17.766 4.847-21.862 24.351-5.876 27.989-18.052 44.75-32.506 44.75-6.024 0-6.265-0.561-3.266-7.64 1.862-4.393 3.416-24.151 3.663-46.526 0.388-35.644 0.977-39.807 7.057-49.922 3.648-6.071 9.937-21.071 13.98-33.332l7.347-22.295 19.095 0.783c15.366 0.632 20.395-0.243 25.76-4.492 6.943-5.497 16.942-5.041 16.942 0.77zM192.653 360.527c0.123 15.838 41.799 53.463 62.955 56.832 36.977 5.895 53.015 36.88 32.916 63.597-22.831 30.341-44.123 28.153-64.097-6.594-14.037-24.428-25.932-31.896-34.449-21.632-3.832 4.615-22.64 5.124-34.104 0.918-12.372-4.538-20.192-0.888-24.215 11.306-1.983 6-10.674 18.323-19.535 27.696-40.035 42.332-38.915 94.622 2.498 116.843l15.268 8.192-10.551 1.979c-50.687 9.508-98.921-33.566-98.924-88.351-0.003-11.858 1.024-23.734 2.281-26.386 31.772-67.050 45.758-89.459 55.864-89.507 17.725-0.086 50.179-25.942 50.179-39.976 0-8.361 5.701-13.417 11.204-9.94 6.807 4.307 23.043 2.975 33.28-2.732 11.236-6.265 19.39-7.205 19.427-2.244zM432.807 399.869c-4.536 3.525-17.787 12.799-29.448 20.608-22.88 15.323-24.631 17.716-24.631 33.643 0 5.778-1.233 17.016-2.744 24.974-4.958 26.148 9.345 45.359 32.953 44.268 13.403-0.623 15.675 0.111 20.987 6.771 6.496 8.149 21.912 10.162 36.203 4.729l7.212-2.741-8.59-7.677c-6.509-5.815-8.92-10.702-9.949-20.174-3.114-28.615-4.129-31.181-18.259-46.122-15.943-16.856-15.981-17.664-2.183-46.149 9.592-19.797 9.474-20.701-1.551-12.132zM880.937 462.606c4.884 0 4.261 46.263-1.113 82.552-5.322 35.926-7.723 41.805-12.231 29.947-1.742-4.579-4.834-10.203-6.873-12.499-2.849-3.207-3.108-7.705-1.116-19.449 1.424-8.402 2.694-33.187 2.821-55.078l0.234-39.804 7.477 7.166c4.116 3.941 8.976 7.166 10.8 7.166zM620.579 469.552c-6.324 33.382-8.433 36.582-25.625 38.935-22.298 3.050-27.449 5.726-42.906 22.276-14.879 15.931-24.749 19.334-31.717 10.939-6.364-7.668-6.178-1.899 0.309 9.647 8.842 15.734 22.89 23.806 33.659 19.347 7.403-3.068 8.784-2.63 17.062 5.395 17.364 16.831 46.022 8.347 57.32-16.973 3.577-8.013 9.422-18.105 12.99-22.423 7.991-9.669 8.093-14.941 0.647-33.298-3.212-7.92-6.839-16.902-8.054-19.958-4.311-10.832-8.029-22.295-9.009-27.776-0.545-3.055-2.651 3.194-4.677 13.89zM157.952 485.513c-2.106 26.312 11.725 99.019 24.764 130.159 2.155 5.146-13.803 13.446-17.562 9.133-8.313-9.542-24.055-73.41-26.402-107.112-2.069-29.716 4.974-52.112 14.744-46.886 4.323 2.315 5.213 5.254 4.456 14.707zM482.151 551.37c-8.192 9.508-16.119 15.295-26.324 19.218-8.029 3.086-12.317 5.676-9.527 5.756 13.374 0.382 22.209 15.835 20.361 35.62l-1.726 18.468 9.321-13.84c13.072-19.411 16.415-21.65 29.673-19.871 11.13 1.492 11.214 1.437 6.891-4.502-6.887-9.462-10.159-18.795-11.84-33.786-2.421-21.555-3.836-22.15-16.828-7.064zM275.328 577.182c5.245 14.503 19.050 27.924 27.135 26.38 5.722-1.092 6.826-0.222 6.826 5.392 0 17.848-12.727 28.112-49.127 39.625-12.944 4.095-20.88 16.431-15.777 24.521 2.587 4.1-0.564 22.936-4.983 29.771-6.133 9.49-3.462 23.574 5.76 30.379 8.741 6.447 12.758 11.664 19.397 25.174 17.948 36.532 75.352 55.621 102.365 34.038 4.954-3.959 4.39-1.89-3.675 13.464-28.501 54.258-78.094 66.156-123.189 29.559-36.684-29.777-59.398-55.423-57.499-64.929 3.968-19.838-10.26-47.651-30.533-59.678-4.816-2.858-4.915-3.854-1.233-12.499 3.687-8.661 4.261-18.543 2.306-39.789-0.713-7.77 0.33-8.62 21.191-17.266 29.564-12.252 41.502-20.633 47.494-33.339 16.322-34.606 45.992-51.677 53.542-30.804zM848.332 573.809c2.953 1.581 5.371 5.097 5.371 7.809 0 6.712 9.074 15.94 22.328 22.702 10.855 5.537 13.982 11.666 7.877 15.438-9.278 5.735 2.392 49.649 16.301 61.346l7.146 6.012-3.367 37.041c-8.96 98.585-65.369 148.989-130.866 116.933-12.672-6.2-39.619-28.501-34.442-28.501 1.542 0 4.311 1.504 6.154 3.348 2.094 2.094 10.237 3.093 21.739 2.671 45.918-1.696 73.969-48.616 60.47-101.147-2.056-7.995-2.367-13.819-0.793-14.79 1.431-0.885 2.306-3.074 1.949-4.868s0.296-6.848 1.449-11.229c2.51-9.512-3.996-18.422-13.446-18.422-3.345 0-8.315-2.469-11.047-5.485-2.728-3.016-7.298-6.225-10.153-7.132-2.852-0.906-5.188-4.032-5.188-6.95s-3.062-7.313-6.807-9.764c-8.022-5.256-12.247-4.424-41.2 8.111-27.724 12.006-42.61 2.987-41.33-25.035 0.477-10.461-0.398-22.334-1.942-26.386-7.295-19.104 23.845-26.682 59.897-14.58 24.805 8.327 36.055 7.829 64.716-2.858 9.931-3.703 18.45-6.823 18.934-6.937 0.481-0.111 3.293 1.092 6.249 2.673zM396.426 627.299c8.075 9.53 4.942 42.199-6.321 65.851-12.558 26.382-11.522 50.077 3.956 90.272 3.48 9.040-23.164-17.864-33.452-33.773-18.607-28.778-22.143-54.015-13.264-94.613 7.32-33.443 32.284-47.555 49.081-27.736zM544.186 673.825c15.15 9.363 17.346 21.459 7.973 43.896-22.187 53.104-49.451 74.15-106.521 82.232l-12.252 1.736 16.418-12.175c29.685-22.007 45.584-45.2 45.584-66.48 0-17.91 23.781-54.88 35.299-54.88 2.378 0 8.451 2.553 13.498 5.673zM810.705 698.013c-2.205 14.805-1.674 13.964-26.441 41.872-20.197 22.757-75.967 67.901-78.939 63.899-10.001-13.48-7.665-27.304 4.613-27.304 7.495 0 52.698-41.413 76.17-69.787 21.514-26.007 27.49-28.115 24.598-8.679zM615.476 703.188c3.795 8.327 24.24 8.202 37.103-0.228 15.413-10.098 25.409 13.403 20.099 47.253-3.025 19.291 3.030 37.972 20.272 62.551 11.361 16.199 11.929 27.601 1.372 27.601-6.019 0-12.24 9.043-14.337 20.833-2.608 14.657-8.509 21.56-14.984 17.519-11.698-7.304-40.8 9.363-60.498 34.652-6.437 8.263-80.363 17.421-104.393 12.931-24.317-4.541-57.495-30.616-57.495-45.187 0-2.371-1.31-5.121-2.914-6.11-2.553-1.579-3.564-54.082-1.042-54.082 0.493 0 6.823 5.602 14.069 12.447 30.391 28.705 74.382 33.159 108.54 10.989 3.73-2.423 11.725-3.755 20.29-3.382 15.268 0.663 19.261-2.254 19.338-14.124 0.077-11.596 9.101-32.698 15.12-35.34 12.234-5.377 5.233-30.752-12.576-45.584-9.382-7.813-10.686-32.015-2.297-42.677 7.23-9.194 10.169-9.206 14.334-0.059zM307.186 773.861c11.259 7.35 13.508 11.236 5.245 9.074-2.855-0.747-11.293-7.8-18.748-15.677-7.459-7.877-9.81-11.139-5.226-7.252 4.581 3.888 13.011 10.122 18.73 13.856zM401.643 821.162c18.85 6.687 20.688 8.833 18.816 21.98-0.863 6.049-0.366 6.053-19.742-0.127-34.72-11.071-33.412-10.098-28.047-20.913 2.569-5.177 5.919-9.003 7.448-8.504 1.526 0.502 11.214 3.907 21.523 7.563zM527.331 840.547c-7.223 2.867-29.003 2.833-36.107-0.055-3.48-1.415 3.268-2.239 18.052-2.205 14.521 0.034 21.471 0.904 18.055 2.26zM736.173 881.103c1.739 4.638 1.452 4.72-3.228 0.925-4.566-3.703-4.986-3.703-3.761 0 1.881 5.694 13.005 6.108 12.175 0.454-0.348-2.374-2.087-4.804-3.866-5.395-2.090-0.697-2.556 0.722-1.32 4.018zM687.067 897.903c0.046 4.767 13.449 8.663 15.093 4.388 0.952-2.491 0.213-3.58-1.917-2.815-1.912 0.684-5.66 0.12-8.334-1.254s-4.853-1.517-4.84-0.318zM533.272 950.079c0.879 2.294 2.507 4.168 3.616 4.168s2.017-1.874 2.017-4.168c0-2.291-1.628-4.165-3.616-4.165-2.072 0-2.935 1.779-2.017 4.165zM718.139 948.359c-2.864 1.77-2.771 2.883 0.472 5.574 2.991 2.482 4.56 2.537 6 0.207 2.66-4.304-2.051-8.516-6.471-5.781zM510.291 963.948c-2.137 5.565-0.857 6.737 4.949 4.532 3.913-1.483 4.008-2.254 0.659-5.346-3.232-2.985-4.206-2.843-5.608 0.814zM593.533 994.524c0 2.512 1.881 4.032 4.397 3.548 5.269-1.015 4.886-5.994-0.545-7.134-2.119-0.447-3.85 1.168-3.85 3.586z"></path>
</svg>
