<!-- Generated by IcoMoon.io -->
<svg version="1.1" xmlns="http://www.w3.org/2000/svg" width="1024" height="1024" viewBox="0 0 1024 1024">
<title></title>
<g id="icomoon-ignore">
</g>
<path fill="#5b150f" d="M261.054 1.722c0 7.541 11.985 38.405 21.058 54.225l11.069 19.305-10.669 14.57c-34.76 47.465-39.653 131.255-9.939 170.213 3.324 4.359 6.044 8.756 6.044 9.774s3.933 6.65 8.737 12.513c10.632 12.972 12.202 21.404 4.705 25.254-2.957 1.518-6.91 3.977-8.783 5.466-1.871 1.486-8.484 5.52-14.694 8.966-6.209 3.444-18.257 10.37-26.77 15.391-8.513 5.018-16.697 9.125-18.19 9.125s-2.716 1.109-2.716 2.462c0 1.354-2.739 3.149-6.091 3.992-3.351 0.84-6.661 3.014-7.358 4.83-0.695 1.816-4.652 4.043-8.788 4.953-4.139 0.908-8.87 3.273-10.515 5.255-1.645 1.979-3.915 3.601-5.047 3.601-4.008 0-34.969 20.679-35.169 23.491-1.518 21.32 0.063 35.444 4.321 38.623 2.566 1.911 4.382 4.528 4.038 5.81-0.346 1.284 0.501 2.333 1.881 2.333s2.375 0.847 2.211 1.881c-0.164 1.037-0.078 2.448 0.192 3.138 0.725 1.858 2.314 8.19 3.288 13.1 0.471 2.375 1.641 5.103 2.6 6.063 0.961 0.961 1.745 5.442 1.745 9.962 0 4.518 0.982 8.821 2.181 9.563 1.198 0.739 2.942 6.114 3.875 11.943 0.931 5.826 2.63 11.778 3.776 13.227 1.147 1.451 2.676 6.023 3.4 10.162 0.725 4.141 1.989 9.787 2.811 12.546s4.951 17.438 9.176 32.619 8.828 31.552 10.228 36.384c1.396 4.83 3.112 11.605 3.812 15.054 0.697 3.451 2.207 8.53 3.353 11.292 1.149 2.758 3.935 12.357 6.194 21.328 5.365 21.315 12.92 49.294 16.145 59.798 1.958 6.376 1.388 14.923-2.405 35.986-5.74 31.863-5.457 34.264 9.806 83.621 14.441 46.707 18.388 54.405 51.822 101.051 3.236 4.518 6.673 12.986 7.635 18.819s2.789 11.898 4.062 13.478c1.273 1.582 2.042 3.84 1.711 5.018-0.33 1.181 0.674 6.097 2.234 10.929 1.558 4.83 4.67 15.366 6.916 23.412 3.985 14.285 4.214 14.547 9.668 10.971 3.072-2.012 14.589-8.496 25.59-14.403 10.999-5.907 22.825-12.637 26.274-14.954 9.635-6.467 15.138-8.051 30.111-8.669 10.276-0.424 17.645-2.716 28.857-8.982 15.529-8.678 50.434-22.667 52.187-20.918 0.543 0.545 0.138 6.902-0.901 14.13-4.799 33.347-4.684 64.578 0.239 64.578 6.369 0 6.623-0.786 8.526-26.255 3.968-53.085 7.364-66.586 16.75-66.586 1.001 0 10.513-5.138 21.138-11.419 10.623-6.283 19.818-10.917 20.435-10.3 0.615 0.615 4.036-1.586 7.605-4.891 3.565-3.306 8.011-6.011 9.881-6.011s3.398-0.955 3.398-2.125c0-1.168 3.669-6.137 8.154-11.043 11.521-12.604 13.54-15.303 18.828-25.167 5.723-10.682 9.67-14.642 19.436-19.516 14.114-7.041 36.379-20.405 37.786-22.68 0.773-1.25 2.974-2.27 4.893-2.27 1.921 0 8.346-3.217 14.28-7.151 5.934-3.931 14.46-8.722 18.946-10.648s8.154-4.395 8.154-5.487c0-1.092 4.799-4.214 10.665-6.935 5.863-2.724 15.866-8.201 22.228-12.177 21.907-13.687 22.092-13.596 21.086 10.291-0.48 11.449-1.683 26.161-2.672 32.699-2.441 16.14 8.397 26.519 17.833 17.083 1.525-1.525 1.814 6.475 0.79 21.954-0.885 13.396-1.107 25.199-0.494 26.236 1.853 3.128 10.84 2.108 11.065-1.254 0.114-1.727 0.573-7.090 1.020-11.919 0.447-4.832 1.476-17.252 2.286-27.603 5.957-76.057 12.165-99.24 25.968-96.97 3.641 0.597 5.645-0.34 5.645-2.637 0-2.055-1.227-2.805-2.897-1.774-4.544 2.807-0.159-3.278 11.219-15.573 5.603-6.055 11.533-11.011 13.172-11.011s4.327-1.622 5.969-3.601c1.643-1.979 7.71-6.013 13.48-8.966 14.12-7.221 17.081-11.374 13.962-19.575-1.366-3.594-5.286-17.307-8.709-30.479s-7.174-26.206-8.334-28.965c-1.161-2.761-4.479-14.053-7.373-25.092-4.974-18.971-10.88-41.152-11.692-43.911-0.203-0.69-1.275-5.77-2.384-11.292-1.107-5.52-2.944-11.219-4.080-12.663-1.137-1.446-2.611-6.526-3.276-11.292-1.673-11.979-6.439-30.129-9.683-36.868-2.101-4.361-1.434-10.26 2.978-26.346 13.121-47.839 8.961-102.464-13.229-173.631-0.403-1.299-4.614 6.895-9.357 18.206s-11.083 23.662-14.093 27.45l-5.468 6.883-3.683-8.781c-3.32-7.913-3.193-11.269 1.271-33.873 7.413-37.542 3.229-63.406-16.166-99.918-7.005-13.191-26.901-34.323-32.312-34.323-1.187 0-2.157-1.837-2.157-4.080 0-5.223-14.547-55.989-17.694-61.752-1.308-2.395-2.38-6.537-2.38-9.202 0-12.010-2.258-13.041-14.406-6.575l-11.411 6.076-10.807-7.436c-15.778-10.855-32.406-17.443-53.705-21.273-10.349-1.86-35.191-7.784-55.201-13.161-20.010-5.379-39.769-10.574-43.911-11.547-4.139-0.971 8.528 7.782 28.15 19.451 19.624 11.668 40.513 25.083 46.419 29.809s14.715 10.971 19.567 13.877c18.595 11.128 24.629 25.668 10.653 25.668-1.214 0-8.772 3.952-16.792 8.781-18.445 11.107-17.679 11.238-25.516-4.389-4.329-8.636-15.869-22.251-33.492-39.522-14.788-14.49-31.805-33.683-37.811-42.654-6.008-8.971-14.951-21.166-19.869-27.104l-8.948-10.794-1.736 9.539c-9.871 54.204 1.622 98.112 35.003 133.719 21.379 22.804 22.956 25.115 17.127 25.115-2.186 0-3.973 0.997-3.973 2.216 0 14.9-15.354 0.403-69.71-65.816-8.667-10.562-16.76-19.203-17.983-19.203-5.899 0-2.515 67.393 4.285 85.311 4.462 11.762 5.964 20.581 3.215 18.882-1.434-0.887-2.609-0.416-2.609 1.043 0 1.462 1.195 2.658 2.658 2.658 1.46 0 1.924 1.184 1.029 2.63-1.111 1.799-2.745 1.701-5.166-0.306-2.63-2.183-3.54-2.199-3.54-0.059 0 1.972-2.274 1.706-7.208-0.847-6.952-3.594-10.356-3.049-10.356 1.656 0 1.233 1.413 1.427 3.138 0.435 1.736-0.999 2.243-0.826 1.134 0.391-9.324 10.22-13.681 3.172-13.907-22.497-0.541-61.159-36.162-111.783-102.169-145.198-6.98-3.535-19.402-10.836-27.6-16.226-19.78-13.003-21.18-13.776-21.18-11.723zM298.689 36.359c82.908 43.342 119.528 113.967 97.194 187.447-11.217 36.908-7.937 78.303 8.777 110.789 7.223 14.042 9.563 21.182 8.423 25.719-0.992 3.956-0.517 6.283 1.286 6.283 2.029 0 2.095 0.929 0.224 3.182-1.907 2.3-1.313 4.906 2.146 9.408 2.632 3.425 4.811 5.166 4.843 3.867 0.030-1.299 1.842-0.169 4.025 2.509 3.227 3.962 3.717 4.076 2.637 0.608-1.928-6.165 5.442-2.948 14.471 6.319 8.196 8.414 8.931 15.15 5.588 51.26l-1.918 20.698 6.879 2.616c10.735 4.080 13.271-0.655 14.862-27.755 1.748-29.75 2.874-35.076 7.417-35.076 5.25 0 8.623-7.715 12.712-29.096 4.555-23.805 3.14-26.922-27.115-59.681-33.721-36.515-40.027-54.185-29.013-81.317l2.761-6.802 3.145 10.291c8.786 28.751 35.666 52.68 97.418 86.719 39.93 22.010 48.848 34.097 56.352 76.375 7.328 41.286 17.949 55.843 38.242 52.413 27.763-4.689 29.664-39.514 4.221-77.332-20.435-30.373-25.356-51.302-18.239-77.594 3.206-11.844 4.088-23.098 3.444-44.023-0.473-15.461-0.688-28.108-0.473-28.105 2.948 0.023 24.308 43.157 27.366 55.266 15.548 61.53 45.827 93.572 60.067 63.565 9.022-19.013 3.943-32.38-30.85-81.19-11.909-16.711-16.494-36.828-14.006-61.476 7.031-69.615-3.465-95.746-51.363-127.884-21.203-14.226-23.503-16.802-12.331-13.818 4.499 1.202 13.43 2.773 19.846 3.489 49.372 5.512 80.411 41.316 87.197 100.576 3.521 30.764 6.792 41.061 14.099 44.39 14.982 6.825 24.078-12.317 14.893-31.341-3.498-7.242-2.777-6.855 7.352 3.938 24.521 26.131 34.082 66.307 25.531 107.287-11.212 53.745 14.357 75.826 36.739 31.727l3.601-7.094 2.864 9.605c19.074 63.946 6.694 146.894-28.099 188.257-13.438 15.974-23.868 33.038-29.336 47.991-6.64 18.154-9.799 95.503-4.551 111.409 6.6 19.996-12.53 54.629-30.174 54.629-9.968 0-16.532 3.313-27.725 13.989-19.74 18.83-31.393 18.784-50.183-0.199-35.267-35.626-65.495-25.081-79.131 27.609-2.143 8.281-7.385 22.958-11.65 32.619-13.43 30.429-14.602 33.316-14.602 35.932 0 1.404-1.886 6.315-4.188 10.91-9.696 19.35-9.596 18.363-1.286 12.448 10.606-7.552 40.602-40.396 40.602-44.456 0-1.858 5.22-9.252 11.598-16.435 6.38-7.183 13.091-16.627 14.912-20.986 6.545-15.664 17.812-18.059 26.982-5.73 6.716 9.029 3.935 18.293-14.521 48.39-7.616 12.42-13.856 24.511-13.863 26.87-0.033 8.606-40.481 52.168-48.441 52.168-1.257 0-7.364 3.428-13.567 7.614-14.361 9.694-34.624 19.989-39.339 19.989-2 0-4.013 0.929-4.473 2.064-0.461 1.137-9.469 5.637-20.019 10-10.553 4.363-28.452 12.418-39.778 17.894-25.642 12.399-37.495 9.968-108.362-22.24-23.765-10.8-52.787-52.481-64.779-93.032-3.060-10.349-8.407-27.719-11.879-38.599-4.972-15.578-5.997-22.775-4.817-33.873 2.387-22.469 4.418-36.321 5.613-38.255 2.716-4.392 6.729-30.338 7.707-49.822 1.436-28.604 9.855-47.71 21.020-47.71 10.821 0 18.351 8.416 16.486 18.428-0.811 4.355-2.564 20.904-3.896 36.775-1.329 15.871-3.178 35.792-4.106 44.269-1.654 15.087 0.894 38.445 3.381 31.005 1.994-5.971 10.589-25.93 13.178-30.6 15.744-28.42 26.447-90.077 19.601-112.928-4.921-16.42-10.545-19.149-48.417-23.48-17.539-2.005-18.401-3.299-19.607-29.5-0.585-12.675-3.149-30.717-5.698-40.097-6.682-24.608-3.339-32.857 22.036-54.354 38.401-32.53 48.061-58.572 47.982-129.325-0.042-38.995-1.725-44.397-23.992-77.059-31.575-46.318-35.651-97.527-11.704-147.117 11.43-23.674 11.381-23.651 13.417-6.621 8.175 68.352 68.090 116.94 63.37 51.391-1.802-25.022-20.37-61.026-44.646-86.565-8.946-9.411-29.93-42.517-29.93-47.216 0-2.462-0.486-2.651 17.563 6.785zM509.853 57.934c7.806 10.37 19.837 23.131 26.737 28.356 33.351 25.254 43.949 49.62 46.614 107.177l1.339 28.855-6.865-13.8c-11.147-22.418-27.134-44.117-50.251-68.21-33.225-34.627-36.498-41.932-39.128-87.359-1.491-25.693-1.417-26.192 2.918-20.11 2.445 3.428 10.83 14.72 18.639 25.092zM459.033 124.964c4.696 6.378 18.809 23.37 31.364 37.759 33.826 38.77 41.091 50.576 50.572 82.18 12.782 42.608 6.996 51.524-15.424 23.774-7.833-9.694-15.88-18.54-17.883-19.664-30.665-17.16-54.337-64.145-59.904-118.906-2.031-19.968-0.243-20.785 11.273-5.145zM333.304 447.761c-6.114 6.116-8.933 62.439-3.746 74.857 13.341 31.932 121.337 76.818 124.235 51.636 0.8-6.946-14.857-47.355-21.233-54.795-1.867-2.181-3.392-5.073-3.392-6.432 0-3.517-19.71-36.152-26.044-43.123-17.457-19.212-59.438-32.523-69.819-22.144zM626.875 564.867c-36.576 6.238-102.362 34.596-102.362 44.124 0 4.006 14.083 14.806 22.583 17.324 3.449 1.020 15.516 6.703 26.814 12.625 32.509 17.043 71.258 21.529 86.158 9.972 13.326-10.335 45.453-51.492 44.641-57.189-1.879-13.218-53.457-31.011-77.835-26.857zM442.518 607.95c-6.98 3.374-9.858 10.744-14.513 37.163-2.066 11.732-5.527 26.299-7.691 32.376-8.732 24.526 13.85 21.096 27.811-4.226 25.962-47.089 23.204-79.241-5.607-65.313zM487.518 623.078c-5.616 2.707-10.634 15.208-10.663 26.549-0.007 3.175-1.722 9.071-3.807 13.105-8.754 16.926-12.52 54.050-5.29 52.133 23.514-6.23 51.393-75.477 35.792-88.898-7.717-6.636-8.116-6.708-16.032-2.889zM354.318 678.815c-14.373 15.594-32.126 53.85-41.412 89.247-6.099 23.252-6.855 30.57-5.126 49.659l1.668 18.401 5.782-9.565c12.773-21.13 16.133-28.679 21.172-47.568 2.892-10.84 10.328-30.298 16.526-43.239 10.028-20.944 11.411-25.979 12.57-45.792 1.516-25.939 2.008-25.448-11.18-11.142zM390.793 732.606c-15.778 16.54-20.286 25.162-23.003 43.995-0.976 6.767-4.675 16.898-8.22 22.513-8.659 13.716-17.252 61.786-11.041 61.786 3.187 0 19.067-13.063 26.161-21.516 12.71-15.15 34.517-77.541 34.139-97.67-0.484-25.681-1.664-26.276-18.038-9.109zM519.226 744.689c-4.979 5.529-13.74 16.718-19.47 24.867-5.728 8.147-14.217 20.097-18.861 26.555-12.46 17.312-23.195 69.866-19.385 94.899l1.717 11.292 9.645-20.068c5.305-11.039 14.114-26.648 19.575-34.69 17.516-25.794 38.502-85.877 36.625-104.862l-0.794-8.046-9.052 10.054zM448.667 753.858c-27.843 23.604-57.393 104.548-45.174 123.751 4.226 6.638 27.603-21.421 35.336-42.413 8.051-21.849 20.81-74.504 19.951-82.339l-0.758-6.931-9.354 7.932zM784.003 771.461c-0.957 10.551-2.853 19.184-4.214 19.184-1.436 0-1.818-3.297-0.91-7.841 0.864-4.315 1.57-14.137 1.57-21.831 0-9.81 0.788-13.199 2.646-11.343 1.711 1.713 2.031 9.43 0.908 21.831zM778.647 816.032c-1.975 1.975-2.085-2.133-0.475-17.86 0.353-3.451 1.083-1.322 1.622 4.731 0.536 6.053 0.021 11.961-1.147 13.128z"></path>
</svg>
