<!-- Generated by IcoMoon.io -->
<svg version="1.1" xmlns="http://www.w3.org/2000/svg" width="1024" height="1024" viewBox="0 0 1024 1024">
<title></title>
<g id="icomoon-ignore">
</g>
<path fill="#5b150f" d="M248.467 2.734c-12.653 2.423-61.552 27.539-65.846 33.819-1.113 1.629-2.042 11.134-2.065 21.126-0.024 10.738-2.243 24.555-5.421 33.801-8.089 23.511-11.113 43.425-8.41 55.411 2.317 10.266 1.975 10.94-13.266 26.266-8.605 8.651-19.982 22.794-25.288 31.429-5.302 8.638-14.12 21.823-19.594 29.303s-12.192 19.491-14.929 26.692c-2.737 7.202-7.865 18.291-11.399 24.643-3.531 6.352-6.418 13.483-6.418 15.842s-1.131 4.29-2.513 4.29c-1.383 0-3.332 5.271-4.332 11.708-0.999 6.44-4.733 22.866-8.299 36.505-13.858 53.028-15.098 60.816-15.569 97.796-0.984 77.313 5.9 121.259 24.974 159.453 7.278 14.575 14.825 31.456 16.773 37.517 1.944 6.062 6.905 15.979 11.026 22.038 4.118 6.062 8.352 13.782 9.409 17.156 1.055 3.374 5.873 10.986 10.709 16.916 4.832 5.93 14.977 19.282 22.543 29.675 7.566 10.396 21.202 26.679 30.303 36.189 9.103 9.51 16.703 18.497 16.892 19.973 0.191 1.476 0.595 2.994 0.899 3.372 4.472 5.546 0.933 11.761-6.064 10.655-2.544-0.402-2.75 9.090-0.254 11.588 0.997 0.997 3.477 0.431 5.511-1.256 2.381-1.975 3.697-2.060 3.697-0.233 0 1.557 2.168 2.508 4.821 2.108 2.65-0.397 3.272-0.191 1.375 0.461-1.893 0.653-3.462 2.644-3.486 4.427-0.024 1.952-1.225 1.597-3.015-0.891-2.433-3.385-2.658-3.176-1.241 1.158 0.992 3.028 0.233 6.212-1.772 7.452-2.275 1.407-1.34 2.003 2.66 1.7 3.391-0.257 6.165-1.592 6.165-2.97s1.845-0.975 4.102 0.896c2.256 1.873 3.422 4.504 2.592 5.847-1.753 2.838 2.523 3.327 5.249 0.6 1.013-1.013-0.238-4.142-2.782-6.95-3.817-4.221-3.988-5.699-0.979-8.489 2.886-2.673 3.24-2.66 1.7 0.066-1.179 2.087-0.317 3.444 2.19 3.444 7.212 0 7.995 5.697 1.7 12.396-3.348 3.565-5.229 7.865-4.184 9.56 1.047 1.693 0.248 5.12-1.777 7.619-2.623 3.237-2.692 3.946-0.235 2.471 2.629-1.579 3.446 2.695 3.454 18.069 0.011 17.357 1.055 21.699 7.577 31.471 18.438 27.639 64.148 49.352 72.204 34.298 4.43-8.275 3.644-10.465-8.478-23.617-6.714-7.286-10.7-13.935-9.782-16.325 1.041-2.71 0.241-3.534-2.444-2.504-3.004 1.153-3.991-0.788-3.991-7.852 0-10.698 4.21-16.323 10.43-13.938 2.787 1.071 3.562 0.523 2.256-1.592-1.195-1.935-0.275-3.224 2.304-3.224 2.361 0 4.294 1.151 4.294 2.555s3.832 2.069 8.518 1.476c7.226-0.915 8.014-0.466 5.173 2.954-2.348 2.833-2.425 4.035-0.257 4.035 3.793 0 3.967 19.053 0.317 34.851-2.258 9.785-4.916 48.789-6.45 94.626-0.384 11.409 0.151 12.462 6.707 13.226 10.883 1.265 12.343-3.118 15.871-47.662 1.799-22.728 4.715-52.184 6.482-65.463l3.208-24.14 7.762 7.439c4.771 4.568 7.764 10.312 7.764 14.891 0 8.434 6.308 12.343 10.931 6.771 2.508-3.020 5.895-1.997 18.451 5.564 52.057 31.348 109.129 26.727 140.338-11.361 13.863-16.92 15.961-15.866 14.037 7.070-2.449 29.213 6.934 28.741 10.679-0.536l2.534-19.819 13.776-3.544c7.575-1.946 17.883-3.565 22.908-3.594 5.023-0.029 11.682-1.417 14.794-3.084 4.118-2.203 5.152-2.203 3.79 0-1.032 1.667-0.56 3.031 1.045 3.031s2.917-1.478 2.917-3.282c0-1.806 1.799-0.876 3.996 2.065 3.817 5.109 3.92 5.049 2.311-1.314-1.346-5.329-0.802-6.326 2.713-4.977 2.42 0.929 4.999 0.209 5.737-1.599 0.736-1.809 1.436-0.5 1.555 2.91 0.167 4.786 1.851 6.198 7.4 6.198 5.416 0 6.771-1.071 5.509-4.358-0.92-2.396-1.671-4.948-1.671-5.673 0-0.722-1.155-0.6-2.565 0.27-1.41 0.872-3.343 0.325-4.294-1.214s0.574-2.8 3.391-2.8c2.816 0 6.318-1.195 7.778-2.655s6.976-3.009 12.258-3.444l9.605-0.788 0.907 13.776c0.497 7.575-0.534 27.41-2.298 44.076-1.761 16.666-3.694 37.742-4.294 46.834-0.6 9.090-1.796 20.573-2.658 25.519-1.169 6.728-0.444 9.418 2.886 10.694 7.066 2.71 9.13-1.759 10.997-23.817 1.581-18.69 11.052-96.284 13.2-108.156 1.307-7.23 6.162-10.991 14.188-10.991 5.506 0 6.824-1.092 5.678-4.702-1.404-4.425 3.097-10.108 12.097-15.278 2.597-1.491 3.224-1.175 1.904 0.96-2.48 4.012 3.856 4.096 9.378 0.121 3.472-2.497 3.354-2.721-0.754-1.397-4.149 1.338-4.441 0.746-1.928-3.949 1.627-3.039 3.969-4.9 5.207-4.136 1.235 0.764 4.465-1.061 7.175-4.054 2.71-2.996 6.064-5.445 7.45-5.445 11.081 0 55.009-42.396 71.646-69.147 2.449-3.938 11.441-15.095 19.98-24.794 13.789-15.656 22.501-29.088 54.757-84.435 4.636-7.955 9.481-14.463 10.766-14.463 1.283 0 1.623-1.151 0.754-2.555-0.867-1.407 0.608-3.266 3.282-4.131s7.773-6.681 11.333-12.925c3.56-6.246 4.985-10.435 3.169-9.315-2.537 1.568-2.576 0.685-0.178-3.8 1.722-3.213 2.311-5.842 1.317-5.842-0.997 0-0.558-1.55 0.975-3.444 3.012-3.718 2.875-10.24-0.461-21.761-1.304-4.504 0.005-18.221 3.417-35.813 3.042-15.682 6.302-43.237 7.25-61.229 1.637-31.151 2.091-33.087 9.489-40.485 4.274-4.274 10.136-12.486 13.030-18.251 10.34-20.608 28.768-49.698 35.475-55.995 13.837-13 4.667-50.015-22.677-91.539-14.945-22.694-36.295-25.372-36.692-4.604-0.040 2.155-4.496-1.041-9.901-7.103-5.405-6.059-12.425-13.916-15.598-17.457-5.803-6.474-18.065-7.347-29.829-2.124-3.435 1.526-8.656-4.432-23.147-26.415-68.723-104.275-201.427-177.175-333.3-183.094-40.428-1.814-107.688 4.79-127.233 12.493-22.119 8.719-29.004 8.605-31.458-0.523-3.888-14.458-6.308-15.513-31.498-13.736l-23.093 1.632 1.553-9.565c2.862-17.632-8.425-21.906-41.254-15.622zM273.288 21.073c-12.031 13.292-1.021 19.288 33.259 18.111 16.121-0.553 22.85 0.182 23.149 2.531 0.23 1.823 0.563 4.551 0.74 6.069 0.915 7.854 9.394 14.586 20.795 16.51 6.767 1.145 43.925 17.661 82.637 36.731l70.339 34.656 27.917 27.938c15.352 15.365 31.4 33.399 35.655 40.072 4.255 6.675 10.43 15.233 13.72 19.020 37.491 43.171 53.355 122.405 45.097 225.224l-3.578 44.544-58.029 0.793c-31.915 0.437-58.391 0.635-58.835 0.442-0.444-0.191 2.309-16.307 6.119-35.811 28.517-145.939 9.96-196.79-78.316-214.618-69.544-14.043-126.649 3.843-149.817 46.922-11.951 22.225-27.296 29.154-55.266 24.961-13.866-2.078-15.511-5.591-6.932-14.799 3.088-3.314 4.599-6.027 3.354-6.027-1.243 0-2.526-3.224-2.853-7.162-0.325-3.938-3.075-12.771-6.11-19.633-11.891-26.874-5.287-38.776 10.322-18.603 15.293 19.767 21.236 19.98 33.97 1.227 45.718-67.319 45.679-88.162-0.224-120.398-9.848-6.916-21.372-15.772-25.605-19.679-12.361-11.406-35.409 9.064-43.329 38.48-3.512 13.041-6.657 13.659-10.685 2.105-4.657-13.36-3.714-22.231 5.239-49.178 5.438-16.365 8.265-30.434 8.265-41.122v-16.249l22.728-13.128c31.955-18.462 70.080-25.187 56.272-9.928zM274.867 87.662c-8.563 7.995-8.608 7.918 14.509 24.436l20.617 14.733 17.217-1.865c18.687-2.025 37.88-6.339 37.88-8.511 0-17.397-15.185-27.711-44.078-29.94-12.879-0.992-27.134-2.444-31.68-3.224-5.972-1.026-9.984 0.187-14.463 4.369zM667.718 192.681c22.253 2.618 33.021 5.445 83.047 21.792 12.879 4.208 36.433 11.652 52.343 16.542 17.072 5.247 31.81 11.575 35.962 15.445 8.273 7.704 23.147 8.764 30.434 2.168 4.467-4.041 5.242-3.898 9.859 1.841 29.569 36.745 42.92 43.343 46.601 23.030 2.076-11.438 2.291-11.366 14.178 4.784 20.3 27.581 30.828 65.024 20.9 74.328-6.466 6.059-15.662 20.8-35.346 56.656-8.106 14.765-17.278 22.521-26.859 22.715-6.128 0.125-6.062-1.59 0.371-9.764 6.771-8.608 12.851-40.026 9.095-47.003-3.661-6.802-63.878-21.419-80.384-19.512-24.206 2.796-37.237 23.535-46.9 74.642-7.905 41.798-1.219 51.761 26.050 38.82 12.273-5.823 14.028-4.403 9.917 8.050-2.75 8.331-6.056 11.047-23.524 19.341-20.3 9.635-26.169 15.521-26.169 26.253 0 12.42-21.959 2.337-35.438-16.268-7.222-9.973-7.778-12.187-5.381-21.443 16.431-63.44-7.474-116.579-67.499-150.059-8.965-5.001-13.432-15.482-26.725-62.742-3.198-11.364-12.528-33.898-20.737-50.082-12.761-25.161-14.23-29.573-10.15-30.467 9.888-2.161 44.171-1.682 66.355 0.931zM456.649 274.078c23.262 11.832 37.245 32.815 39.733 59.632l1.586 17.103-31.318 31.812c-18.991 19.295-37.818 41.754-47.844 57.071-18.859 28.822-18.042 28.612-33.988 8.691-6.572-8.212-22.376-25.519-35.124-38.458-28.113-28.544-28.599-21.926 4.375-59.25 75.997-86.017 79.268-88.459 102.581-76.599zM799.117 273.232c-4.744 3.47-4.219 4.911 8.928 24.392 16.301 24.156 23.391 28.319 52.594 30.863l20.34 1.772-1.629-10.044c-0.962-5.93-4.144-11.803-7.773-14.344-3.38-2.367-14.094-11.509-23.81-20.314-18.946-17.169-36.086-21.511-48.651-12.324zM249.536 380.912c55.993 14.586 97.693 50.401 124.742 107.143 17.693 37.109 32.6 94.977 37.742 146.508 6.198 62.104 21.236 98.415 47.318 114.277 46.781 28.451 72.878 83.203 57.603 120.852-29.956 73.82-103.212 78.789-180.010 12.21-53.935-46.762-117.732-18.131-75.213 33.753 18.478 22.551-10.057 10.333-29.837-12.774-11.972-13.988-14.583-35.716-7.112-59.187 2.497-7.852 19.105-26.986 19.105-22.016 0 1.208 2.208-0.527 4.903-3.856 16.217-20.028 66.939-12.091 124.735 19.512 41.296 22.585 54.355 25.841 64.688 16.132 10.762-10.108 9.047-19.653-4.929-27.472-78.461-43.896-96.403-77.24-106.701-198.322-7.415-87.163-13.705-103.163-48.114-122.405-34.653-19.38-64.974-19.266-83.441 0.317-28.086 29.782 5.355 60.021 65.378 59.118l32.569-0.49 1.663 10.38c1.637 10.2 4.9 40.678 9.734 90.87 1.344 13.969 3.182 26.589 4.083 28.049 5.216 8.436-55.038 11.118-65.468 2.912-7.050-5.543-25.405-6.876-28.383-2.060-8.243 13.336-68.793-15.976-102.441-49.597-89.294-89.217-49.468-252.3 63.535-260.178 5.678-0.397 10.327-1.557 10.33-2.583 0.018-5.699 42.997-6.44 63.519-1.095zM676.868 524.121c13.147 2.471 27.401 6.318 31.68 8.55s8.625 4.065 9.653 4.076c5.411 0.048 36.305 23.672 47.107 36.020 78.266 89.469 32.714 229.737-84.594 260.501-72.619 19.044-160.569-40.548-188.481-127.707-3.169-9.896 0.55-11.895 29.881-16.064 6.818-0.968 25.288-4.237 41.042-7.265l28.647-5.504 10.692 12.506c40.265 47.109 107.185 35.242 87.863-15.577-4.993-13.134-27.716-23.138-27.79-12.236-0.053 7.595-2.594 11.557-8.913 13.887-3.139 1.158-4.821 4.691-4.821 10.132 0 5.678-1.355 8.349-4.237 8.349-3.602 0-3.975-3.242-2.489-21.647 1.703-21.056 1.573-21.693-4.715-23.355-11.642-3.075-77.102 3.877-144.208 15.317-18.182 3.099-37.515 6.202-42.96 6.89l-9.901 1.254-1.869-31.241c-1.028-17.182-3.674-41.778-5.877-54.657-2.205-12.877-4.348-30.797-4.757-39.821l-0.751-16.402 13.776-2.405c62.819-10.951 186.857-12.848 236.021-3.602z"></path>
</svg>
