<!-- Generated by IcoMoon.io -->
<svg version="1.1" xmlns="http://www.w3.org/2000/svg" width="1024" height="1024" viewBox="0 0 1024 1024">
<title></title>
<g id="icomoon-ignore">
</g>
<path fill="#5b150f" d="M657.33 7.451c-4.852 4.105-12.809 9.749-17.679 12.546-4.872 2.797-18.534 12.429-30.362 21.405s-27.769 20.451-35.423 25.5c-7.651 5.051-18.549 12.939-24.214 17.532l-10.299 8.355-15.002-6.219c-8.251-3.42-16.070-6.46-17.38-6.753-1.308-0.296-6.702 10.791-11.984 24.639-13.13 34.418-11.947 33.67-37.7 23.781-11.72-4.502-21.581-8.333-21.915-8.513-0.331-0.182 1.596-5.941 4.283-12.796 2.687-6.858 7.661-19.827 11.054-28.817l6.168-16.351-40.811-14.832c-61.105-22.211-70.608-24.992-72.884-21.338-11.671 18.757-32.673 87.882-31.301 103.029 3.908 43.158 4.134 55.667 1.521 84.303-4.967 54.464 5.245 40.752-72.239 97.008-104.49 75.861-104.997 76.264-104.997 83.431 0 2.975 2.727 14.93 6.058 26.566 9.043 31.586 23.337 85.419 32.149 121.092 4.298 17.396 10.222 41.046 13.167 52.559 4.633 18.124 4.912 22.027 2.069 29.096-1.807 4.49-8.748 23.533-15.424 42.319-19.185 53.979-41.803 115.86-50.337 137.72-9.571 24.517-11.129 23.732 16.115 8.138 21.485-12.295 32.736-17.677 63.628-30.424 12.521-5.168 13.187-5.943 17.090-19.926 2.232-7.999 5.032-14.547 6.219-14.547 4.668 0 6.893 21.233 3.313 31.627-4.758 13.819-4.193 28.089 2.374 60.047l5.583 27.157 8.589-5.307c4.723-2.92 8.896-4.895 9.277-4.387 0.704 0.935 13.451 49.117 20.326 76.823 6.287 25.328 24.507 90.172 25.858 92.011 0.373 0.51 3.868-1.521 7.764-4.514 11.74-9.023 31.979-24.065 38.709-28.768 13.294-9.292 40.998-29.083 65.724-46.954 14.144-10.222 26.491-17.813 27.436-16.866 1.909 1.909 2.091 30.421 0.328 51.898-1.103 13.461-0.935 13.915 5.185 13.915 6.047 0 6.358-0.749 7.072-17.079 0.694-15.812 1.171-17.077 6.453-17.077 9.106 0 11.775-4.922 11.775-21.716 0-16.21 7.273-26.826 24.8-36.208 2.757-1.474 7.085-8.449 9.62-15.501 3.92-10.897 16.535-25.248 22.201-25.248 0.714 0-0.731 5.978-3.211 13.285-4.772 14.052-2.759 23.3 9.772 44.908 2.018 3.48 8.947 18.074 15.397 32.433 6.448 14.358 12.575 26.312 13.612 26.566 2.103 0.512 10.455-18.989 22.015-51.407 10.935-30.665 23.003-63.663 32.388-88.553 4.459-11.828 10.586-29.36 13.617-38.959 5.108-16.177 6.62-18.26 20.691-28.497 8.347-6.073 24.289-17.925 35.42-26.337s23.91-17.789 28.4-20.838c4.487-3.051 15.086-10.44 23.556-16.422l15.395-10.878-1.743 26.059c-2.931 43.827-3.18 41.237 3.97 41.237 5.717 0 6.383-1.093 6.943-11.384 1.379-25.373 6.025-59.323 8.534-62.345 1.467-1.768 1.842-4.688 0.831-6.487s0.211-1.342 2.72 1.021c3.686 3.468 4.449 7.719 3.982 22.136-0.477 14.761 0.107 17.846 3.385 17.846 2.953 0 4.009-2.75 4.136-10.754 0.448-28.152 2.99-35.74 11.437-34.127 4.228 0.808 5.625 0.378 4.012-1.236-3.307-3.303 4.244-12.076 10.393-12.076 2.556 0 4.017-1.019 3.246-2.265s0.42-2.963 2.644-3.816c2.382-0.915 3.426-3.16 2.54-5.466-0.89-2.314 1.074-6.491 4.803-10.219l6.304-6.307-13.97-53.643c-7.686-29.504-16.168-61.043-18.852-70.089-2.685-9.043-5.376-19.293-5.983-22.77-0.606-3.48-4.082-16.304-7.721-28.502-8.377-28.082-8.327-29.228 1.803-42.609 4.629-6.115 14.532-20.224 22.004-31.356 16.309-24.299 32.599-42.159 48.010-52.644 14.355-9.764 13.878-9.006 21.723-34.645 3.616-11.828 11.153-32.708 16.744-46.397 5.652-13.841 9.197-25.844 7.987-27.033-2.56-2.515-32.648-14.020-48.985-18.73-6.262-1.805-18.785-6.428-27.831-10.273-9.043-3.845-20.687-8.496-25.87-10.336l-9.426-3.346-2.742 10.619c-11.407 44.185-17.791 49.972-43.414 39.358-16.431-6.806-16.222-5.347-5.235-36.327 10.299-29.039 11.022-26.754-11.412-36.053-10.91-4.522-21.194-8.223-22.854-8.223s-3.018-2.433-3.018-5.411c0-2.975-3.555-17.49-7.899-32.259-4.345-14.765-9.294-33.108-10.997-40.762s-5.001-20.177-7.328-27.831c-2.327-7.654-6.215-21.507-8.64-30.786l-4.412-16.874-8.824 7.459zM368.382 46.606c5.173 2.208 21.888 8.521 37.145 14.032s28.067 10.348 28.469 10.751c0.714 0.714-3.313 12.974-14.005 42.661l-5.235 14.535 5.235 2.801c2.879 1.541 12.777 5.468 21.997 8.728s24.358 8.785 33.645 12.28l16.883 6.354 5.056-14.435c6.853-19.563 15.196-41.468 16.162-42.435 1.31-1.31 68.834 21.942 71.521 24.63 0.688 0.688-1.727 8.562-5.369 17.492-7.107 17.425-14.464 40.491-13.15 41.214 1.228 0.673 24.544 9.344 38.756 14.413 13.588 4.842 18.057 13.791 13.488 27.004-2.777 8.032 0.082 13.714 6.444 12.807 4.504-0.644 5.496-2.757 6.155-13.105 0.43-6.786 2.304-14.756 4.164-17.711 1.86-2.953 4.213-8.153 5.235-11.554 1.019-3.403 4.074-7.981 6.786-10.177 3.284-2.66 5.322-8.193 6.105-16.568 0.646-6.915 2.098-13.498 3.229-14.629 3.112-3.112 73.634 21.8 73.634 26.014 0 1.447-14.29 42.28-18.606 53.169-1.146 2.891 3.149 5.399 18.037 10.527 10.748 3.702 27.266 9.675 36.705 13.271 15.827 6.031 17.269 6.194 18.526 2.122 5.19-16.791 20.353-53.673 22.079-53.708 1.158-0.025 9.7 3.268 18.976 7.316 9.28 4.050 21.591 8.615 27.364 10.15 5.772 1.531 15.593 5.041 21.823 7.798l11.327 5.011-9.605 25.332c-5.284 13.933-10.403 29.029-11.375 33.546-3.013 13.983-8.073 21.164-20.66 29.294-14.38 9.294-26.931 23.585-48.992 55.786-33.401 48.753-36.702 53.333-45.266 62.758-4.817 5.304-11.423 15.078-14.676 21.723s-10.887 19.195-16.968 27.893l-11.054 15.812 14.392 51.264-4.85 15.581c-2.667 8.568-6.565 17.296-8.666 19.394-2.098 2.1-3.813 5.032-3.813 6.518 0 2.712-33.909 1.559-75.302-2.556l-18.375-1.827-34.383 35.474-15.733 48.073c-19.792 60.481-16.424 55.654-36.392 52.177-8.971-1.563-19.919-2.841-24.326-2.841-9.618 0-9.632-0.162-1.884-20.746l6.129-16.289-14.353-4.551c-35.081-11.132-29.155-14.271-43.604 23.11l-2.148 5.558-29.713-9.983c-36.708-12.332-34.973-10.154-25.723-32.253 4.251-10.157 7.31-18.757 6.798-19.113-4.571-3.176-37.662-16.813-40.797-16.813-3.589 0-14.527 22.932-14.527 30.456 0 3.746-0.999 3.311-23.826-10.379l-21.366-12.814 6.563-16.916c3.612-9.301 8.683-23.175 11.273-30.829s6.839-19.039 9.438-25.3c13.975-33.65 13.483-31.549 10.741-45.863-1.434-7.477-3.289-18.718-4.124-24.98l-1.516-11.384-37.868-24.818c-20.826-13.649-37.868-26.2-37.868-27.888 0-17.384 17.48-43.819 38.169-57.728l21.258-14.294 3.221-18.599c1.77-10.229 3.659-27.706 4.196-38.84 0.537-11.132 1.588-21.947 2.337-24.035 6.021-16.797 12.071-127.776 7.856-144.039-5.339-20.582-4.044-26.155 21.352-91.889 3.122-8.079 4.76-8.355 17.443-2.941zM450.724 226.651c-15.753 18.77-17.763 23.22-20.883 46.174-1.608 11.828-4.005 27.769-5.329 35.423-4.171 24.131-3.714 36.966 1.578 44.316 2.654 3.692 8.814 12.849 13.684 20.353 4.872 7.502 14.191 21.352 20.711 30.779 6.518 9.426 12.411 20.22 13.095 23.985 2.732 15.082 7.054 16.592 5.738 2.006-1.265-14.005-11.974-36.575-35.337-74.486-10.199-16.545-10.326-17.239-6.839-37.003 1.332-7.562 2.933-25.862 3.557-40.672 0.723-17.244 2.446-29.069 4.79-32.889 8.059-13.144 17.214-30.004 16.295-30.004-0.537 0-5.513 5.409-11.059 12.019zM373.993 304.944c-3.477 6.61-13.54 21.159-22.359 32.327-22.531 28.537-24.051 32.002-22.107 50.444 0.892 8.474 2.048 23.431 2.568 33.235 1.539 29.034 4.527 36.233 21.81 52.545 8.494 8.014 14.603 13.217 13.58 11.558-1.297-2.098-0.783-2.341 1.69-0.798 5.374 3.354 9.125 3.878 34.841 4.862 20.975 0.806 24.463 1.621 30.362 7.117 15.027 13.997 25.097 13.332 39.902-2.642 10.252-11.064 6.982-14.8-4.152-4.74-16.948 15.313-23.702 11.069-41.48-26.066-10.93-22.834-19.019-31.662-34.212-37.334-51.647-19.285-61.285-38.567-38.679-77.398 20.155-34.619 26.277-47.056 25.342-51.456-0.43-2.021-3.626 1.735-7.107 8.345zM686.808 312.041c-2.57 19.357-5.983 30.431-10.543 34.214-1.981 1.645-10.093 12.837-18.024 24.87-26.399 40.054-25.261 39.061-58.431 50.963-46.594 16.719-49.191 17.99-63.109 30.871-15.931 14.74-14.863 15.096 6.655 2.208 10.537-6.311 24.446-11.818 38.102-15.084 50.983-12.19 55.274-14.427 69.501-36.213 42.847-65.632 41.165-61.916 39.348-86.769l-1.482-20.241-2.016 15.18zM694.345 430.061c-6.058 20.177-7.279 25.895-10.451 48.965-4.176 30.384-26.826 39.832-67.614 28.209-30.454-8.678-41.182-8.327-61.257 2.001-32.996 16.973-45.602 15.245-48.505-6.652-1.099-8.288-2.401-11.439-3.808-9.219-3.831 6.043-2.331 20.296 3.053 29.007 5.409 8.752 7.238 9.342 26.677 8.583 9.401-0.366 10.989 0.483 15.944 8.499 21.88 35.4 90.456 31.736 113.028-6.038 1.248-2.093 7.070-7.058 12.936-11.037 16.363-11.099 20.961-23.058 20.961-54.538 0-15.362 1.616-32.263 3.937-41.227 5.99-23.122 2.296-20.523-4.902 3.448zM293.781 493.873c4.355 3.44 4.316 4.206-0.917 18.407-16.836 45.679-27.272 74.832-40.175 112.223-7.925 22.961-15.802 44.331-17.509 47.491-3.176 5.881-2.044 10.701 2.521 10.701 1.406 0 9.739 5.124 18.514 11.384 19.727 14.077 17.627 14.579 23.896-5.693 7.743-25.047 6.689-24.61 28.152-11.683 10.41 6.27 19.889 12.34 21.065 13.49 1.178 1.151-0.761 11.564-4.303 23.14-3.545 11.579-6.215 21.112-5.936 21.186 0.281 0.074 9.802 4.979 21.159 10.897l20.646 10.761 5.325-15.869c8.089-24.115 7.221-23.67 25.698-13.177 11.552 6.56 20.431 9.61 30.782 10.572 16.779 1.561 16.58 1.034 8.067 21.264-8.188 19.453-7.647 20.57 11.877 24.53 8.861 1.799 18.437 3.825 21.283 4.506 4.435 1.062 6.386-1.7 13.676-19.361l8.507-20.603 17.542 1.762c34.334 3.448 34.873 4.166 23.781 31.627l-5.904 14.619 18.683 2.779c32.603 4.85 28.042 9.268 47.429-45.925 9.409-26.787 18.706-51.235 20.66-54.329s5.19-11.634 7.191-18.976c3.115-11.419 8.855-26.969 19.17-51.933 2.712-6.565 8.472-7.136 27.567-2.727 14.218 3.281 14.631 4.234 8.736 20.12-2.259 6.088-9.185 25.303-15.387 42.696-6.202 17.396-15.002 41.873-19.553 54.397-27.276 75.053-32.325 89.294-34.090 96.16-1.074 4.186-3.316 9.878-4.979 12.653-1.666 2.771-6.518 15.288-10.783 27.811-13.866 40.705-19.961 57.839-20.916 58.794-0.514 0.514-6.829-10.922-14.032-25.414l-13.095-26.352 17.632-44.978-6.757-1.598c-3.719-0.88-14.885-1.733-24.816-1.897l-18.057-0.301-8.288 25.3c-4.557 13.915-9.006 25.3-9.884 25.3s-8.325 5.689-16.547 12.643c-8.226 6.955-15.655 11.793-16.513 10.754-4.41-5.335-15.524-36.671-14.363-40.488 0.739-2.427 3.8-10.674 6.806-18.328 12.417-31.627 12.72-29.76-5.349-33.019-35.099-6.329-31.403-7.019-36.288 6.796-31.617 89.437-32.673 91.462-58.277 111.851-9.739 7.756-18.959 15.745-20.488 17.756-4.052 5.325-8.609 1.246-8.609-7.711 0-4.268-1.817-18.432-4.042-31.475-3.274-19.205-3.458-25.281-0.972-31.94 6.933-18.573 21.109-57.518 27.548-75.677l6.873-19.381-18.499-10.346c-10.174-5.689-19.705-10.631-21.176-10.977-2.61-0.616-4.936 4.527-15.332 33.916-4.756 13.445-6.145 14.937-23.063 24.731-19.944 11.546-20.286 11.472-24.364-5.372-4.576-18.907-3.465-28.465 6.17-53.124 7.803-19.968 8.511-23.441 5.171-25.313-2.133-1.191-8.904-6.006-15.051-10.699-22.469-17.149-24.368-16.095-35.378 19.674-2.528 8.208-5.263 10.893-17.339 17.008-15.63 7.915-40.058 17.662-40.058 15.984 0-2.225 20.22-59.087 29.143-81.956 5.158-13.22 12.573-33.143 16.476-44.277 3.903-11.132 12.387-35.040 18.857-53.132 6.468-18.090 15.566-43.705 20.217-56.924 7.005-19.909 20.321-56.867 25.318-70.273 1.199-3.214 24.107 6.972 34.952 15.544zM466.34 520.773c-2.519 2.781-5.707 5.059-7.087 5.059-15.835 0-34.714 36.276-34.598 66.468l0.062 15.76 11.552-13.281c16.058-18.467 29.327-14.853 25.549 6.958-3.028 17.472 1.492 19.215 12.414 4.785 16.504-21.81 24.816-53.474 16.717-63.691-1.342-1.695-3.264-7.633-4.271-13.197-2.652-14.681-11.558-18.561-20.339-8.859z"></path>
</svg>
