<!-- Generated by IcoMoon.io -->
<svg version="1.1" xmlns="http://www.w3.org/2000/svg" width="1024" height="1024" viewBox="0 0 1024 1024">
<title></title>
<g id="icomoon-ignore">
</g>
<path fill="#5b150f" d="M333.695 7.293c-1.77 4.33-6.943 22.036-11.491 39.351-18.94 72.111-21.182 78.988-25.258 77.423-2.172-0.833-3.237-0.362-2.369 1.045 0.872 1.407-4.898 7.215-12.819 12.906-82.078 58.965-151.142 169.358-168.885 269.949-2.012 11.412-4.921 20.75-6.463 20.75s-4.65 2.253-6.908 5.008c-2.258 2.755-3.29 3.397-2.295 1.431 1.082-2.135-0.055-3.579-2.818-3.579-2.547 0-3.833 1.289-2.862 2.862 0.975 1.576 0.005 2.862-2.153 2.862s-6.688 2.576-10.064 5.724c-3.379 3.149-8.453 5.827-11.273 5.95-2.961 0.131-3.627 0.833-1.573 1.662 2.479 1 2.726 2.983 0.814 6.551-1.505 2.814-1.925 5.932-0.929 6.924 0.993 0.995 0.228 1.806-1.701 1.806s-2.768 1.2-1.861 2.665c0.906 1.466 0.276 3.511-1.4 4.548-2.117 1.308-2.137 2.98-0.071 5.47 1.635 1.972 2.019 4.714 0.853 6.089-1.166 1.379 0.379 0.614 3.437-1.694 3.246-2.452 4.684-2.746 3.458-0.706-1.153 1.922 0.087 7.717 2.757 12.88 4.435 8.582 4.445 9.049 0.116 5.457-3.075-2.549-4.734-2.801-4.734-0.714 0 6.073 1.444 7.41 7.155 6.614 3.45-0.48 4.456 0.108 2.531 1.479-1.757 1.25-4.094 5.494-5.196 9.429-1.525 5.451-1.289 6.134 1.003 2.862 3.001-4.291 4.682-0.964 3.361 6.651-0.226 1.297 0.843 1.583 2.376 0.636 2.232-1.379 7.486 15.519 6.636 21.333-0.112 0.787 1.032 2.925 2.549 4.753 1.812 2.185 1.576 4.054-0.686 5.451-2.075 1.284-2.696 0.922-1.567-0.909 1.203-1.946-0.362-2.452-4.353-1.407l-6.233 1.631 6.231 2.303c3.43 1.269 8.164 1.565 10.522 0.659 5.593-2.145 5.683 5.696 0.118 10.314-5.919 4.913 0.662 12.042 7.681 8.319 3.934-2.088 5.304-1.158 6.743 4.58 0.995 3.958 2.746 6.617 3.894 5.908s6.612 12.499 12.144 29.354l10.057 30.643-8.872 4.695c-4.879 2.581-14.458 6.36-21.287 8.398-11.664 3.482-12.312 4.214-10.732 12.121 0.927 4.629 1.683 12.62 1.683 17.756 0 13.941 7.591 21.353 24.325 23.751 10.794 1.549 14.318 3.259 14.342 6.961 0.016 2.702 2.19 7.431 4.826 10.511 3.406 3.978 3.813 6.005 1.4 6.987-1.925 0.782-1.227 1.635 1.613 1.966 5.617 0.653 10.375 1.727 11.449 2.584 0.394 0.315 3.879 1.153 7.747 1.861 3.866 0.708 7.954 2.786 9.082 4.611 1.51 2.444 3.388 2.237 7.114-0.787 3.123-2.534 4.241-2.744 2.92-0.546-1.177 1.959-4.8 4.986-8.048 6.724-3.411 1.825-5.165 1.959-4.151 0.315 0.969-1.565-0.163-3.587-2.516-4.488-2.923-1.122-4.278 0.184-4.278 4.122 0 5.067 1.297 5.549 10.732 3.989 7.988-1.321 9.634-1 6.441 1.258-2.801 1.977-3.075 3.046-0.787 3.075 2.544 0.031 2.77 1.983 0.824 7.098-2.941 7.738-1.77 9.172 9.091 11.144 4.015 0.727 9.718 2.726 12.68 4.44 2.959 1.714 8.999 4.403 13.423 5.976 4.422 1.571 7.252 4.133 6.288 5.69-0.969 1.573 0.061 2.141 2.316 1.276 2.573-0.988 4.701 0.861 5.797 5.041 0.953 3.629 0.552 7.006-0.896 7.502-1.444 0.493 0.471 6.446 4.256 13.229 3.783 6.78 6.073 13.134 5.086 14.125-0.988 0.988-0.294 1.957 1.541 2.153 1.838 0.197 4.627 0.68 6.202 1.074 1.573 0.392 4.58 0.874 6.678 1.072 5.803 0.546 4.753 9.529-2.040 17.443-4.986 5.808-5.097 6.318-0.62 2.862 2.996-2.314 7.657-3.831 10.356-3.375 3.907 0.662 4.609-0.741 3.44-6.864-2.038-10.653 4.091-6.428 6.483 4.469 1.2 5.459 3.198 7.872 5.722 6.903 2.132-0.819 6.875 0.11 10.54 2.062 5.814 3.101 6.213 3.007 3.13-0.732-2.847-3.453-2.739-4.285 0.557-4.285 2.251 0 4.007 0.751 3.91 1.67-0.528 4.892 1.053 8.589 6.215 14.542 4.679 5.396 5.071 7.392 2.145 11.002-2.867 3.544-2.851 3.98 0.079 2.218 2.34-1.405 8.243 2.337 16.464 10.443 7.050 6.95 18.048 15.096 24.441 18.1l11.622 5.464-1.536 34.343c-0.846 18.89-2.365 38.542-3.377 43.673-2.049 10.401 2.24 17.861 10.27 17.861 8.996 0 10.844-6.586 12.858-45.792 1.092-21.25 2.413-39.078 2.933-39.616 2.177-2.242 21.411 6.715 21.411 9.97 0 5.278 5.764 7.857 9.408 4.212 3.581-3.581 13.489-4.343 13.489-1.039 0 1.181 4.186 2.413 9.301 2.742 66.993 4.278 69.496 4.256 86.573-0.712 9.445-2.749 17.585-4.49 18.089-3.87s2.177-1.129 3.719-3.884c3.621-6.47 13.165-6.47 14.857 0 1.171 4.485 1.342 4.449 1.641-0.349 0.289-4.666 0.956-4.85 5.159-1.431 4.251 3.458 4.593 3.301 2.862-1.315-1.082-2.884-1.966-5.856-1.966-6.606 0-0.754-1.609-0.456-3.579 0.653-2.623 1.481-2.746 1.116-0.465-1.37 2.24-2.439 5.254-2.573 10.761-0.478 5.604 2.13 10.128 1.859 16.924-1.017 27.033-11.436 82.503-19.702 100.548-14.98l8.282 2.169-1.898 27.031c-1.668 23.719-1.337 27.031 2.705 27.031 3.87 0 4.451 3.064 3.634 19.234-0.856 16.965-0.333 19.36 4.412 20.316 7.418 1.489 10.241-4.159 10.461-20.949 0.105-7.87 2.406-34.259 5.11-58.645l4.918-44.334 23.811-13.134 20.949 11.147c32.807 17.454 32.421 17.438 46.845 1.951 13.895-14.923 14.634-23.475 3.408-39.548l-5.624-8.054 6.163-1.609c5.614-1.468 5.769-2.049 1.749-6.494-4.028-4.451-3.666-5.549 4.154-12.514 10.353-9.225 12.475-9.555 9.936-1.552-1.37 4.32-0.94 5.47 1.486 3.971 1.88-1.163 2.797-4.485 2.040-7.386-2.586-9.886 15.495-27.106 23.903-22.766 5.68 2.933 6.371 2.93 3.6-0.005-3.715-3.941 6.184-14.147 13.895-14.329 7.41-0.173 14.555-13.895 12.617-24.231-1.499-7.986 0.145-12.806 9.674-28.377 70.233-114.746 85.977-248.737 44.613-379.676-4.026-12.74-8.532-25.434-10.015-28.204-1.81-3.382-1.573-6.165 0.723-8.46 2.652-2.65 2.568-3.947-0.375-5.766-2.897-1.788-3.132-4.753-0.998-12.492 1.979-7.171 1.843-11.186-0.471-13.693-2.484-2.691-2.411-3.062 0.305-1.53 1.966 1.111 3.577 0.657 3.577-1.011s-1.933-3.031-4.293-3.031c-2.361 0-4.293-1.363-4.293-3.031s1.609-2.064 3.579-0.883c2.851 1.714 2.857 1.26 0.024-2.24-1.953-2.415-2.705-5.238-1.67-6.276 1.037-1.035 0.544-1.883-1.098-1.883-5.793 0-6.097-16.165-0.675-35.864 18.273-66.366 19.512-60.118-13.741-69.251-36.295-9.968-35.8-10.023-38.676 4.219-2.009 9.959-3.839 12.465-10.156 13.891-4.236 0.958-11.567 2.676-16.288 3.82-7.691 1.861-10.467 0.365-26.578-14.324-9.897-9.023-24.351-20.715-32.124-25.988-7.772-5.27-14.164-11.028-14.203-12.795-0.176-7.591-36.639-36.029-64.525-50.321-64.396-33.010-192.859-46.125-210.56-21.5-0.929 1.297-10.498 3.605-21.259 5.128s-27.356 4.572-36.874 6.77l-17.309 3.999-12.948-11.657c-7.118-6.412-13.935-12.512-15.146-13.56s-0.247-7.449 2.145-14.226c5.797-16.433 5.617-17.323-3.522-17.378-4.33-0.029-17.53-2.581-29.335-5.674-27.403-7.184-27.325-7.189-31.147 2.145zM370.567 25.162c5.595 1.499 6.919 3.424 6.071 8.839-0.596 3.805-1.242 8.495-1.431 10.419-0.562 5.68 54.615 53.992 84.796 74.243 33.35 22.38 32.828 19.030 6.647 42.557-60.089 53.992-83.504 134.615-58.984 203.1 3.382 9.445 6.864 19.392 7.736 22.102 1.423 4.427-0.273 4.76-16.616 3.261-42.932-3.941-119.798 4.989-119.798 13.919 0 4.719-1.289 5.376-7.489 3.82-4.12-1.035-11.202-2.623-15.742-3.531-10.265-2.051-10.419 0.379 3.261-51.018 6.283-23.612 17.278-65.467 24.428-93.014 7.153-27.545 15.561-58.753 18.688-69.351s10.732-38.93 16.902-62.962c6.168-24.035 13.707-52.711 16.75-63.729s7.016-25.517 8.828-32.221c3.571-13.221 2.025-12.838 25.953-6.433zM616.117 62.159c17.378 3.025 34.191 6.888 37.363 8.587s7.854 3.088 10.404 3.088c9.389 0 63.469 29.467 78.291 42.662l15.295 13.615-4.283 12.643c-3.618 10.687-5.333 12.514-11.070 11.808-5.769-0.708-8.24 1.998-16.479 18.061l-9.692 18.896-15.997-15.519c-48.26-46.808-108.239-61.521-175.552-43.054-4.422 1.214-5.008-0.966-5.008-18.662 0-17.52-0.719-20.261-5.724-21.85-6.531-2.071-6.856-4.39-2.718-19.295 2.062-7.426 4.911-11.123 9.285-12.052 3.471-0.738 8.889-1.888 12.037-2.553 14.702-3.109 55.218-1.357 83.848 3.623zM619.557 172.951c8.657 2.374 19.308 5.018 23.669 5.88 4.361 0.859 10.55 4.953 13.754 9.099 45.763 59.213 48.231 69.051 28.165 112.23-16.453 35.41-16.091 33.12-6.772 42.848l7.302 7.623-6.856 15.429c-3.768 8.486-8.499 19.617-10.511 24.733-4.372 11.125-4.9 11.217-14.25 2.434-7.276-6.833-7.39-6.843-22.645-2.145l-15.33 4.719-10.577 25.76c-16.479 40.139-16.023 39.734-21.769 19.258l-4.936-17.594-9.227 7.037c-11.986 9.143-11.745 9.24-15.65-6.26l-3.348-13.297-9.621 9.327c-11.115 10.771-14.44 9.908-17.134-4.458-1.562-8.326-2.602-9.587-5.333-6.467-1.867 2.132-7.701 7.738-12.972 12.457l-9.577 8.582 1.754-22.894c0.964-12.593 2.54-27.187 3.5-32.434 2.731-14.894-17.877-35.12-32.436-31.835l-10.070 2.271 1.846-16.222c4.593-40.365 4.631-40.496 12.678-42.247 4.149-0.903 8.885-2.035 10.527-2.518 1.641-0.48 4.65-16.148 6.688-34.818 5.045-46.249 9.836-52.936 52.945-73.899l31.137-15.14 14.655 4.114c8.059 2.264 21.737 6.058 30.394 8.431zM909.327 172.736c12.512 2.218 12.289 1.177 5.302 24.575-2.985 10.005-6.049 21.408-6.809 25.342-0.759 3.936-3.592 14.883-6.294 24.329-2.702 9.442-5.99 21.679-7.305 27.187s-5.118 19.676-8.447 31.481c-3.327 11.806-11.927 44.003-19.106 71.549s-17.338 66.182-22.574 85.859c-5.236 19.676-12.93 48.649-17.097 64.388-9.069 34.267-6.423 31.276-23.26 26.282-12.268-3.642-13.833-4.994-13.365-11.567 0.741-10.356-34.136-36.383-91.395-68.209-25.444-14.143-25.442-14.138-12.436-22.175 62.844-38.842 89.082-157.096 50.613-228.119-9.923-18.32-11.138-17.36 22.637-17.937 58.836-1.011 123.278-15.322 126.967-28.199 1.891-6.599 4.031-8.964 7.261-8.024 2.516 0.735 9.406 2.192 15.308 3.237zM508.662 293.487c-4.59 5.902-9.277 12.33-10.412 14.285-1.633 2.807 5.359 15.847 16.965 31.641 0.344 0.467 9.29-0.748 19.883-2.7 30.328-5.588 31.36-12.1 5.643-35.561-23.632-21.558-21.647-21.083-32.080-7.664zM611.679 321.224c-23.338 3.96-22.19 3.348-24.515 13.075-1.479 6.189 0.69 9.106 15.69 21.107l17.401 13.928 16.753-8.008c13.862-6.625 16.516-9.033 15.379-13.951-0.756-3.272-2.384-11.1-3.621-17.397-2.65-13.507-5.339-14.14-37.087-8.752zM211.888 351.696c27.518 16.257 26.030 12.26 16.771 44.959l-4.293 15.164-14.905-17.897c-8.198-9.844-17.594-20.531-20.881-23.751-12.917-12.648-15.854-19.796-10.986-26.744 5.913-8.442 6.060-8.405 34.294 8.269zM548.685 366.236c-13.441 25.649-13.586 27.119-2.143 21.905 7.179-3.269 8.444-2.904 14.55 4.193l6.688 7.775 1.499-9.308c6.974-43.302 6.958-49.392-0.116-40.076-3.522 4.637-3.811 4.532-3.894-1.431-0.155-11.034-3.962-7.147-16.584 16.942zM432.9 412.756c2.873 2.709 2.976 6.641 0.478 18.291-3.66 17.060-2.613 16.459-16.417 9.437-35.005-17.811-94.029-24.953-114.363-13.844l-9.303 5.081v-8.49c0-4.668 1.453-9.387 3.228-10.485 9.981-6.168 129.831-6.163 136.377 0.008zM247.505 420.271c7.082 1.576 19.534 5.514 27.665 8.752l14.791 5.889-6.205 10.496c-27.734 46.926 34.653 155.299 144.022 250.181l15.671 13.597h-22.727c-22.204 0-22.966-0.236-33.212-10.241-6.252-6.105-14.964-11.202-21.585-12.628-6.105-1.315-18.828-3.944-28.272-5.84-15.3-3.072-18.809-5.192-32.203-19.442-16.222-17.263-16.385-18.268-6.168-38.513 7.334-14.537 7.381-14.327-8.206-36.003-7.518-10.451-18.092-26.408-23.501-35.456-5.409-9.051-11.173-16.509-12.806-16.569-11.37-0.428-69.183-45.112-75.406-58.277-7.118-15.065-5.302-19.885 6.583-17.483 3.162 0.638 12.843 1.927 21.517 2.862l15.768 1.701-1.045-23.016c-1.19-26.146-1.423-25.959 25.318-20.012zM497.923 468.066c29.997 15.144 83.724 22.613 109.489 15.225 11.039-3.167 11.27-2.119 4.806 21.842-10.85 40.223-19.037 71.299-19.825 75.264-0.471 2.361-3.437 13.308-6.594 24.325-6.866 23.963-16.304 58.401-20.534 74.936-3.495 13.656-5.362 14.324-61.617 22.052l-28.619 3.931-26.573-21.369c-29.685-23.871-46.407-40.128-46.407-45.114 0-4.223 25.006-100.036 35.504-136.033 2.523-8.657 7.3-26.891 10.611-40.522l6.024-24.78 16.144 12.231c8.88 6.728 21.298 14.833 27.592 18.013zM678.11 483.061c71.496 38.849 94.123 56.224 91.489 70.249l-1.688 9.001 26.823 7.612c37.342 10.595 35.52 11.184 42.885-13.854l6.316-21.466h32.285c32.043 0 32.298 0.055 34.078 7.151 3.014 12.008 0.302 13.895-38.253 26.584-30.816 10.141-37.549 13.365-38.873 18.602-0.879 3.485-6.16 13.895-11.732 23.139-5.572 9.24-10.13 17.086-10.13 17.433 0 0.349 5.472 2.258 12.163 4.249 6.688 1.988 17.073 6.525 23.076 10.086l10.91 6.47-11.604 9.193c-11.23 8.894-12.977 9.306-53.843 12.725-42.103 3.522-42.32 3.577-69.298 17.438-14.883 7.651-32.915 15.999-40.067 18.557-12.937 4.622-13.014 4.727-14.73 20.566-2.303 21.261-9.573 27.027-39.771 31.555-5.38 0.804-32.741-5.874-44.983-10.978-10.664-4.449-25.022-4.944-36.872-1.271-4.563 1.413-17.506 4.083-28.763 5.932-18.909 3.106-22.067 4.71-41.465 21.041-20.445 17.213-21.524 17.722-41.066 19.315-25.765 2.104-25.705 2.132-33.335-16.277-3.621-8.734-7.909-15.035-9.75-14.329-4.829 1.854-70.144-3.608-79.006-6.604-5.69-1.925-12.381-0.822-26.807 4.414-39.442 14.318-57.952 18.008-72.281 14.41-17.916-4.495-17.701-6.958 2.277-26.014 9.56-9.119 16.998-16.9 16.527-17.291-0.471-0.388-6.279-4.086-12.909-8.214-6.628-4.127-14.933-11.401-18.451-16.161l-6.399-8.657-79.347 2.408-2.691-7.079c-3.842-10.101-3.329-15.29 1.505-15.29 2.308 0 8.426-1.801 13.597-4.002 17.577-7.491 32.267-12.665 45.732-16.11 11.328-2.899 13.726-4.74 15.256-11.712 0.998-4.55 6.22-14.673 11.604-22.499 11.997-17.443 12.197-15.655-2.376-21.395-20.991-8.269-33.479-14.364-33.556-16.378-0.313-8.258 36.56-23.95 69.031-29.372 15.012-2.51 48.029 41.948 38.347 51.629-18.1 18.1-22.792 54.74-9.577 74.749 10.448 15.821 33.747 28.309 70.396 37.741 154.375 39.721 435.599-51.382 435.599-141.113 0-37.864-53.113-70.396-114.935-70.396-10.769 0-19.562-0.966-19.547-2.145 0.050-3.348 8.133-29.194 10.154-32.466 2.571-4.162 17.070-0.407 34.060 8.826zM413.263 477.713c17.013 5.932 3.178 55.996-17.084 61.812-7.003 2.012-20.461 7.429-29.906 12.042-28.627 13.978-30.255 13.919-39.488-1.453-4.403-7.331-7.623-13.542-7.155-13.799 3.581-1.975 16.987-7.903 25.747-11.39 8.198-3.264 10.498-5.711 10.206-10.86-1.431-25.3-0.428-27.251 17.131-33.372 19.295-6.728 27.971-7.363 40.549-2.98zM641.9 540.698c9.844 2.369 17.443 7.118 28.456 17.79 17.084 16.551 17.57 18.67 8.282 36.034l-6.741 12.604 11.023 14.539c13.759 18.147 13.857 17.309-3.062 25.885l-14.111 7.147-5.501-9.248c-3.025-5.086-12.838-21.697-21.802-36.914s-18.076-29.142-20.248-30.945c-3.794-3.145-2.369-12.262 5.714-36.547 1.449-4.353 1.344-4.351 17.989-0.346zM782.387 723.493c8.497 6.331 20.334 26.689 20.334 34.976 0 2.865-29.696 1.306-44.361-2.329-10.942-2.713-7.793 50.734 3.692 62.684 11.62 12.089 40.632 48.651 40.653 51.233 0.136 17.465-17.493 12.643-62.108-16.992-17.265-11.467-17.822-11.62-28.541-7.796-6.016 2.145-17.052 3.954-24.528 4.026-15.621 0.145-15.416-0.467-7.909 23.48 8.444 26.941 8.022 29.22-4.971 26.784-16.645-3.119-24.145-8.902-50.802-39.177-13.625-15.474-26.516-28.133-28.648-28.133-2.13 0-20.763-8.453-41.404-18.785l-37.531-18.785-13.276 8.794c-8.92 5.908-15.217 8.211-19.187 7.016-6.426-1.933-11.997-6.211-10.012-7.686 0.682-0.507 8.697-7.169 17.811-14.802 25.699-21.529 36.738-22.246 79.080-5.131 77.612 31.368 127.032 15.85 127.44-40.021l0.142-19.282 48.651-24.399 12.935 8.587c7.114 4.721 17.257 11.804 22.54 15.74zM389.699 797.188l10.976 16.459h24.297c23.32 0 24.945 0.43 40.335 10.732 19.098 12.78 21.949 13.001 40.115 3.114 17.197-9.358 18.218-8.407 18.429 17.173 0.092 11.273 1.221 33.374 2.507 49.114 2.696 32.994 1.865 34.598-22.094 42.631-44.080 14.781-148.523-13.854-179.69-49.263-15.127-17.186-14.436-21.364 8.72-52.779 10.982-14.896 22.527-33.059 25.657-40.359 8.28-19.315 16.299-18.486 30.748 3.18zM847.171 798.742c-1.227 2.823-1.426 5.937-0.443 6.917 2.906 2.906 5.249-1.174 3.91-6.814-1.184-4.999-1.339-5.005-3.467-0.103z"></path>
</svg>
