<!-- Generated by IcoMoon.io -->
<svg version="1.1" xmlns="http://www.w3.org/2000/svg" width="1024" height="1024" viewBox="0 0 1024 1024">
<title></title>
<g id="icomoon-ignore">
</g>
<path fill="#5b150f" d="M539.148 40.482c1.703-1.703 5.652-0.156 5.652 2.213 0 1.7-0.91 2.463-3.242 2.736-3.196 0.366-4.681-2.681-2.409-4.95zM516.25 53.022c1.659-2.561 6.021-1.479 8.953 2.225l2.823 3.573-2.504 2.504c-1.55 1.548-4.638 2.75-8.094 3.148-4.953 0.577-5.713 1.050-6.671 4.188-1.083 3.558-17.891 15.934-21.641 15.934-0.888 0-2.073 1.192-2.638 2.652-1.327 3.438-5.794 7.459-9.536 8.583-1.623 0.489-4.427 2.119-6.228 3.627-3.877 3.242-6.478 2.642-6.982-1.612-0.356-2.992-0.583-3.069-9.213-3.144l-8.851-0.077-0.225-5.015c-0.265-5.949-0.090-5.986 6.598-1.453 5.728 3.88 8.949 4.446 9.986 1.746 0.971-2.533 5.775-2.185 8.152 0.59 1.79 2.094 4.402 3.203 4.402 1.869 0-1.529-4.728-11.174-5.804-11.84-4.967-3.069 3.384-10.417 12.192-10.728 3.532-0.123 8.561-1.373 11.953-2.971 3.217-1.518 6.721-2.673 7.779-2.565 4.794 0.485 14.597-4.232 14.597-7.021 0-1.507 0.431-3.402 0.953-4.213zM715.255 58.518c-8.623 5.417-13.597 12.119-10.018 13.492 1.242 0.479 1.642 2.423 1.475 7.206-0.239 6.84-1.152 7.725-5.017 4.855-1.261-0.935-3.489-1.409-4.95-1.054-1.548 0.381-2.656 0.106-2.656-0.66 0-2.453-4.642-1.311-9.996 2.46-5.794 4.083-6.148 4.717-3.771 6.692 1.156 0.956 2.098 0.917 3.558-0.152 3.836-2.808 13.645-1.123 14.528 2.496 0.931 3.8 2.771 5.181 4.738 3.55 1.554-1.29 3.927-0.435 3.927 1.421 0 0.609-1.065 1.109-2.362 1.109-1.573 0-2.359 0.786-2.359 2.362 0 2.54 2.294 3.134 4.311 1.112 3.142-3.138 9.848 2.171 9.848 7.794 0 1.852-2.996 2.365-4.032 0.692-0.827-1.34-6.586-0.225-6.586 1.275 0 0.638 0.746 2.833 1.659 4.88 4.271 9.576 5.525 15.457 6.59 30.862 0.627 9.086 1.909 19.71 2.852 23.604 2.517 10.424 6.21 29.125 8.265 41.894 4.040 25.079 5.453 33.289 8.844 51.339 9.332 49.724 10.332 52.668 14.749 43.411 2.069-4.344 2.105-4.359 4.050-1.917 1.123 1.406 3.971 2.765 6.648 3.167 2.577 0.388 6.21 1.837 8.080 3.221 4.992 3.692 5.953 1.746 3.888-7.873-0.96-4.482-2.783-12.978-4.048-18.887-1.265-5.905-2.859-11.782-3.54-13.061-0.685-1.279-1.2-3.902-1.144-5.833s-0.479-5.344-1.181-7.59c-1.667-5.315-4.684-20.782-6.094-31.223-1.862-13.793-6-38.655-6.59-39.611-0.304-0.496-1.073-5.326-1.703-10.739-0.634-5.413-1.667-12.492-2.298-15.739-3.148-16.207-8.532-41.249-9.054-42.090-0.323-0.525-1.077-3.956-1.673-7.623-1.148-7.054-3.725-11.065-7.105-11.065-1.123 0-2.913-1.329-3.975-2.953-1.45-2.21-2.963-2.95-6.036-2.95-4.294 0-5.8-2.638-2.279-3.989 1.004-0.384 1.667-1.638 1.475-2.783-0.75-4.453 6.449-2.598 9.090 2.344 4.544 8.507 7.127 4.996 4.119-5.605-1.105-3.894-2.394-10.199-2.869-14.007-0.725-5.808-4.486-17.322-5.634-17.245-0.185 0.015-2.761 1.548-5.725 3.409zM712.313 86.401c-1.261-0.953-2.823-1.735-3.471-1.735s-0.148 0.783 1.112 1.735c1.257 0.953 2.823 1.732 3.471 1.732s0.148-0.779-1.112-1.732zM430.641 91.672c-1.79 2.865-3.011 2.956-5.811 0.421-3.634-3.29-23.416 5.844-23.416 10.811 0 2.050 3.423 4 6.54 3.725 2.642-0.235 2.779 4.177 0.225 7.261-1.232 1.489-1.548 1.232-2.069-1.673-0.594-3.315-0.815-3.417-6.525-3.050-4.786 0.308-6.333-0.087-8.126-2.065-4.13-4.565-8.917 1.159-8.924 10.67 0 2.996-0.548 8.304-1.21 11.801-0.667 3.496-1.507 9.015-1.869 12.261-0.362 3.242-2.163 10.148-4 15.34s-4.713 13.511-6.392 18.485c-1.677 4.975-4.144 11.597-5.482 14.717-1.979 4.609-2.144 5.905-0.888 6.917 0.848 0.685 2.119 2.267 2.823 3.525s2.992 2.729 5.094 3.271c2.554 0.663 4.279 2.087 5.213 4.304 0.768 1.827 3.094 4.746 5.174 6.492 4.246 3.576 4.080 5.75-0.735 9.557-3.894 3.079-5.488 2.986-5.032-0.296 0.279-2.004-0.221-2.652-2.040-2.652-1.323 0-3.236-1.268-4.25-2.815-1.015-1.544-3.475-3.138-5.467-3.536-3.119-0.623-3.525-1.116-2.913-3.554 2.239-8.92-7.967-1.311-11.507 8.58-1.21 3.384-2.996 6.946-3.963 7.913-2.869 2.869-12.126 15.753-12.126 16.88 0 0.573 1.065 1.319 2.365 1.659 3.671 0.96 1.671 4.746-2.123 4.021-3.927-0.75-12.659 7.232-11.551 10.565 0.398 1.2 5.34 5.102 10.982 8.674 13.163 8.33 32.875 27.85 41.723 41.317 16.416 24.989 19.59 32.369 26.492 61.556 6.811 28.821 6.076 28.271 13.982 10.442 2.442-5.507 8.652-16.286 13.801-23.956 9.123-13.586 10.488-16.536 8.3-17.891-3.427-2.115-23.691-39.086-23.739-43.307-0.036-3.329-4.232-14.803-7.359-20.116-1.783-3.036-3.246-6.988-3.246-8.786 0-1.8-1.275-7.547-2.837-12.771-3.648-12.203-5.8-30.622-4.225-36.115 0.638-2.232 1.163-5.54 1.163-7.348 0-7.213 15.897-51.795 20.507-57.502 0.783-0.975 2.173-3.261 3.083-5.080 2.119-4.228 11.521-14.884 20.96-23.756 8.261-7.761 8.63-8.572 4.394-9.634-6.177-1.55-6.938-7.644-1.239-9.884 2.242-0.881 4.326-2.663 4.674-4.004 0.827-3.152 0.268-3.58-2.627-2.033-3.033 1.623-6.086 0.471-6.086-2.294 0-5.565-7.323-10.876-9.717-7.047zM435.401 101.35c1.913 1.913 1.794 4.486-0.21 4.486-2.177 0-4.671-3.131-3.717-4.671 0.996-1.612 2.185-1.558 3.927 0.185zM664.275 102.731c-2.913 2.7-2.942 2.869-0.884 5.015 4.011 4.181 4.184 7.525 0.391 7.569l-3.326 0.040 2.656 2.217c1.46 1.217 2.656 3.058 2.656 4.090s0.529 1.877 1.181 1.877c0.648 0 1.177 0.529 1.177 1.177 0 2.304-3.017 1.054-8.126-3.365l-5.181-4.478 2.061-3.144c1.938-2.96 1.942-3.192 0.044-3.921-2.206-0.848-4.090 1.25-4.119 4.583-0.015 1.5-0.979 2.065-3.521 2.065-2.673 0-5.982 2.159-14.022 9.148-5.79 5.029-17.88 15.518-26.872 23.307s-19.010 16.818-22.268 20.061c-9.271 9.246-21.597 19.872-25.126 21.662-6.848 3.478-9.79 7.359-8.957 11.803 0.692 3.681 0.544 4-1.463 3.177-7.434-3.044-8.355-1.315-2.775 5.21 4.090 4.782 4.326 5.946 1.203 5.946-1.261 0-2.619 0.529-3.021 1.177-1.21 1.96-4.75 1.34-9.065-1.59l-4.083-2.771-3.163 2.521c-3.728 2.971-4 4.203-0.927 4.203 2.681 0 3.667 2.21 3.667 8.213 0 7.909-5.804 9.265-12.221 2.848-3.96-3.96-5.228-3.435-15.503 6.424l-7.768 7.456 9.855 11.771 6.184-0.771c4.021-0.504 6.467-0.319 6.988 0.525 1.703 2.754 6.453 1.167 12.336-4.123 6.659-5.988 7.63-8.738 3.076-8.738-2.359 0-2.95-0.59-2.95-2.953 0-3.467 2.837-3.953 6.054-1.040 4.453 4.029 20.731-8.25 19.174-14.459-1.196-4.775 2.55-7.863 8.467-6.975 4.706 0.703 5.094 0.492 14.326-7.873 5.221-4.728 13.678-12.177 18.797-16.553 20.71-17.706 24.916-21.405 31.137-27.372 3.569-3.427 8.615-7.765 11.209-9.645 10.199-7.377 20.257-16.453 24.195-21.833 2.271-3.105 4.808-5.674 5.634-5.71 0.829-0.033 2.011-1.391 2.627-3.015s1.798-2.956 2.627-2.967c1.848-0.018 11.536-8.615 11.536-10.236 0-1.329-5.123-3.909-7.765-3.909-0.964 0-2.054-0.794-2.427-1.761-0.45-1.173-1.59-1.533-3.417-1.077-2.21 0.554-3.112-0.021-4.63-2.956-2.257-4.365-1.935-4.319-5.677-0.852zM730.791 122.835c0.388 2.381 0.214 4.63-0.391 5.004-0.602 0.373-0.775 1.956-0.381 3.525 0.492 1.96 0.148 3.065-1.102 3.544-2.485 0.953-5.109-1.479-5.547-5.142-0.204-1.673-1.406-3.627-2.677-4.34-5.638-3.171-6.713-5.427-2.59-5.427 1.521 0 3.732-1.069 4.913-2.377 2.986-3.298 6.804-0.732 7.775 5.213zM673.793 119.053c2.355 2.355 1.677 4.684-1.239 4.271-1.706-0.242-2.79-1.327-3.033-3.033-0.417-2.917 1.917-3.594 4.271-1.239zM426.785 123.537c-0.573 0.923-1.25 0.992-2.036 0.206-0.648-0.652-0.794-1.804-0.323-2.569 0.569-0.923 1.246-0.992 2.036-0.204 0.648 0.648 0.794 1.8 0.323 2.565zM866.008 149.203c-2.017 3.417 7.392 46.564 12.105 55.506 2.381 4.521 4.862 15.695 6.086 27.402 0.71 6.815 2.369 16.376 3.684 21.243 3.96 14.666 4.373 16.565 6.83 31.275 1.3 7.79 2.362 16.887 2.362 20.213 0.004 4.725 0.521 6.409 2.359 7.674 2.327 1.598 2.311 1.713-1.177 8.569-4.417 8.674-4.417 8.601 0.644 16.239 8.322 12.553 17.22 20.368 20.068 17.626 0.616-0.594 2.446-1.257 4.065-1.475 2.388-0.323 4.061-2.533 8.851-11.699 6.844-13.094 12.67-22.485 17.355-27.977 4.069-4.771 4.13-6.934 0.356-12.057-1.623-2.2-2.953-4.703-2.953-5.561 0-0.862-1.246-3.548-2.771-5.967s-9.242-17.945-17.151-34.496c-7.905-16.553-14.982-31.158-15.728-32.456-0.742-1.298-1.927-3.421-2.634-4.721-0.706-1.298-3.311-5.488-5.786-9.315s-4.975-8.196-5.55-9.713c-0.577-1.515-4.159-7.946-7.963-14.286-3.8-6.344-10.054-17.239-13.891-24.216-6.667-12.115-7.974-13.801-9.159-11.803zM675.583 181.557c3.029-3.242 3.906-1.55 2.656 5.115-0.938 4.996-3.529 7.344-5.917 5.365-2.079-1.729-0.663-6.282 3.261-10.482zM384.888 187.855c0-0.975-0.529-1.768-1.177-1.768s-1.181 0.794-1.181 1.768c0 0.975 0.533 1.771 1.181 1.771s1.177-0.798 1.177-1.771zM576.089 194.369c1.5 2.804 0.602 4.859-1.732 3.963-3.061-1.173-3.565-6.348-0.616-6.348 0.59 0 1.644 1.073 2.348 2.384zM887.402 195.764c2.061 2.061 1.735 3.304-0.877 3.304-2.594 0-4.109-1.779-3.017-3.544 0.964-1.561 2.167-1.489 3.894 0.239zM671.079 196.706c2.761-4.467 5.365-1.029 4.688 6.196-0.377 4.058-0.732 8.707-0.786 10.326-0.112 3.467 3.073 21.195 4.877 27.137 2.232 7.351 1.573 11.438-2.623 16.232-7.699 8.801-18.547 25.847-18.547 29.144 0 0.869-0.931 2.696-2.069 4.061l-2.065 2.482-13.568-4.869c-17.793-6.38-17.405-5.949-14.376-15.957 1.605-5.3 2.717-13.34 3.246-23.412 0.917-17.514 0.794-17.272 13.065-26.035 3.986-2.848 10.804-9.438 15.148-14.648 4.671-5.601 8.797-9.474 10.090-9.474 1.206 0 2.517-0.533 2.921-1.181zM734.214 204.463c0 1.102-0.8 1.703-1.967 1.479-2.96-0.577-3.365-3.333-0.489-3.333 1.45 0 2.456 0.761 2.456 1.855zM527.689 240.788c0 0.225-0.627 2.21-1.394 4.409l-1.391 4-0.931-3.478c-0.631-2.352-0.464-3.779 0.508-4.394 1.511-0.96 3.21-1.242 3.21-0.536zM670.619 246.613c0.725-0.725 1.112-1.923 0.862-2.671-0.587-1.761-2.173-0.173-2.173 2.173 0 1.327 0.348 1.46 1.311 0.496zM377.106 250.32c4.061 6.927 3.946 7.355-2.242 8.282-7.84 1.173-8.003 0.75-4.602-12.036 0.8-3.004 3.873-1.323 6.844 3.754zM491.693 250.013c3.119-1.729 2.873-1.798 5.521 1.573 1.279 1.623 3.048 2.95 3.938 2.95 2.525 0 3.040 1.696 3.565 11.768l0.489 9.405-5.275 4.46c-2.906 2.453-7.521 5.323-10.261 6.377-3.909 1.5-5.188 2.706-5.938 5.605-1.232 4.75-1.058 4.779-16.22-2.504-14.978-7.199-15.163-7.598-6.3-13.521 3.681-2.463 11.515-9.051 17.405-14.641 5.894-5.59 11.778-10.753 13.076-11.471zM585.4 301.069c-0.279 0.279-7.138 0.79-15.242 1.131-10.232 0.431-17.26 1.394-22.995 3.152-4.544 1.394-11.43 3.017-15.303 3.612-13.934 2.131-31.333 15.772-38.567 30.242l-3.684 7.369 0.869 15.053c1.453 25.181 0.286 39.688-3.602 44.814-2.054 2.706-2.423-3.142-0.435-6.855 1.833-3.423-1.765-22.772-5.38-28.937-2.257-3.852-3.040-7.315-3.667-16.249-0.956-13.572-0.979-13.584-11.707-4.080-11.249 9.963-22.92 27.477-22.995 34.502-0.015 1.362-1.040 4.71-2.279 7.438-1.235 2.729-3.105 8.304-4.152 12.391-1.044 4.086-5.862 17.274-10.703 29.3-9.544 23.71-9.742 24.862-6.909 39.98 1.040 5.558 1.652 12.638 1.352 15.728-0.71 7.398 1.138 9.144 6.811 6.442 5.221-2.492 5.956-5.333 5.544-21.47-0.185-7.138-0.413-16.434-0.511-20.651-0.329-14.151 6.029-31.742 12.891-35.669 4.754-2.721 5.34-1.706 2.775 4.819-4.992 12.703-6.177 27.908-3.482 44.688 2.021 12.59 2.663 13.151 8.424 7.392 30.318-30.318 81.534-7.924 84.182 36.807 2.623 44.296-53.654 68.49-85.418 36.727-5.696-5.696-14.398-21.032-14.398-25.369 0-4.833-2.286-7.279-4.732-5.065-1.2 1.087-4.446 2.482-7.213 3.105-14.080 3.163-23.898 15.18-18.674 22.851 5.094 7.475 8.467 15.398 9.42 22.148 1.214 8.598 1.036 8.424 6.815 6.692 11.692-3.504 43.94 3.84 51.632 11.761 4.59 4.728 6.807 4.232 13.855-3.098 11.859-12.336 33.557-26.293 40.879-26.293 25.047 0 36.386 12.753 42.492 47.795 1.225 7.029 2.131 11.101 4.225 18.989 0.214 0.815 2.692 1.090 6.736 0.758 5.076-0.421 7.963 0.119 13.978 2.623 4.167 1.735 9.174 3.732 11.119 4.434 4.79 1.735 19.493 12.811 23.068 17.38l2.894 3.7 5.706-5.355c3.138-2.942 6.253-5.352 6.924-5.352 0.71 0 0.931-1.355 0.529-3.246-0.688-3.246 3.515-14.315 5.471-14.413 0.511-0.025 0.323 1.083-0.417 2.463-3.446 6.438 5.238 11.93 10.275 6.5 1.587-1.71 3.656-3.109 4.605-3.109 3.159 0-1.018-18.228-5.409-23.601-1.327-1.623-3.271-4.96-4.323-7.413l-1.913-4.46-3.054 2.844c-1.677 1.561-5.184 4.163-7.79 5.775s-5.38 3.706-6.167 4.652c-3.46 4.171-29.187 3.529-39.844-0.989-23.362-9.909-34.444-32.083-29.872-59.766l1.398-8.471 10.695-11.057c13.192-13.638 15.58-14.884 32.14-16.772l13.18-1.504 9.018 3.29c13.293 4.848 21.054 11.674 28.46 25.025 0.779 1.406 2.344 6.449 3.475 11.209 1.134 4.765 2.254 9.365 2.485 10.232 1.844 6.869 28.31-23.999 34.202-39.886 3.329-8.986 4.478-9.917 6.573-5.323 3.942 8.655-5.112 29.427-18.655 42.799-9.93 9.801-16.978 19.593-16.978 23.597 0 3.181 3.123 9.696 4.644 9.696 1.163 0 7.155-6.786 7.155-8.101 0-0.46 5.029-5.217 11.177-10.569 8.652-7.532 11.445-10.717 12.38-14.115 0.667-2.417 3.090-11.515 5.392-20.216s5.963-20.122 8.142-25.372c14.782-35.662 18.593-62.589 10.586-74.809l-2.015-3.073-1.881 2.823c-4.102 6.142-13.365 14.274-20.166 17.71-8.561 4.319-19.539 14.957-20.649 19.999-0.852 3.877-2.29 5.344-4.13 4.206-0.681-0.421 0.573-4.007 3.007-8.623 6.921-13.115 9.207-16.387 14.992-21.481 6.486-5.71 15.807-17.626 18.126-23.177 5.971-14.297-1.044-43.151-13.626-56.060-1.673-1.717-4.279-4.771-5.786-6.786-3.102-4.142-4.927-4.7-4.927-1.504 0 3.015-1.261 3.96-3.167 2.377-1.352-1.123-1.3-1.685 0.329-3.486 2.55-2.819 1.362-5.59-3.048-7.127-2.442-0.852-3.558-2.021-3.558-3.736 0-5.782-15.301-16.909-18.645-13.561-0.985 0.985-1.794 1.040-2.648 0.188-0.852-0.855-0.673-1.696 0.59-2.742 2.829-2.348 2.507-2.775-9.098-12.057-20.72-16.583-20.416-16.424-33.521-17.456-6.394-0.5-16.137-0.515-21.651-0.029-5.517 0.489-11.261 0.421-12.764-0.148-3.156-1.196-3.196-1.2-3.873-0.525zM914.611 307.869c-1.315 2.392-1.554 2.463-1.942 0.602-0.246-1.167 0.242-2.953 1.083-3.967 2.098-2.525 2.736-0.033 0.859 3.365zM909.308 314.134c0.373-0.975 0.229-1.771-0.319-1.771-0.55 0-1.663 0.798-2.471 1.771-1.196 1.438-1.134 1.768 0.323 1.768 0.982 0 2.094-0.798 2.467-1.768zM753.059 319.543c2.152-5.203 4.757-4.706 20.924 3.975 0.754 0.406 4.050 19.561 5.080 29.514 1.634 15.797 3.044 24.275 5.892 35.412 3.021 11.803 2.95 11.855-12.489 8.815-15.028-2.963-14.847-2.804-16.858-14.844-0.855-5.102-2.25-12.992-3.105-17.536-0.852-4.544-2.163-12.242-2.913-17.112s-1.859-10.771-2.467-13.119c-1.768-6.833-1.381-9.257 1.663-10.413 1.521-0.579 3.446-2.692 4.275-4.692zM181.746 333.854c-5.431 3.242-10.736 6.986-11.79 8.319-1.112 1.409-2.671 2.131-3.721 1.729-0.992-0.381-2.786 0.050-3.986 0.96-1.2 0.906-3.442 1.667-4.986 1.688-1.54 0.021-7.384 1.855-12.982 4.073-5.598 2.221-15.489 6.007-21.978 8.413-6.492 2.406-12.851 5.105-14.13 5.996s-4.167 1.619-6.417 1.619c-11.42 0-26.018 6.015-21.898 9.025 2.8 2.050 0.971 4.142-3.257 3.721-3.775-0.373-6.196 2.979-16.782 23.249-1.696 3.242-4.906 9.351-7.138 13.572-2.229 4.217-4.073 9.221-4.094 11.115-0.025 1.898-0.779 4.286-1.673 5.311-0.898 1.025-2.25 5.58-3.004 10.126-0.758 4.544-1.677 9.986-2.040 12.094-0.746 4.29 0.602 4.924 3.544 1.673 1.511-1.667 1.786-3.423 1.203-7.67-0.844-6.148 2.177-7.978 5.192-3.148 2.246 3.598 3.46 3.011 11.917-5.769 9.072-9.417 22.108-19.47 43.484-33.542 8.344-5.492 15.884-10.844 16.753-11.891 0.869-1.050 2.239-1.906 3.044-1.906s5.59-2.123 10.638-4.721c5.050-2.598 9.768-4.713 10.492-4.703 5.373 0.073 22.079-8.836 21.431-11.424-0.79-3.144 0.177-3.46 3.515-1.138 1.573 1.094 7.771 1.837 19.112 2.294 22.927 0.921 46.694 5.275 76.236 13.97 26.347 7.753 45.644 26.814 54.191 53.516 3.688 11.536 5.612 18.927 6.134 23.604 0.217 1.946 0.456 3.989 0.533 4.536 0.171 1.257 7.982-3.275 23.199-13.449 11.659-7.797 24.206-14.365 30.423-15.924 4.323-1.087 4.105-4.583-0.402-6.449-1.96-0.812-5.221-3.569-7.25-6.13-2.025-2.561-6.398-6.681-9.713-9.159s-9.859-7.88-14.54-12.011c-4.684-4.127-10.145-8.753-12.138-10.282-4.471-3.427-15.232-19.586-20.716-31.115-2.25-4.728-6.181-12.553-8.738-17.395s-4.996-10.851-5.421-13.359c-1.033-6.119-2.142-6.294-14.278-2.25-22.174 7.392-45.115 10.217-59.618 7.344-4.112-0.815-8.804-1.631-10.427-1.808-1.623-0.181-4.544-0.906-6.492-1.612-1.946-0.706-7.594-2.569-12.547-4.138l-9.011-2.855-9.873 5.894zM923.042 343.861c0 1.754-0.254 1.827-2.855 0.829-1.921-0.735-2.529-4.13-1.015-5.644 1-1 3.869 2.569 3.869 4.815zM175.311 351.52c2.036 2.909 0.681 5.688-2.771 5.688-1.098 0-3.134 1.062-4.525 2.359-4.203 3.917-5.388 3.286-6.677-3.54-0.616-3.257-0.508-3.692 0.511-2.065 2.171 3.471 7 2.627 8.431-1.475 1.467-4.21 2.609-4.427 5.032-0.967zM888.997 351.013c-0.594 1.134-1.475 3.923-1.956 6.196-0.786 3.721-4.898 12.638-13.663 29.608-3.953 7.659-12.076 15.949-25.275 25.8-5.844 4.359-11.336 8.79-12.207 9.848s-4.323 2.96-7.67 4.225c-3.348 1.265-9.58 4.602-13.851 7.42-11.963 7.892-31.308 17.268-42.292 20.489-12.597 3.7-11.511 1.319-13.688 30.031-0.319 4.2-1.956 13.134-3.642 19.851-1.681 6.721-2.742 12.536-2.355 12.924 0.721 0.721 9.576-5.086 14.862-9.75 15.826-13.949 33.075-24.271 51.335-30.713 5.196-1.829 10.703-4.29 12.239-5.46 1.573-1.196 3.902-1.873 5.311-1.548 1.384 0.323 7.294-0.377 13.134-1.548 11.692-2.344 12.982-3.746 10.028-10.873-1.152-2.779-0.985-4.217 1.018-8.738 3.583-8.101 4.667-6.732 3.992 5.040-0.721 12.695-2.565 11.605 21.224 12.572l19.695 0.798 0.714-2.844c0.391-1.565 0.431-7.855 0.083-13.978-0.344-6.123-0.663-11.93-0.703-12.901-0.044-0.975 0.431-4.427 1.054-7.674 4.398-22.92 4.144-30.216-0.91-26.271-1.627 1.268-1.706 1.225-0.548-0.283 0.75-0.971 1.548-3.083 1.771-4.688 0.229-1.644 1.656-3.544 3.261-4.34 3.431-1.703 3.909-2.504 7.203-12.015 3.663-10.586 0.844-16.72-7.677-16.72-2.402 0-3.467-0.898-4.775-4.029-3.159-7.565-13.59-14.485-15.717-10.427zM273.29 354.722c-0.869-1.406-5.236-1.359-5.236 0.054 0 0.612 0.482 1.409 1.073 1.775 1.525 0.942 4.946-0.562 4.163-1.829zM547.763 356.053c1.627 3.036 0.598 4.696-2.906 4.696-3.196 0-4.836-3.105-2.884-5.46 1.923-2.315 4.311-2 5.79 0.765zM282.836 360.799c0.953 1.54-1.536 4.671-3.717 4.671-1.656 0-2.261-3.688-0.837-5.115 1.188-1.188 3.7-0.942 4.554 0.446zM919.724 361.632c-0.279-1.45 0.359-2.065 2.138-2.065s2.413 0.616 2.134 2.065c-0.217 1.138-1.177 2.065-2.134 2.065s-1.917-0.927-2.138-2.065zM97.133 396.924c2.721 2.463 2.757 3.96 0.094 3.913-2.873-0.054-6.594-3.083-5.656-4.605 1.116-1.8 3.076-1.558 5.561 0.692zM879.377 422.174c0-1.859-3.369-2.275-4.767-0.59-1.105 1.329-1.011 1.837 0.446 2.394 1.992 0.765 4.323-0.21 4.323-1.804zM860.197 422.768c3.953 1.217 0.663 2.594-6.196 2.594-7.775 0-8.782-0.479-6.275-2.989 1.25-1.25 7.811-1.040 12.471 0.394zM262.291 447.8c-3.492 3.076-9.069 8-12.391 10.945-3.323 2.942-8.163 6.782-10.761 8.532-2.594 1.746-7.098 5.359-10.003 8.029s-6.757 5.615-8.561 6.55c-1.804 0.931-4.612 3.804-6.238 6.384-1.725 2.732-3.877 4.684-5.163 4.684-1.214 0-3.623 1.859-5.355 4.13-1.765 2.311-4.2 4.13-5.529 4.13-1.485 0-8.228 5.894-17.938 15.688-8.557 8.626-18.216 17.772-21.46 20.322-5.352 4.206-19.493 16.34-30.083 25.808-4.619 4.134-12.195 10.601-19.978 17.061-2.865 2.377-7.709 6.713-10.761 9.634s-8.311 7.938-11.688 11.151c-8.297 7.888-8.992 9.388-5.757 12.398 3.138 2.923 1.971 8.184-2.225 10.040-1.413 0.623-2.815 2.083-3.119 3.246-0.344 1.315-1.659 2.109-3.504 2.109-2.323 0-2.823 0.482-2.359 2.261 0.388 1.485-0.254 2.71-1.881 3.583-3.040 1.627-3.173 4.142-0.329 6.188 1.181 0.848 2.492 2.471 2.913 3.605 1.21 3.239 2.2 2.667 12.757-7.351 5.456-5.181 10.453-9.641 11.101-9.913 2.229-0.927 19.474-16.249 19.474-17.301 0-0.579-1.094-1.638-2.431-2.352-3.583-1.917-2.605-6.348 1.504-6.823 2.612-0.3 3.348 0.2 3.975 2.7 0.761 3.025 0.815 3.040 3.877 1.033 3.836-2.511 17.811-14.155 20.22-16.847 0.971-1.090 3.627-3.355 5.898-5.036s11.101-9.086 19.618-16.46c8.518-7.373 19.883-17.122 25.26-21.666 21.456-18.141 27.158-23.405 29.539-27.256 1.369-2.21 2.979-4.017 3.58-4.017 0.598 0 2.242-1.329 3.656-2.953 1.409-1.623 3.283-2.95 4.163-2.95 2.902 0 9.674-7.811 9.003-10.384-0.34-1.298 0.040-3.587 0.844-5.090l1.463-2.732 0.964 2.612c1.359 3.671 1.811 3.478 11.228-4.767 9.402-8.232 15.778-15.239 15.778-17.33 0-0.765 1.652-2.894 3.671-4.738l3.671-3.352-3.079-7.699c-1.696-4.236-3.079-8.54-3.079-9.565 0-3.369-4.029-1.927-10.486 3.757zM338.452 446.604c2.561 2.761 2.717 3.304 1.036 3.644-2.294 0.46-6.525-2.979-6.525-5.304 0-2.525 2.229-1.852 5.488 1.659zM841.592 447.786c-0.050 2.475-2.286 4.362-3.605 3.044-0.75-0.75-1.007-1.942-0.573-2.644 0.894-1.446 4.206-1.761 4.177-0.398zM810.927 450.441c-2.881 5.38-15.34 9.459-15.34 5.021 0-1.656 1.84-2.826 7.373-4.688 9.38-3.148 9.478-3.156 7.967-0.333zM787.322 465.292c0-1.029-0.84-1.869-1.865-1.869-1.029 0-1.659 0.631-1.402 1.402 0.729 2.188 3.267 2.55 3.267 0.467zM389.142 471.39c7.768-7.786 15.782 13.959 11.409 30.96-2.138 8.307-2.587 8.667-13.891 11.155-37.144 8.174-53.502 16.862-60.106 31.919-9.518 21.695-6.648 35.067 11.511 53.687 9.297 9.525 19.684 21.949 19.684 23.535 0 0.652-2.257 1.761-5.017 2.463-2.757 0.7-8.467 2.261-12.684 3.467-13.261 3.79-15.974 3.105-23.195-5.833-28.796-35.644-36.329-71.831-19.039-91.472 2.456-2.79 4.467-6.253 4.467-7.692 0-5.236 19.282-20.641 34.817-27.818 9.332-4.311 39.901-14.637 43.332-14.637 1.173 0 3.152-1.729 4.394-3.836s3.185-4.765 4.319-5.898zM481.642 485.751c6.236-1.225 6.199-1.225 13.084 0.804 30.202 8.909 22.366 53.237-9.29 52.553-31.912-0.692-35.219-47.194-3.794-53.357zM874.427 532.844c-0.848 1.185-4.463 3.525-8.036 5.199-14.717 6.898-22.535 10.351-23.452 10.351-0.536 0-3.311 1.583-6.167 3.517-2.859 1.935-6.59 3.529-8.297 3.54-1.703 0.011-4.892 0.761-7.080 1.663-6.098 2.511-46.839 5.115-70.954 4.532-6.634-0.16-9.655 2.533-5.634 5.017 1.283 0.798 9.471 17.58 9.471 19.42 0 0.644 0.775 2.917 1.725 5.047 0.946 2.134 3.619 10.115 5.942 17.742 4.865 15.999 4.75 15.941 14.217 7.492 24.854-22.17 55.676-29.966 83.74-21.184 7.142 2.235 13.778 4.576 14.753 5.199 0.971 0.623 2.565 1.438 3.54 1.811 3.232 1.239 6.438 2.894 11.188 5.779 2.583 1.569 6.681 3.188 9.105 3.598s6.359 2.294 8.742 4.188c5.044 4.007 6.884 4.362 6.047 1.159-0.652-2.492 1.131-3.615 5.728-3.615 3.946 0 3.681 3.286-0.391 4.833l-3.246 1.235 4.906 4.34c2.696 2.388 7.84 6.394 11.43 8.898 12.355 8.623 24.655 22.187 26.089 28.771 0.456 2.102 1.333 4.13 1.946 4.511 0.612 0.377 2.986 4.63 5.275 9.453 4.173 8.797 6.044 10.286 8.771 6.996 2.859-3.442 5.634-2.123 6.519 3.098 0.844 4.996-0.268 6.877-4.094 6.917-1.058 0.011-0.188 1.583 2.298 4.148 4.561 4.706 5.431 4.921 8.554 2.094 2.138-1.931 2.348-1.913 4.225 0.421 1.083 1.352 2.902 2.779 4.040 3.177 2.544 0.891 2.634 2.398 0.265 4.365-1.609 1.333-1.598 1.713 0.106 3.594 2.631 2.913 1.703 6.144-2.159 7.503-5.025 1.765-6.736-0.729-3.5-5.105 3.105-4.2 1.485-5.308-5.086-3.492-4.517 1.246-5.554 8.086-1.594 10.536 0.765 0.471 1.094 1.996 0.732 3.388-0.366 1.394 0.352 6.086 1.594 10.427 4.3 15.043 6.949 29.583 8.061 44.317 1.073 14.134 2.631 20.445 4.736 19.145 3.394-2.098 17.749-39.386 17.836-46.347 0.021-1.8 0.8-4.605 1.729-6.228s1.706-4.906 1.729-7.297c0.025-2.394 0.619-5.844 1.327-7.674 5.373-13.895 3.478-23.782-7.315-38.136-7.884-10.488-8.217-10.989-18.866-28.608-9.457-15.647-15.522-26.133-21.181-36.608-3.435-6.362-5.775-9.365-7.67-9.84-1.5-0.377-3.644-1.7-4.767-2.938-1.333-1.475-3.609-2.257-6.576-2.257-5.865 0-5.775-1.605 0.221-4.007 8.638-3.456 6.692-9.007-3.775-10.775-4.63-0.783-14.391-5.242-16.858-7.703-0.616-0.612-2.073-1.116-3.239-1.116s-4.115-1.79-6.55-3.978c-2.438-2.188-7.282-5.725-10.771-7.863l-6.34-3.884-2.196 2.844c-1.206 1.569-2.507 3.779-2.884 4.913-0.815 2.442-4.073 2.79-4.073 0.438 0-0.894 0.735-3.417 1.634-5.605 2.631-6.405 1.109-11.207-6.648-20.97-3.877-4.873-7.34-9.684-7.703-10.688-2.942-8.134-8.659-13.126-11.113-9.703zM604.327 534.787c8.986-4.684 24.506-3.504 28.043 2.131 0.518 0.827 2.45 2.46 4.286 3.63 18.368 11.692 4.45 44.784-18.862 44.853-28.043 0.079-38.115-37.775-13.467-50.614zM877.504 537.608c0.344 0.558 0.323 1.319-0.046 1.688-0.921 0.921-3.982-0.348-3.982-1.652 0-1.348 3.2-1.377 4.029-0.036zM367.185 552.036c3.573-0.565 11.257-0.953 17.080-0.859l10.586 0.167 2.671 4.721c7.294 12.891 3.246 21.535-11.105 23.714-46.836 7.101-48.336 6.63-47.321-14.855l0.359-7.583 4.986-1.438c2.742-0.794 7.521-1.754 10.619-2.138 3.102-0.384 8.557-1.159 12.126-1.729zM297.558 560.195c0-0.648-1.359-1.181-3.017-1.181-1.713 0-2.706 0.511-2.294 1.181 0.402 0.648 1.761 1.181 3.021 1.181s2.29-0.533 2.29-1.181zM871.581 563.253c0.898 2.333-0.073 4.021-2.304 4.021-0.938 0-1.703-0.971-1.703-2.163 0-3.823 2.765-5.105 4.007-1.859zM242.092 570.181c-37.061 7.417-64.675 22.351-76.418 41.325-1.616 2.612-4.152 6.076-5.638 7.699-1.482 1.619-3.246 4.808-3.917 7.080s-1.985 6.225-2.927 8.786c-3.771 10.268 0.268 28.3 8.355 37.311 2.757 3.073 5.015 6.098 5.015 6.717 0 3.402 25.285 17.551 34.223 19.155 2.921 0.525 9.826 1.761 15.343 2.75 11.927 2.138 26.3 2.344 25.568 0.369-0.271-0.732 0.898-2.819 2.598-4.642 2.746-2.95 3.065-4.173 2.873-11.101-0.286-10.275-1.159-11.015-13.67-11.543-5.573-0.235-11.246-1.025-12.612-1.757-4.865-2.605-12.376-1.058-12.803 2.634-0.394 3.431-2.34 4.188-4.7 1.829-2.077-2.077-1.746-3.254 1.239-4.402 2.573-0.992 2.579-1.050 0.294-1.884-1.298-0.475-3.765-2.5-5.482-4.496-2.725-3.173-3.369-3.431-5.065-2.021-2.642 2.188-5.294-0.156-3.127-2.765 0.971-1.173 1.083-2.45 0.34-3.888-3.656-7.083-4.115-17.88-0.985-23.22 3.515-6 14.605-17.274 16.989-17.274 0.888 0 6.228-2.446 11.865-5.431 11.803-6.261 16.333-7.677 37.39-11.707 8.438-1.612 16.007-3.181 16.818-3.482 1.771-0.66 1.967-6.738 0.271-8.434-0.66-0.663-2.242-4.848-3.517-9.301-3.423-11.974-6.098-12.757-28.322-8.307zM792.782 571.444c-0.884 2.311-5.46 2.246-5.46-0.077 0-0.996 1.196-2.257 2.656-2.808 2.844-1.069 3.906 0.018 2.804 2.884zM522.376 570.785c-1.298 0.55-6.076 4.808-10.619 9.459-10.891 11.151-27.278 23.616-31.050 23.616-0.696 0-5.677-2.069-11.072-4.594-13.449-6.3-19.191-8.083-30.615-9.518-19.557-2.453-20.833-1.931-17.678 7.238 6.855 19.924-0.112 58.172-11.376 62.454-9.957 3.782-18.934-0.304-22.687-10.336-3.134-8.38-3.696-8.757-11.83-7.957-19.641 1.938-24.158 3.692-31.325 12.145-7.333 8.652-7.025 6.746-3.996 24.916 0.703 4.221 1.729 12.184 2.275 17.703 0.55 5.517 1.605 13.486 2.352 17.703 0.742 4.221 1.492 9 1.671 10.623 0.794 7.351 5.794 12.409 10.938 11.061 3.206-0.837 6.282 2.435 6.282 6.684 0 6.623 8.453 7.369 20.655 1.819 26.956-12.261 26.716-12.18 28.858-9.601 1.127 1.359 0.855 2.521-1.34 5.753-3.594 5.286-34.629 37.39-36.152 37.39-3.836 0-4.894 31.090-1.246 36.69 1.018 1.565 2.229 6.213 2.692 10.332 1.144 10.207 16.901 50.93 19.706 50.93 3.423 0 4.644-57.506 1.323-62.172-1.333-1.873-2.786-5.515-3.221-8.086-0.438-2.577-1.033-5.554-1.323-6.615-0.692-2.558-5.808-3.456-8.413-1.482-4.692 3.565-9.040-0.123-6.261-5.315 0.685-1.279 1.246-3.423 1.246-4.765 0-3.171 0.923-3.079 3.627 0.356 3.206 4.080 12.112 4.927 17.428 1.663 3.036-1.862 5.877-2.409 12.297-2.369 6.544 0.040 9.040-0.456 11.528-2.298 12.032-8.898 29.587-12.271 41.857-8.050 11.648 4.007 15.593 8.015 24.358 24.731 2.862 5.46 4.355 7.134 6.359 7.134 1.442 0 6.804 1.054 11.917 2.34 5.115 1.29 10.978 2.352 13.032 2.362 2.938 0.015 4.536 1.025 7.478 4.738 4.738 5.986 6.431 6.076 5.478 0.294-1.644-9.971-3.427-35.484-2.688-38.434 1.909-7.609 4.609-4.873 14.409 14.609 3.634 7.221 8.511 15.235 10.844 17.818l4.236 4.688 10.119-0.496c20.572-1.011 18.782-0.229 33.492-14.692 7.265-7.148 17.836-17.178 23.489-22.289l10.275-9.294 0.050-10.905 0.050-10.901-5.217-6.8c-11.742-15.301-17.217-18.666-23.31-14.326-16.869 12.015-30.369-1.996-23.847-24.745 3.083-10.742 19.405-32.075 28.528-37.281 7.482-4.271 7.482-4.225 0.54-9.209-16.467-11.83-26.597-16.257-45.347-19.818-3.681-0.7-7.174-1.906-7.757-2.681-2.087-2.771-7.623-28.702-8.402-39.346-0.888-12.134-2.069-14.272-10.192-18.428-8.804-4.504-17.985-6.323-22.424-4.446zM884.684 573.177c1.177 1.298 1.923 2.388 1.659 2.423-9.007 1.203-15.232 1.033-15.232-0.413 0-4.142 10.268-5.667 13.572-2.011zM865.805 577.981c0-1.865-2.083-2.921-3.319-1.681-1.623 1.619-0.783 4.127 1.254 3.732 1.134-0.217 2.065-1.141 2.065-2.050zM230.287 582.064c0 1.644 0.798 4.894 1.771 7.228 2.359 5.644 2.232 7.488-0.521 7.488-2.652 0-4.2-1.956-4.2-5.311 0-1.688-0.671-2.265-2.359-2.017-1.3 0.192-3.159 0.456-4.13 0.59-3.421 0.475-2.877-5.344 0.768-8.265 4.677-3.742 8.67-3.612 8.67 0.286zM708.821 585.73c-14.474 9.586-23.637 24.81-18.564 30.847 1.134 1.352 5.517 6.75 9.736 11.992 8.721 10.84 11.123 12.025 17.166 8.459 2.315-1.366 5.576-2.485 7.238-2.485 4.859 0 0.771 5.004-5.315 6.511-7.532 1.865-7.967 2.96-3.782 9.557 7.623 12.011 9.746 24.235 6.344 36.496-1.073 3.869-2.048 8.363-2.163 9.986-0.46 6.532-1.909 9.17-5.421 9.873-2.659 0.533-3.446 1.337-3.446 3.525 0 3.942-2.713 6.011-5.75 4.384-1.837-0.982-4.184-0.605-10.547 1.688-4.5 1.623-10.242 2.953-12.761 2.953-5.475 0-32.238 4.254-33.275 5.29-0.398 0.398-0.214 1.45 0.413 2.333s3.486 4.975 6.351 9.090c12.736 18.274 11.663 17.797 30.191 13.453 19.659-4.609 43.103-14.713 51.401-22.155 13.351-11.978 21.724-36.082 18.764-54.039-3.048-18.503-11.311-39.419-17.061-43.188-1.638-1.073-2.946-3.061-2.946-4.482 0-3.423-3.134-7.703-6.609-9.021-2.221-0.844-2.833-1.942-2.833-5.076 0-2.688-1.188-5.496-3.63-8.569-3.159-3.975-3.54-5.203-2.909-9.413 1.569-10.449-2.392-13.442-10.594-8.011zM873.327 584.503c0.242 0.206 0.127 1.192-0.261 2.196-0.829 2.163-8.457 2.525-9.732 0.46-1.884-3.044 6.804-5.352 9.992-2.656zM766.080 588.447c0-3-3.105-2.946-4.728 0.087-0.996 1.859-0.888 2.525 0.489 3.058 2.435 0.931 4.238-0.41 4.238-3.144zM109.198 594.726c1.496 2.373 0.544 3.548-2.065 2.544-1.065-0.41-1.938-1.794-1.938-3.076 0-2.648 2.177-2.359 4.004 0.533zM895.822 596.708c1.402 0.888 1.431 1.391 0.148 2.931-1.931 2.329-5.242 2.394-7.113 0.141-2.808-3.384 2.659-5.797 6.963-3.073zM936.948 596.596c2.579 1.638 0.304 4.906-3.413 4.906-3.917 0-4.196-0.721-1.46-3.742 2.185-2.417 2.703-2.54 4.873-1.163zM61.463 621.668c2.131-1.398 5.963 0.46 5.963 2.888 0 2.221-2.456 2.21-5.38-0.018-1.931-1.479-2.021-1.923-0.583-2.869zM174.104 624.61c1.015 2.638 0.935 2.855-1.054 2.855-0.982 0-1.768-1.050-1.768-2.362 0-2.811 1.811-3.131 2.823-0.492zM946.052 626.889c0 3.304-3.456 2.938-3.931-0.417-0.3-2.138 0.094-2.667 1.771-2.344 1.229 0.239 2.159 1.427 2.159 2.761zM966.052 626.178c1.257 2.033-0.786 4.826-3.532 4.826-3.213 0-4.373-1.388-3.362-4.025 0.771-2.004 5.79-2.59 6.894-0.8zM733.737 628.824c0.794 1.283-2.409 4.54-4.467 4.54-0.525 0-0.953-1.327-0.953-2.95 0-3.148 3.771-4.257 5.421-1.59zM466.147 633.66c2.369 7.63 3.794 23.934 2.615 29.916-0.627 3.181-1.739 8.971-2.467 12.865-3.144 16.822-15.485 36.271-24.506 38.629-4.065 1.065-5.677-1.975-3.115-5.877 4.413-6.717 10.261-17.536 11.322-20.953 4.536-14.568 8.065-32.194 8.065-40.263 0-15.63 4.956-24.405 8.086-14.318zM182.865 634.25c-0.294 2.548-1.069 3.326-3.615 3.619-3.728 0.427-4.242-1.45-1.294-4.706 2.967-3.279 5.352-2.754 4.909 1.087zM432.079 637.2c-0.036 3.359-1.536 6.786-2.971 6.786-2.406 0-2.725-2.696-0.663-5.569 2.102-2.927 3.659-3.45 3.634-1.217zM825.307 640.773c-0.688 0.829-4.446 3.308-8.355 5.504-3.906 2.196-7.348 4.638-7.648 5.424-1.119 2.921 2.602 25.383 4.833 29.173 1.79 3.036 2.152 5.442 1.757 11.613-0.366 5.713 0.021 8.786 1.46 11.565 1.090 2.112 1.623 4.826 1.203 6.148-0.587 1.855-0.011 2.644 2.663 3.656l3.417 1.29-2.725 2.721c-3.2 3.2-3.29 4.467-0.996 13.967 0.95 3.938 3.63 17.778 5.956 30.76 4.394 24.51 5.888 30.093 8.036 30.093 0.833 0 0.783 0.492-0.141 1.417-2.115 2.115-1.7 6.982 0.935 10.978 1.286 1.946 2.054 4.427 1.71 5.517-0.344 1.087 0.152 3.844 1.105 6.123 0.953 2.275 1.446 5.232 1.098 6.561-0.431 1.659 0.058 2.673 1.569 3.232 4.238 1.569 5.29 5.115 1.515 5.115-2.152 0-2.352 0.475-1.623 3.836 0.884 4.073 2.311 5.558 5.369 5.586 1.036 0.011 2.844 1.083 4.017 2.381 2.515 2.775 5.025 2.946 8.192 0.55 5.134-3.884 7.488-0.779 2.431 3.2-3.706 2.917-3.728 4.271-0.087 5.184 6.565 1.648 9.42-6.228 5.986-16.511-0.884-2.648-2.185-9.065-2.884-14.257-0.812-6-2.152-10.634-3.677-12.713-1.319-1.798-2.112-3.728-1.765-4.29 0.344-0.562-0.427-1.298-1.717-1.634-3.004-0.786-3-3.421 0.015-6.148 2.829-2.561 2.989-5.065 0.54-8.557-1.062-1.521-1.985-5.909-2.221-10.59-1.171-23.039-8-67.325-11.351-73.584-0.569-1.058-1.594-5.586-2.286-10.065-0.688-4.475-2.283-12.648-3.54-18.166-3.242-14.207-6.167-28.264-6.811-32.748-0.587-4.073-3.569-5.232-5.978-2.329zM39.232 642.902c-1.55 0.623-4.623 2.713-6.826 4.648s-4.467 3.515-5.029 3.515c-0.562 0-1.631 1.46-2.369 3.246-4.826 11.641-12.869 19.493-20.339 19.855-10.576 0.511-1.819 9.746 12.648 13.344 5.156 1.283 10.561 3 24.739 7.855 5.192 1.783 11.663 3.478 14.376 3.775 2.79 0.304 5.819 1.515 6.967 2.786 1.119 1.235 2.956 2.246 4.083 2.246s4.203 0.964 6.833 2.142c4.45 1.992 5.409 2.021 13.844 0.388 6.946-1.344 9.88-1.45 12.547-0.442 4.109 1.55 6.844 0.786 6.859-1.917 0.029-6.213 12.207-8.015 17.616-2.605 2.485 2.482 7.949 4.398 9.142 3.206 1.798-1.798-2.34-7.851-5.373-7.865-1.706-0.008-6.228-1.602-10.054-3.54-3.823-1.942-7.63-3.525-8.457-3.525-0.829 0-6.199-1.798-11.93-3.989-20.895-8-32.967-12.311-38.394-13.724-9.5-2.475-11.83-9.13-4.394-12.557 1.203-0.554 4.942-3.659 8.319-6.905 7.13-6.863 6.446-7.405-6.073-4.794-9.388 1.956-11.018 1.489-12.275-3.517-0.779-3.102-1.992-3.406-6.456-1.623zM167.485 646.163c0.337 1.015-0.232 1.442-1.577 1.181-1.156-0.225-2.34-1.123-2.631-1.996-0.34-1.015 0.229-1.442 1.573-1.181 1.159 0.225 2.34 1.123 2.634 1.996zM176.594 650.475c0 2.713-6.167 3.029-7.794 0.398-1.45-2.348 0.062-3.507 4.069-3.119 2.815 0.275 3.725 0.938 3.725 2.721zM656.815 650.38c2.004-0.873 4.348-1.34 5.213-1.040s2.605 0.548 3.865 0.548c1.279 0 2.757 1.173 3.344 2.656 0.579 1.46 2.688 4.409 4.684 6.554 2 2.148 4.148 4.865 4.775 6.040 0.677 1.261 3.105 2.45 5.924 2.902 2.631 0.421 5.703 1.848 6.83 3.177 1.127 1.327 3.703 4.109 5.725 6.177 6.865 7.032 7.032 8.311 2.015 15.495-11.184 15.999-15.511 14.641-39.227-12.326-15.051-17.116-15.836-24.648-3.148-30.184zM978.284 663.754c-0.479 2.489-2.573 2.329-3.109-0.232-0.221-1.069 0.431-1.833 1.565-1.833 1.214 0 1.794 0.771 1.544 2.065zM563.093 666.333c0 3.833-2.3 8.634-7.163 14.934-11.203 14.522-22.079 39.698-23.13 53.549-1.492 19.651-9.619 14.192-9.765-6.561-0.079-11.253 1.913-17.868 10.032-33.289 8.986-17.068 30.025-37.133 30.025-28.633zM478.613 667.431c-0.862-1.394-1.217-1.308-3.369 0.844-2.634 2.634-0.964 4.674 1.786 2.185 1.221-1.105 1.931-2.467 1.583-3.029zM197.807 672.354c-0.362 0.587 0.138 2.609 1.112 4.492 1.667 3.217 1.456 4.902-0.605 4.902-0.492 0-1.644-1.5-2.561-3.333-1.779-3.565-0.7-9.232 1.5-7.869 0.667 0.41 0.917 1.225 0.554 1.808zM172.463 672.898c0 0.985-1.050 1.771-2.362 1.771-2.352 0-3.069-1.257-1.573-2.754 1.435-1.438 3.934-0.812 3.934 0.982zM311.467 674.137c2.754-2.754 9.902-0.442 11.688 3.779 5.232 12.362 4.782 23.937-0.931 24.097-1.558 0.044-13.057 0.84-25.558 1.775-12.499 0.931-23.122 1.467-23.604 1.192s-4.33-0.069-8.547 0.46c-8.486 1.065-15.887-0.265-16.956-3.050-0.898-2.344 0.319-5.297 2.185-5.297 2.177 0 4.561-3.254 5.956-8.134 0.671-2.34 1.823-4.257 2.558-4.257s1.735-0.398 2.225-0.888c0.485-0.485-0.232-0.884-1.594-0.884-2.623 0-4.819-4.242-3.048-5.892 0.55-0.511 13.148-1.229 27.992-1.594 14.844-0.362 27.278-0.953 27.633-1.308zM364.302 683.036c-0.438-0.706-1.261-1.286-1.833-1.286-1.827 0-2.677 2.517-1.315 3.88 1.627 1.627 4.362-0.627 3.148-2.594zM61.528 684.702c-1.894-2.283-4.036-2.25-5.978 0.090-1.855 2.235 0.648 4.511 3.615 3.279 0.975-0.406 2.569-0.648 3.54-0.54 7.257 0.794 7.674 0.692 8.050-1.946 0.431-3.048-1.177-3.475-3.329-0.884-0.808 0.971-2.134 1.768-2.95 1.768s-2.142-0.798-2.95-1.768zM735.994 685.299c1.177 1.3 1.862 2.644 1.521 2.989-1.167 1.163-10.38-0.931-10.38-2.362 0-3.717 5.696-4.119 8.859-0.627zM218.201 687.387c0.492 1.471-5.242 3.388-6.467 2.163-0.923-0.921 3.388-4.3 4.909-3.852 0.609 0.181 1.311 0.942 1.558 1.688zM141.777 704.763c0-2.594 2.96-2.167 8.286 1.196 2.815 1.779 4.7 3.873 4.7 5.232 0 2.659 4.365 4.431 6.253 2.544 1.855-1.855 6.184-1.602 7.898 0.46 0.917 1.105 2.492 1.5 4.25 1.058 4.004-1.004 18.891 3.786 20.966 6.746 1.308 1.869 3.315 2.558 8.515 2.927 8.797 0.619 12.612 2.989 11.561 7.171-0.423 1.688-0.296 2.852 0.283 2.583 0.577-0.268 2.485-1.206 4.236-2.087 2.746-1.381 3.75-1.333 7.261 0.333 2.239 1.062 5.586 1.95 7.434 1.971 1.848 0.018 4.394 0.815 5.652 1.768 1.261 0.953 3.667 1.735 5.344 1.735s4.102 0.681 5.38 1.518c2.721 1.771 13.028 5.769 20.618 7.992 2.923 0.859 6.359 2.254 7.642 3.105 1.279 0.848 3.576 1.544 5.098 1.544 1.525 0 3.569 0.798 4.544 1.771s3.373 1.771 5.336 1.771c1.96 0 4.913 1.062 6.565 2.359 1.906 1.5 4.786 2.362 7.902 2.362 2.696 0 6.986 1.062 9.532 2.359s5.326 2.359 6.174 2.359c1.746 0 2.754 2.232 5.612 12.416 4.413 15.72-2.96 18.554-21.818 8.384-1.623-0.873-4.775-1.935-7.003-2.355-2.229-0.423-4.95-1.579-6.047-2.573-1.094-0.992-4.583-2.254-7.746-2.804-3.167-0.55-9.094-2.359-13.174-4.011-4.076-1.656-10.209-3.823-13.626-4.815-3.413-0.992-7.471-3.152-9.018-4.794-2.257-2.406-3.927-2.989-8.561-2.989-3.406 0-7.54-0.931-10.119-2.286-2.402-1.257-8.615-3.438-13.807-4.848s-10.615-3.304-12.053-4.206c-1.438-0.902-3.823-1.642-5.297-1.642-3.642 0-12.732-3.833-12.739-5.369 0-0.681 1.989-1.938 4.423-2.8 2.431-0.859 5.355-2.377 6.492-3.373 1.71-1.492 2.623-1.561 5.21-0.384 5.344 2.438 7.279-0.848 2.946-5l-3.384-3.242-2.829 2.986c-2.315 2.442-3.95 2.986-9 3.004-5.265 0.018-6.449 0.453-8.101 2.971-2.421 3.696-7.5 3.921-10.623 0.467-3.612-3.992-8.271-5.826-16.739-6.586-4.888-0.438-9.159-1.573-11.126-2.946-1.757-1.229-4.754-2.779-6.659-3.442-3.677-1.283-3.090-8.148 0.7-8.148 0.848 0 2.044-1.327 2.659-2.95 0.641-1.685 2.061-2.95 3.315-2.95 1.206 0 2.544-0.352 2.971-0.779 1.21-1.21-1.605-3.942-4.069-3.942-1.217 0-2.217-0.798-2.217-1.771zM134.696 708.767c0-1.348 3.2-1.377 4.029-0.036 0.344 0.558 0.327 1.319-0.046 1.688-0.921 0.921-3.982-0.348-3.982-1.652zM153.58 721.874c0-0.648-1.094-1.177-2.431-1.177s-2.102 0.529-1.7 1.177c0.398 0.648 1.492 1.181 2.427 1.181 0.938 0 1.703-0.533 1.703-1.181zM407.261 725.972c-1.203 1.206-2.246 1.373-3.489 0.558-1.529-1-1.456-1.398 0.529-2.909 2.963-2.265 5.536-0.221 2.96 2.352zM744.312 745.519c-4.507 3.144-9.363 6.015-10.786 6.369-6.333 1.59-4.921 5.102 7.155 17.786 4.326 4.544 9.554 10.547 11.615 13.34 2.065 2.798 5.956 7.873 8.648 11.282 3.652 4.623 4.898 7.265 4.898 10.373 0 3.989 3.765 13.105 5.978 14.47 0.579 0.359 0.946 4.511 0.819 9.224-0.131 4.717 0.131 9.638 0.573 10.938 0.855 2.492-0.156 6.725-1.573 6.576-2.631-0.271-3.225 0.268-4.123 3.75-0.721 2.798-1.761 3.946-3.836 4.246-1.569 0.229-3.587 1.456-4.478 2.736-0.894 1.279-2.369 2.040-3.275 1.692-2.261-0.869-5.188 0.398-5.188 2.246 0 1.381-2.652 3.050-13.83 8.699-4.196 2.119-5.123 4.869-1.644 4.869 1.225 0 4.652 2.388 7.615 5.311 2.96 2.921 6.225 5.308 7.25 5.308 1.021 0 2.167 0.798 2.54 1.771 1.808 4.713 3.786 1.642 3.115-4.84-0.623-6.054-0.492-6.573 1.561-6.148 1.492 0.308 2.148 1.327 1.967 3.040-0.366 3.417 3.565 5.663 5.605 3.203 1.942-2.34 8.242-2.323 8.242 0.025 0 0.975-0.533 1.771-1.181 1.771-2.152 0-1.221 2.188 1.265 2.975 1.579 0.504 3.283 0.021 4.811-1.362 1.3-1.177 4.025-2.688 6.050-3.352 5.073-1.667 8.761-7.892 6.196-10.457-2.188-2.188-0.492-3.642 2.963-2.544 10.344 3.283 17.028-38.042 9.547-59.024-0.692-1.946-1.548-4.978-1.894-6.736s-1.956-4.623-3.576-6.365c-1.616-1.746-2.938-4.184-2.938-5.417s-1.337-3.58-2.975-5.213c-1.634-1.634-2.677-3.453-2.315-4.040 0.783-1.265-10.152-17.453-15.387-22.778-2.021-2.054-6.519-7.323-9.996-11.703-7.619-9.598-8.446-9.68-19.42-2.025zM439.669 743.834c2.048 0.786 2.561 5.797 0.714 6.942-1.823 1.123-5.927-1.619-5.927-3.96 0-3.463 1.59-4.373 5.213-2.982zM639.192 791.072c-15.866 10.496-17.188 14.568-7.482 23.028 3.989 3.475 10.761 9.815 15.047 14.086 4.29 4.275 10.395 9.586 13.568 11.803s8.75 6.717 12.391 10.003c7.573 6.826 30.125 21.999 33.017 22.21 1.062 0.079 3.254 1.337 4.869 2.8 6.394 5.775 13.63 6.286 9.652 0.681-3.131-4.409-2.265-10.659 1.729-12.478 5.377-2.45 6.355-9.978 1.827-14.028-4.45-3.975-7.297-4.362-7.297-0.989 0 3.040-2.427 3.975-7.742 2.979-3.192-0.598-4.098-1.3-3.826-2.953 0.196-1.192-0.663-3.3-1.917-4.684-1.688-1.869-1.931-2.859-0.938-3.848 1.696-1.696-0.258-5.692-2.783-5.692-0.982 0-2.979-1.196-4.438-2.656s-9.536-8.459-17.945-15.553c-8.405-7.094-18.732-16.257-22.941-20.358-8.775-8.55-8.544-8.482-14.789-4.352zM787.913 792.782c0 2.2-0.54 2.765-2.359 2.46-3.892-0.648-4.819-2.381-2.298-4.282 3.044-2.298 4.656-1.667 4.656 1.823zM794.206 804.054c0.783-4.058-1.798-4.674-3.163-0.758-1.134 3.257-1.044 3.663 0.725 3.323 1.112-0.214 2.21-1.369 2.438-2.565zM583.157 803.071c0 2.188-2.109 4.956-3.779 4.956-1.456 0-1.116-4.076 0.475-5.667 2.021-2.021 3.304-1.75 3.304 0.71zM786.453 810.684c0.308 0.812 0.083 2.761-0.5 4.33-1.427 3.84-3.942 1.427-2.888-2.767 0.812-3.236 2.46-3.996 3.388-1.561zM795.586 819.865c0 2.381-2.975 4.467-4.373 3.069-0.634-0.634 2.869-5.463 3.963-5.463 0.225 0 0.41 1.077 0.41 2.394zM509.279 825.506l-1.888-3.648 5.38 0.605c4.586 0.518 6.684 1.775 14.278 8.572 11.532 10.326 11.515 10.859-0.837 22.778-17.703 17.086-29.829 25.793-49.861 35.807-6.492 3.246-12.307 6.394-12.924 7s-2.073 1.102-3.236 1.102c-2.877 0 2.511-8.768 10.782-17.543 3.283-3.482 5.978-7.199 5.996-8.261 0.062-4.112 15.974-21.601 22.579-24.822 10.336-5.040 14.040-13.257 9.728-21.589zM860.197 824.647c0.163 0.921-0.214 2.463-0.837 3.435-1.642 2.561-4.050-0.217-3.015-3.478 0.866-2.732 3.369-2.703 3.852 0.044zM785.909 829.506c2.011 2.011 1.761 3.036-0.946 3.894-1.757 0.558-2.362 1.786-2.362 4.8 0 4.2-1.181 5.123-3.298 2.573-0.862-1.040-0.742-2.355 0.402-4.427 0.898-1.619 1.652-4.142 1.673-5.601 0.046-2.884 2.271-3.492 4.529-1.239zM786.803 845.165c2.192 1.659 2.152 1.735-0.956 1.771-2.112 0.021-3.246-0.579-3.246-1.735 0-2.232 1.283-2.242 4.203-0.036zM776.725 848.769c0.823 0.992 1.177 2.119 0.786 2.507-1.206 1.21-4.348-0.594-4.348-2.496 0-2.311 1.648-2.315 3.561-0.011zM707.585 859.588c1 2.609-0.018 3.532-4.011 3.648-3.131 0.087-5.942-2.229-5.942-4.892 0-2.34 9.011-1.214 9.953 1.242zM738.642 858.868c2.521-1.467 2.098-1.413 4.33-0.558 2.754 1.058 2.267 4.007-0.66 4.007-1.388 0-3.232 0.927-4.094 2.065-1.427 1.881-1.569 1.779-1.605-1.123-0.021-1.823 0.848-3.703 2.029-4.392zM580.215 859.939c-0.417 0.673-3.511 3.004-6.873 5.177-5.833 3.771-12.391 9.832-11.336 10.471 5.392 3.254 18.047 7.905 21.739 7.988 1.3 0.029 4.486 1.362 7.083 2.963 2.594 1.598 6.105 2.909 7.8 2.913 1.692 0.004 6.206 1.594 10.032 3.54 3.823 1.942 10.402 4.384 14.622 5.427 4.217 1.044 9.326 2.906 11.347 4.138 2.025 1.235 5.279 2.242 7.228 2.242 3.798 0 13.362 3.007 14.42 4.529 0.577 0.833 6.438 2.869 21.032 7.315 5.561 1.696 12.551-0.413 14.011-4.221 0.996-2.594-0.388-3.511-2.561-1.703-4.102 3.402-4.605-0.804-0.729-6.076 4.544-6.177 4.63-7.869 0.453-8.728-1.783-0.366-5.898-1.765-9.144-3.109-3.246-1.348-8.557-2.862-11.803-3.369-9.902-1.548-12.862-2.623-15.116-5.488-1.192-1.515-3.206-2.754-4.482-2.754-1.271 0-4.931-1.327-8.134-2.95s-6.892-2.95-8.196-2.95c-1.304 0-4.109-1.062-6.236-2.359-2.123-1.294-5.025-2.355-6.449-2.359-1.421-0.004-2.884-0.489-3.25-1.083-0.366-0.59-2.917-1.456-5.671-1.921-2.75-0.467-7.659-2.311-10.909-4.105-6.336-3.492-17.601-5.601-18.88-3.532zM794.926 859.849c-0.956-1.554-2.388-1.323-4.021 0.644-1.605 1.935-0.706 4.181 1.673 4.181 1.786 0 3.352-3.206 2.348-4.826zM868.906 866.262c2.377-2.865 4.746 2.188 4.336 9.25-0.344 5.905-0.54 6.217-5.319 8.565-3.529 1.729-4.978 3.177-5.017 5.017-0.069 3.271-1.757 4.34-4.517 2.862-1.279-0.685-2.84-0.729-3.848-0.109-3.344 2.069-6.181-6.746-3.015-9.376 1.323-1.094 2.181-0.631 4.275 2.308 3.025 4.246 6.482 3.098 3.767-1.25-1.873-3-0.206-5.819 4.873-8.232 2.837-1.352 3.648-2.442 3.413-4.583-0.171-1.548 0.3-3.55 1.050-4.453zM848.138 874.056c1.069-1.729 3.423-0.735 3.884 1.634 0.221 1.138-0.369 1.967-1.406 1.967-2.192 0-3.515-1.923-2.479-3.602zM864.972 892.725c-1.717 1.040-3.681 3.119-4.362 4.623-0.833 1.829-2.254 2.732-4.294 2.732-2.956 0-3.025 0.171-2.298 5.605 1.2 8.978 1.579 9.554 4.098 6.221 2.138-2.837 2.257-2.855 4.576-0.761 2.975 2.692 2.286 12.924-1.127 16.691-2.456 2.717-2.355 10.771 0.25 19.456 1.475 4.927 1.431 5.094-1.975 7.819-4.254 3.406-6.431 3.558-6.431 0.453 0-4.544-9.018-9.152-13.207-6.75-4.576 2.627-5.047 2.561-6.642-0.938-1.642-3.605-2.634-3.638-10.518-0.373-9.209 3.819-8.427 8.486 1.442 8.586 4.45 0.046 4.754 0.275 5.098 3.826 0.489 5.061 4.025 6.199 8.644 2.783 3.902-2.884 5.742-2.359 5.742 1.644 0 1.515 0.852 3.083 1.898 3.482 1.467 0.565 1.725 1.667 1.127 4.848-0.931 4.956 5.13 6.362 7.594 1.757 2.065-3.855 3.413-2.725 4.246 3.569 1.159 8.746 6.057 8.192 8.811-0.996 0.848-2.823 2.577-5.144 4.775-6.405 4.865-2.794 5.424-5.267 2.421-10.753-3.521-6.427 0.8-9.044 8.072-4.884 4.213 2.409 4.721 2.206 4.721-1.877 0-2.304-0.979-4.504-2.656-5.978-1.84-1.612-2.203-2.517-1.181-2.942 4.076-1.692 0.467-12.913-4.507-14.007-6.826-1.5-7.478-7.333-0.985-8.855 3.109-0.729 4.536-5.242 2.348-7.431-0.703-0.703-1.279-3.232-1.279-5.619 0-4.558-1.388-6.434-5.311-7.192-1.865-0.362-2.286-1.239-2-4.181 0.482-4.982-2.681-6.83-7.094-4.152zM675.756 897.841c4.304 3.779 5.442 6.959 2.489 6.959-0.927 0-2.729-1.329-4.007-2.95-1.275-1.623-2.844-2.953-3.482-2.953-1.642 0-3.946-3.011-3.011-3.942 1.554-1.558 3.927-0.703 8.011 2.884zM721.69 909.225c2.533-2.521 3.55-2.579 5.434-0.308 1.742 2.102-0.518 3.394-4.844 2.765-2.544-0.373-2.573-0.485-0.59-2.456zM713.563 916.601c0.402-0.648 1.496-1.177 2.431-1.177s1.7 0.529 1.7 1.177c0 0.648-1.094 1.181-2.431 1.181-1.333 0-2.102-0.533-1.7-1.181zM743.656 920.141c0 4.369-2.627 4.713-4.504 0.59-0.79-1.729-2.333-2.95-3.732-2.95-2.779 0-3.25 3.283-0.616 4.294 1.196 0.46 1.771 2.333 1.771 5.765 0 5.877 1.819 7.192 5.421 3.921 3.076-2.79 6.655-1.735 6.148 1.808-0.25 1.742-1.344 2.619-3.602 2.881-1.786 0.206-3.246 0.765-3.246 1.239 0 2.115 2.942 3.456 6.373 2.898 3.736-0.605 10.065 2.156 15.459 6.746 1.298 1.109 4.7 2.304 7.557 2.667 2.859 0.359 6.717 1.779 8.58 3.156 1.862 1.373 3.978 2.134 4.7 1.688s4.086 0.688 7.475 2.521c6.050 3.275 6.238 3.298 10.347 1.348 2.3-1.090 4.988-1.985 5.971-1.985 0.985 0 2.015-0.663 2.286-1.475 0.685-2.033-0.348-5.605-1.616-5.605-2.906 0-0.456-3.63 3.677-5.453 6.388-2.819 5.949-4.282-2.065-6.884-3.732-1.214-8.036-2.963-9.561-3.892-1.529-0.927-3.862-1.402-5.192-1.058-1.327 0.348-4.326-0.381-6.663-1.616-7.199-3.804-12.203-5.884-14.17-5.884-1.036 0-4.677-1.062-8.094-2.359-3.413-1.298-7.732-2.362-9.59-2.362-1.862 0-5.294-0.794-7.623-1.768-5.547-2.319-5.492-2.337-5.492 1.768zM766.595 934.181c-0.884-1.427-2.565-1.333-3.515 0.204-1.079 1.75-0.062 2.479 2.235 1.594 1.062-0.406 1.638-1.214 1.279-1.798zM792.043 939.796c0 2.619-3.525 3.294-5.696 1.087-1.848-1.873-1.827-2.112 0.29-3.681 2.496-1.852 5.406-0.456 5.406 2.594zM785.503 948.386c-0.373-0.605-1.844-1.083-3.265-1.062-2.5 0.036-2.515 0.090-0.348 1.732 2.308 1.746 4.819 1.279 3.612-0.671zM820.368 963.683c0-3.478 4.326-2.859 5.011 0.714 0.308 1.623 0.148 2.953-0.359 2.953-2.533 0-4.652-1.671-4.652-3.667zM880.069 964.549c1.518-3.95 12.051 3.203 12.438 8.446 0.377 5.047 0.75 7.109 1.521 8.355 0.456 0.739 0.475 1.913 0.044 2.609-0.848 1.373-4.076-3.946-4.076-6.713 0-1.923-2.54-2.163-4.298-0.406-2.217 2.217-7.101-8.446-5.63-12.29z"></path>
</svg>
