<!-- Generated by IcoMoon.io -->
<svg version="1.1" xmlns="http://www.w3.org/2000/svg" width="1024" height="1024" viewBox="0 0 1024 1024">
<title></title>
<g id="icomoon-ignore">
</g>
<path fill="#5b150f" d="M426.708 1.96c-31.825 6.774-57.875 20.385-78.419 40.974-6.83 6.844-22.747 20.75-35.373 30.899-12.626 10.152-23.585 20.428-24.347 22.837-0.766 2.409-5.801 9.716-11.191 16.24-6.273 7.588-9.803 14.375-9.803 18.836 0 3.836-2.193 11.273-4.873 16.524-2.962 5.807-4.711 13.795-4.459 20.39 1.598 42.136-7.569 72.459-29.164 96.476-8.197 9.115-18.333 20.401-22.526 25.076-4.191 4.675-11.736 11.624-16.762 15.438-5.059 3.836-9.142 9.107-9.142 11.797 0 2.672-1.091 4.859-2.423 4.859-1.38 0-1.762 3.295-0.888 7.666 2.816 14.074-9.68 35.033-29.507 49.499l-16.96 12.374-26.646 0.036c-32.269 0.041-36.353 1.004-40.273 9.491-8.251 17.87-20.403 60.655-21.635 76.159-0.818 10.327-3.248 20.499-5.985 25.057-8.947 14.894 7.171 49.166 39.232 83.415 14.215 15.187 14.101 14.914 13.287 32.472-0.49 10.491 0.027 11.797 4.645 11.797 4.383 0 5.194 1.513 5.194 9.667 0 6.735 1.259 10.152 4.142 11.259 6.275 2.407 7.642-0.683 9.020-20.382 0.728-10.37 2.956-20.658 5.23-24.126 5.347-8.162 4.983-18.987-1.256-37.458-4.846-14.348-0.371-54.995 4.548-41.305 0.869 2.418 1.987 2.515 4.537 0.4 2.702-2.245 3.181-1.762 2.385 2.38-0.55 2.854 0.119 5.187 1.486 5.187 1.369 0 1.846 1.043 1.059 2.312-0.785 1.272-0.537 2.864 0.555 3.538 1.088 0.674 2.212 4.94 2.496 9.486 1.173 18.809 11.581 73.268 16.532 86.492 1.789 4.781 4.605 13.165 6.259 18.627 1.652 5.463 9.221 22.58 16.822 38.035 10.869 22.101 13.811 30.588 13.779 39.738-0.068 18.143 8.99 30.442 20.785 28.222 1.557-0.292 18.476 14.986 37.602 33.953l34.773 34.488-8.129 3.877c-25.642 12.228-33.541 26.083-33.541 58.828 0 36.833 5.592 47.158 29.473 54.41 22.101 6.713 20.005 7.171 31.080-6.808 5.25-6.627 13.049-14.047 17.337-16.494 4.286-2.447 10.588-6.954 14.004-10.019 3.414-3.061 9.561-6.151 13.658-6.862 4.099-0.715 14.968-4.169 24.153-7.677 16.935-6.468 38.861-6.223 41.086 0.454 1.448 4.347 21.010 36.375 25.057 41.029 4.627 5.32 9.288 21.142 13.114 44.513 8.466 51.722 52.661 50.373 89.029-2.721 8.506-12.415 7.886-36.985-1.342-53.406-8.37-14.887-6.743-16.416 17.528-16.472 19.025-0.047 51.614-5.154 73.167-11.471 7.567-2.214 15.122-4.243 16.789-4.504s3.809-1.25 4.76-2.201c4.711-4.711 15.901-1.749 14.586 3.861-2.585 11.026-5.729 75.171-3.782 77.223 6.529 6.887 11.219 0.176 12.449-17.821 0.906-13.284 2.328-18.769 5.293-20.423 3.6-2.011 8.95-31.844 7.905-44.091-0.195-2.295 1.773-2.794 6.729-1.706 5.994 1.315 6.83 0.861 5.783-3.143-0.874-3.346 2.033-7.347 10.203-14.042 6.286-5.151 11.112-8.013 10.731-6.362-0.384 1.652 1.261 3.333 3.661 3.736 2.396 0.403 3.809-0.157 3.135-1.243-0.672-1.088 2.136-3.367 6.237-5.068 6.343-2.629 6.99-3.671 4.315-6.974-2.101-2.596-2.174-3.302-0.22-2.131 1.692 1.015 3.546-0.095 4.394-2.629 0.807-2.409 7.315-8.248 14.458-12.975 14.686-9.716 51.202-41.635 62.577-54.703 4.147-4.762 10.051-11.237 13.127-14.393 3.072-3.154 5.587-6.803 5.587-8.107 0-1.302 1.083-2.369 2.407-2.369 1.321 0 1.805 1.559 1.075 3.468-0.733 1.906 1.064 5.146 3.993 7.196 13.273 9.296-0.425 39.843-25.433 56.711-8.563 5.777-23.187 16.73-32.499 24.34l-16.93 13.838 9.48 1.719c51.546 9.35 145.902-19.903 150.948-46.797 0.901-4.8 5.344-13.944 9.873-20.32 11.129-15.669 13.982-21.744 26.186-55.758l10.501-29.262-11.813-10.476c-6.495-5.761-16.762-14.031-22.812-18.378-23.755-17.068-36.571-54.272-29.415-85.393 4.61-20.059 7.783-56.421 7.458-85.521-0.155-13.955 0.82-23.286 2.591-24.837 19.865-17.388 54.153-70.274 52.699-81.284-1.104-8.365-0.431-9.751 6.944-14.31 4.493-2.775 8.839-7.55 9.659-10.606 7.45-27.797-17.092-165.751-29.489-165.751-1.751 0-4.884-4.248-6.96-9.437-2.079-5.192-7.72-14.159-12.539-19.924-4.819-5.769-9.426-12.583-10.238-15.139-0.906-2.859-4.794-5.277-10.084-6.267-7.801-1.465-8.608-2.398-8.608-10.003 0-7.428-1.020-8.725-8.95-11.34-4.922-1.625-17.719-8.958-28.433-16.297l-19.481-13.343-12.977 2.463c-7.138 1.353-13.359 2.84-13.825 3.306-0.798 0.802 4.466 13.284 18.29 43.357 9.851 21.435 7.88 27.347-12.539 37.596-21.194 10.637-36.421 11.471-55.818 3.056-7.304-3.167-14.964-5.113-17.022-4.326-2.115 0.812-8.763-2.196-15.281-6.911-15.033-10.877-51.657-30.62-68.11-36.719-22.209-8.23-47.296-16.618-58.092-19.423-16.115-4.188-78.035-12.301-82.069-10.752-2.266 0.869-10.028-4.976-20.791-15.658-19.567-19.418-20.791-24.001-10.997-41.138 3.4-5.945 6.194-12.545 6.21-14.667s6.234-13.741 13.82-25.823c7.585-12.080 12.894-22.812 11.797-23.852-7.412-7.014-86.468-12.255-109.844-7.282zM512.996 18.035c0.498 0.495-2.986 7.972-7.74 16.611-4.754 8.641-9.941 19.814-11.53 24.827-1.587 5.011-4.504 10.458-6.486 12.101-2.542 2.109-3.598 8.324-3.598 21.185 0 37.369 7.35 51.941 23.167 45.929 6.169-2.347 7.567-1.76 14.434 6.061 4.183 4.765 8.403 8.167 9.381 7.561 0.977-0.604 9.527 0.389 18.998 2.209s26.952 4.497 38.85 5.947c11.895 1.454 24.47 4.508 27.943 6.781 5.079 3.327 9.489 3.801 22.469 2.412 16.809-1.8 29.445 4.164 40.482 19.11 1.784 2.414 4.637 4.394 6.34 4.394 3.817 0 22.19 12.943 33.877 23.866 14.318 13.381 27.713 15.523 41.427 6.624 4.711-3.056 6.183-3.007 11.348 0.373 23.877 15.647 86.593-2.337 93.336-26.763 2.737-9.905 0.485-24.927-5.29-35.292-5.417-9.727-11.746-25.931-10.13-25.931 0.71 0 8.197 4.814 16.638 10.698 8.441 5.882 18.263 11.932 21.825 13.446 4.911 2.082 6.86 5.127 8.051 12.575 1.467 9.188 2.22 9.93 11.527 11.419 6.435 1.029 9.957 2.897 9.957 5.282 0 2.027 4.034 8.154 8.963 13.611 5.571 6.167 8.403 11.392 7.48 13.798-1.805 4.702 5.162 16.031 9.862 16.031 7.050 0 12.821 16.045 17.775 49.415l1.254 8.438-8.525-6.5c-43.341-33.059-109.771-17.247-136.633 32.526-4.816 8.92-7.241 10.858-15.211 12.141-23.679 3.814-21.275 29.976 2.501 27.183 9.9-1.164 14.784-0.58 19.171 2.295 3.241 2.122 11.878 4.987 19.202 6.362 7.323 1.378 16.573 3.16 20.555 3.96 9.096 1.836 22.176-4.857 26.029-13.314 3.165-6.944 8.149-6.616 10.122 0.663 3.338 12.314 9.156 16.651 20.596 15.363 14.269-1.611 37.616-16.557 44.751-28.653l5.463-9.258 1.589 7.431c5.273 24.651 1.773 40.951-9.821 45.756-8.286 3.43-13.484 12.534-10.16 17.786 7.886 12.455-20.991 54.042-67.97 97.878-26.976 25.174-27.379 25.287-21.373 5.991 5.958-19.15 4.48-27.393-7.848-43.72-5.387-7.136-9.797-14.121-9.797-15.517 0-18.98-21.708-34.78-34.77-25.306-3.414 2.474-11.797 5.13-18.627 5.896-22.347 2.51-60.147 56.56-54.706 78.23 1.064 4.248-0.593 8.343-6.064 14.979-19.209 23.308 0.157 33.692 21.207 11.372 5.102-5.409 10.187-8.336 14.485-8.336 3.644 0 9.381-1.805 12.748-4.012 7.612-4.989 7.604-4.749-0.631 15.758-17.22 42.873-53.904 81.586-99.123 104.605-30.853 15.704-30.377 15.856-20.834-6.57 10.674-25.084 9.34-36.14-4.922-40.815-14.001-4.589-47.518 30.62-55.658 58.468-3.546 12.13-17.171 35.973-37.529 65.664-12.599 18.378-18.449 17.504-8.977-1.34 2.547-5.068 5.444-13.685 6.435-19.15 0.991-5.463 3.774-16.080 6.185-23.592 5.769-17.978 10.068-36.088 10.068-42.423 0-2.805 2.772-8.731 6.158-13.17 8.107-10.631 9.307-20.157 2.539-20.157-3.214 0-6.446 3.065-9.174 8.693-7.815 16.137-14.759 32.921-19.407 46.92-10.714 32.269-14.924 42.542-27.393 66.833-11.172 21.76-27.635 42.206-21.126 26.237 3.803-9.336 20.945-72.225 24.616-90.317 7.030-34.645 7.046-34.77 4.133-34.77-3.138 0-20.947 37.247-23.614 49.388-0.95 4.326-4.345 12.586-7.542 18.355-3.194 5.769-10.485 22.223-16.197 36.567-16.486 41.392-18.197 40.607-7.599-3.484 3.974-16.524 7.965-34.515 8.866-39.978 0.904-5.466 3.243-14.724 5.198-20.576 10.431-31.249-8.543 0.479-26.532 44.367-23.945 58.414-37.239 76.765-21.131 29.172 14.573-43.062 31.159-102.524 29.161-104.546-4.149-4.207-31.413 44.554-48.784 87.252-3.094 7.604-7.017 14.291-8.72 14.856-1.738 0.58-2.358-0.155-1.416-1.679 0.921-1.492 3.747-11.974 6.28-23.295 4.149-18.555 13.761-53.571 24.109-87.838 8.509-28.176 3.295-29.235-11.269-2.29-7.385 13.66-17.442 30.368-22.353 37.128s-11.264 18.47-14.123 26.026c-4.892 12.934-5.369 13.417-8.145 8.224-3.373-6.302 0.604-24.976 10.92-51.294 3.259-8.313 7.169-22.38 8.684-31.26 1.519-8.88 3.338-18.937 4.039-22.353 1.735-8.417-13.782 17.854-27.732 46.95-11.161 23.279-16.841 28.514-11.725 10.806 3.971-13.741 13.051-51.505 17.174-71.416 1.978-9.561 5.78-26.327 8.444-37.252 6.468-26.527 6.443-26.673-6.459-38.032-31.611-27.824-45.143-20.003-49.786 28.774-2.225 23.378-3.76 23.774-13.159 3.376-27.312-59.253-28.384-92.623-4.889-152.083 8.189-20.722 10.498-22.266 13.040-8.714 1.581 8.419 12.35 16.422 22.104 16.422 15.355 0 21.522-49.261 10.347-82.653-3.061-9.147-2.959-9.48 4.045-13.103 5.614-2.902 7.185-5.423 7.185-11.527 0-15.555-13.173-21.719-24.223-11.337-5.387 5.059-7.954 5.488-28.72 4.792-28.424-0.953-36.373 3.322-47.328 25.452-9.166 18.519-10.88 15.883-14.15-21.787-1.941-22.355-1.632-35.506 1.475-62.748 2.163-18.958 3.828-38.243 3.701-42.857-0.162-5.918 1.326-9.48 5.054-12.093 4.526-3.171 5.165-5.695 4.445-17.555-0.782-12.921-0.433-13.95 5.187-15.295 4.324-1.036 6.99-4.342 9.448-11.716 4.954-14.862 10.943-16.337 9.006-2.218-1.070 7.796-0.003 14.703 3.874 25.062 4.629 12.372 4.881 14.838 1.859 18.317-4.264 4.911-2.71 9.922 4.935 15.937 5.441 4.28 5.569 4.978 2.101 11.681-5.893 11.399 0.991 20.455 8.592 11.296 10.32-12.433 34.879-9.543 38.198 4.497 2.775 11.727 6.091 13.035 22.877 9.006 11.235-2.693 14.047-2.65 17.653 0.276 3.688 2.991 3.99 2.986 2.163-0.047-1.657-2.751-1.077-3.11 2.626-1.643 2.616 1.036 7.475 2.404 10.796 3.037 3.324 0.634 7.675 2.063 9.667 3.178 11.121 6.223 16.744-2.621 19.25-30.279 1.928-21.294-0.528-28.541-19.908-58.733-24.028-37.425-37.967-47.453-71.4-51.357l-14.128-1.649 6.679-8.608c15.274-19.692 55.921-40.333 86.151-43.752 10.531-1.189 71.283 0.528 72.816 2.060zM360.418 97.029c2.458 7.228 4.088 15.29 3.619 17.915-0.512 2.875 0.747 5.102 3.165 5.601 4.364 0.901 7.163-8.213 7.163-23.311 0-13.636 10.011-9.941 27.759 10.246 14.676 16.692 20.493 26.021 16.384 26.267-7.788 0.468-13.146 2.299-19.101 6.532-3.527 2.504-10.612 6.746-15.742 9.424s-9.9 6.675-10.601 8.885c-5.433 17.119-38.912 11.851-40.073-6.305-0.281-4.38-2.78-14.424-5.558-22.322-4.283-12.188-4.659-16.289-2.485-27.114 3.928-19.567 3.36-18.96 17.783-18.96h13.222l4.466 13.143zM925.901 286.383c38.679 13.4 42.19 46.622 6.792 64.262-13.408 6.681-16.906 6.486-16.906-0.95 0-2.537-5.189-9.177-11.532-14.762-12.033-10.59-16.216-10.59-19.578 0-2.434 7.672-14.714-0.46-25.014-16.562-11.822-18.479-10.354-21.9 12.19-28.433 9.821-2.845 18.974-5.58 20.342-6.075 6.221-2.252 23.704-0.944 33.706 2.52zM434.536 318.684c-12.775 15.501-18.351 43.298-11.822 58.931 9.911 23.72 62.41 42.853 90.439 32.964 5.969-2.106 13.928-3.828 17.685-3.828 8.792 0 15.271-6.895 9.51-10.119-18.566-10.39-56.952-43.306-75.845-65.038-19.87-22.856-21.27-23.46-29.968-12.91zM267.573 371.678c0 1.196-1.751 3.63-3.89 5.406-18.511 15.363-12.772 46.944 11.442 62.97 8.633 5.711 36.256 79.262 45.793 121.92 1.749 7.824 11.667 34.494 17.548 47.19 1.901 4.095 9.183 21.421 16.186 38.495s18.776 41.733 26.159 54.8c7.383 13.065 13.424 24.711 13.424 25.882 0 1.169 1.722 4.028 3.825 6.354 2.104 2.322 6.852 9.884 10.555 16.8 7.138 13.338 23.024 40.498 36.092 61.714 4.342 7.044 12.848 21.016 18.906 31.045 6.059 10.028 17.897 28.853 26.307 41.828 36.546 56.392 42.718 74.756 30.561 90.937-17.038 22.675-36.386 36.286-43.354 30.503-2.207-1.83-2.677-3.636-1.189-4.556 4.188-2.587-1.459-20.826-8.268-26.7-6.457-5.571-13.73-22.596-13.795-32.294-0.019-2.994-1.118-6.113-2.441-6.931-2.632-1.627-22.106-31.194-33.049-50.177-3.793-6.578-9.381-15.611-12.417-20.076-3.040-4.461-12.231-18.776-20.425-31.809-8.197-13.033-20.791-32.647-27.992-43.587-7.198-10.943-16.697-26.676-21.11-34.968s-9.805-18.438-11.982-22.551c-2.18-4.112-12.988-16.532-24.026-27.599-24.080-24.156-39.648-55.149-23.302-46.402 27.033 14.467 33.312-17.753 7.864-40.371-7.751-6.887-17.239-24.048-17.393-31.451-0.041-2.049-2.823-9.315-6.185-16.146-3.36-6.83-6.142-16.559-6.185-21.625-0.047-5.509-4.058-17.474-9.99-29.802-5.452-11.327-9.925-23.861-9.936-27.851-0.025-8.197-6.185-16.34-12.363-16.34-2.274 0-5.999-3.933-8.305-8.768-2.299-4.824-5.58-9.139-7.291-9.588-1.708-0.449-8.695-2.656-15.525-4.902-17.212-5.661-23.138-5.092-36.013 3.452-6.145 4.079-16.326 10.763-22.623 14.854-6.297 4.088-13.546 10.23-16.112 13.644-2.564 3.416-6.594 6.212-8.952 6.212-8.138 0-12.255 14.207-5.947 20.515 2.991 2.991 2.827 5.392-1.162 16.941-6.034 17.474-5.967 28.804 0.284 47.352 6.684 19.848 5.607 20.054-11.448 2.174-30.655-32.139-44.267-59.727-36.040-73.041 3.005-4.862 4.369-10.152 3.49-13.521-2.731-10.442 11.57-65.545 20.631-79.489 3.619-5.569 4.827-5.772 30.271-5.041 16.194 0.465 28.433-0.308 31.467-1.993 2.731-1.513 11.307-4.055 19.058-5.65 7.747-1.594 15.384-4.461 16.971-6.37 3.067-3.698 19.8-9.058 42.204-13.525 7.513-1.499 20.366-4.28 28.563-6.178 18.284-4.243 21.11-4.466 21.11-1.692zM400.752 400.652c-1.456 12.379-0.829 16.234 4.394 27.033 8.132 16.814 8.257 18.173 2.918 31.898-7.182 18.46 1.418 19.659 9.163 1.278 3.381-8.019 5.035-9.691 7.329-7.399 3.936 3.936 13.078 3.747 21.338-0.441 3.69-1.874 11.887-4.158 18.216-5.079 19.153-2.783 23.232-10.46 6.651-12.51-33.121-4.095-52.177-14.827-61.457-34.605l-6.855-14.616-1.697 14.44zM661.776 418.2c-0.831 0.831-10.631 1.378-21.773 1.216-11.145-0.162-24.34 0.782-29.326 2.101-4.983 1.315-12.136 3.027-15.894 3.798-23.081 4.738 49.959 54.308 80.339 54.521 23.081 0.166 45.954-22.030 47.507-46.1l0.679-10.503-12.826 0.625c-7.929 0.387-15.707-0.863-20.366-3.273-7.417-3.836-25.379-5.347-28.341-2.385zM528.989 453.319c-11.516 14.843-20.398 41.138-26.635 78.853l-1.643 9.936 11.527-13.038c15.2-17.193 17.092-16.8 14.959 3.102-2.144 20.014 0.097 20.344 12.561 1.863 15.917-23.598 24.156-44.375 25.127-63.359 1.362-26.603-4.556-32.777-14.099-14.71l-4.835 9.152-0.108-10.555c-0.144-13.809-6.727-14.296-16.854-1.243zM610.305 485.713c0 4.518 1.73 7.377 18.232 30.179l7.055 9.748-5.192 21.091c-2.856 11.6-5.192 22.376-5.192 23.947 0 5.406 11.654-11.204 16.061-22.893 3.895-10.336 5.758-12.184 15.907-15.791 6.322-2.245 14.846-5.284 18.944-6.751 10.977-3.931 18.895-10.72 25.579-21.928l5.94-9.963-12.669 6.421c-24.174 12.249-45.769 9.37-70.877-9.459-12.437-9.325-13.788-9.775-13.788-4.602zM850.383 592.4c7.758 10.588 18.395 24.445 23.636 30.797 5.239 6.351 11.215 16.335 13.281 22.187 2.065 5.855 8.203 16.408 13.638 23.455 5.436 7.044 9.88 14.053 9.88 15.571 0 1.521 9.020 9.629 20.041 18.018 11.021 8.392 20.612 16.751 21.315 18.582 2.978 7.761-18.175 58.909-31.188 75.412-3.879 4.919-7.864 12.672-8.855 17.229-1.903 8.76-18.311 21.562-31.116 24.275-3.414 0.726-15.996 4.616-27.959 8.646-41.668 14.039-55.225 12.184-27.918-3.82 35.42-20.755 54.897-73.807 43.574-118.669-5.78-22.886-12.309-34.18-19.794-34.226-2.153-0.014-9.602-2.672-16.554-5.909-9.221-4.293-13.809-5.23-16.962-3.468-2.377 1.332-9.54 1.993-15.921 1.47-9.388-0.769-12.377 0.014-15.69 4.112-4.063 5.025-6.985 6.648-35.645 19.819-8.197 3.769-17.989 10.566-21.762 15.112s-11.037 9.632-16.142 11.305c-5.106 1.673-12.637 5.528-16.735 8.565-12.363 9.161-18.643 11.595-35.227 13.649-26.34 3.268-41.205 17.204-30.501 28.597 3.162 3.365 7.65 6.115 9.979 6.115 2.326 0 5.473 1.499 6.995 3.335 5.369 6.47-20.731 16.259-51.124 19.175-21.162 2.027-31.045 4.369-47.082 11.14-11.167 4.716-21.376 8.574-22.691 8.574s-10.994 2.888-21.506 6.419c-10.512 3.53-19.416 6.045-19.787 5.587-1.592-1.957-20.162-31.608-26.486-42.282l-6.9-11.651 11.646-4.063c6.405-2.236 17.256-6.212 24.113-8.841 6.855-2.626 14.177-4.776 16.267-4.776s4.862-1.012 6.161-2.252c1.297-1.24 9.624-5.241 18.503-8.893 68.706-28.26 124.016-59.232 212.816-119.175l29.332-19.8 19.494-0.582c28.69-0.856 43.839-14.407 43.839-39.212 0-12.808 3.306-10.988 19.036 10.476zM368.55 838.276c10.633 15.089 21.681 35.252 20.155 36.778-2.093 2.093-51.773 18.481-56.023 18.481-2.55 0-7.347 2.899-10.658 6.443-8.801 9.421-17.97 13.424-30.734 13.424-11.792 0-21.234 6.075-21.234 13.66 0 6.56-7.363 3.99-12.444-4.347-3.793-6.218-4.924-12.515-4.929-27.442-0.016-33.866 6.906-40.522 60.837-58.493 46.343-15.442 43.035-15.533 55.032 1.494zM712.134 875.861c0 1.205-2.236 2.778-4.967 3.492s-4.949 2.799-4.929 4.634c0.025 2.187 0.669 2.42 1.863 0.674 1.004-1.467 3.782-3.387 6.172-4.27 3.855-1.421 6.302-6.727 3.105-6.727-0.685 0-1.243 0.988-1.243 2.196z"></path>
</svg>
