<!-- Generated by IcoMoon.io -->
<svg version="1.1" xmlns="http://www.w3.org/2000/svg" width="1024" height="1024" viewBox="0 0 1024 1024">
<title></title>
<g id="icomoon-ignore">
</g>
<path fill="#5b150f" d="M329.765 13.54c-14.866 16.429-14.55 17.349 17.089 50.001 46.382 47.868 60.92 54.322 77.161 34.266 17.873-22.075 43.92-35.124 70.107-35.124 42.168 0 15.092-20.324-50.038-37.565-35.747-9.461-72.684-19.708-82.080-22.76-11.821-3.845-21.76-0.397-32.239 11.181zM284.716 60.484c-34.767 6.392-40.95 16.252-27.323 43.572 14.374 28.812 14.545 28.849 35.529 7.867 9.027-9.027 26.289-16.413 38.36-16.413h21.944l-19.272-20.516c-10.598-11.284-21.397-20.011-23.999-19.4-2.597 0.615-13.956 2.815-25.239 4.892zM608.602 71.321c-2.651 4.292 4.453 11.333 15.792 15.645 20.774 7.899 46.021 46.129 46.021 69.684 0 16.594 3.919 16.195 61.848-6.241 67.1-25.99 70.357-53.875 7.907-67.707-66.135-14.648-126.333-19.856-131.568-11.382zM24.038 102.045c-35.714 63.542-30.905 185.583 9.601 243.758 9.429 13.541 17.628 25.706 18.218 27.036 0.595 1.329 42.165 7.102 92.375 12.83 100.147 11.418 106.37 15.074 123.609 72.606 10.869 36.284 5.523 64.002-21.484 111.349-20.082 35.206-44.483 42.263-25.969 7.512 8.654-16.249 8.264-16.889-4.082-6.705-26.026 21.468-17.020 53.292 23.278 82.227 20.311 14.587 36.929 30.056 36.929 34.372 0 4.321 8.641 5.687 19.203 3.033 14.595-3.661 22.494 0.197 32.883 16.055 12.239 18.682 15.913 19.859 34.898 11.205 18.702-8.519 22.941-7.391 35.698 9.527 9.593 12.712 16.426 16.044 20.24 9.868 8.751-14.164 35.771-11.136 44.962 5.039 7.028 12.37 10.59 12.872 25.715 3.603 10.611-6.504 27.16-8.649 41.824-5.429 13.348 2.93 28.73 1.962 34.188-2.149 5.458-4.116 18.875-7.952 29.819-8.53 52.279-2.757 72.384-21.87 58.065-55.196-6.031-14.033-7.136-14.332-7.628-2.052-0.915 22.72-14.472 16.704-19.548-8.674-26.166-130.831 71.174-198.549 197.416-137.341 63.505 30.79 94.455 20.766 149.406-48.381 36.3-45.68 64.769-166.622 42.468-180.409-5.72-3.533-9.24 0.808-9.24 11.391 0 10.426-7.57 19.979-19.396 24.475-10.668 4.058-21.947 14.017-25.062 22.136-4.427 11.534-7.136 12.38-12.404 3.853-4.714-7.628-8.424-8.178-12.351-1.822-8.075 13.064-21.058 11.186-21.058-3.049 0-9.634-11.641-11.92-56.493-11.091-64.991 1.199-140.51-28.525-203.403-80.057-29.822-24.438-37.729-27.421-52.176-19.691-39.525 21.152-52.237 5.203-16.45-20.639 77.058-55.643 72.098-48.208 54.367-81.44-18.407-34.504-20.705-34.882-68.15-11.186l-36.363 18.161-26.482-31.55c-54.778-65.241-105.091-9.364-62.877 69.833 29.251 54.885 26.934 74.515-4.119 34.835l-19.929-25.464-63.752 12.194c-84.997 16.26-156.541 9.606-205.557-19.122-33.909-19.872-38.201-20.639-47.134-8.424-12.257 16.757-20.327 17.209-20.327 1.128 0-6.77-4.497-11.386-9.995-10.258-5.621 1.152-12.33-10.521-15.334-26.671-2.933-15.797-5.823-23.491-6.418-17.099-0.595 6.397-3.738 8.966-6.991 5.716-3.25-3.25-4.813-18.637-3.472-34.191 3.093-35.911 0.053-35.505-21.518 2.872zM753.792 160.236c-8.625 5.421-6.676 11.226 9.048 26.95 11.021 11.021 21.686 24.977 23.696 31.008 4.687 14.061 39.801-2.811 39.801-19.122 0-23.988-51.929-51.787-72.545-38.836zM528.212 331.441c14.053 33.568 16.894 147.058 4.005 159.946-4.53 4.53-16.216-1.215-29.511-14.509-22.023-22.023-43.268-24.201-80.533-8.264-41.729 17.849 21.64-133.309 67.013-159.843 21.029-12.302 25.469-9.724 39.025 22.67zM333.954 459.432c0 1.563-5.786 14.44-12.859 28.615-7.070 14.177-10.205 30.069-6.963 35.316 7.291 11.792-46.316 121.655-59.451 121.841-18.637 0.258 16.499-112.419 53.055-170.151 9.852-15.55 26.219-25.305 26.219-15.621zM338.268 585.555c-7.743 41.279-26.741 76.193-41.45 76.193-19.998 0-2.877-59.657 26.413-92.022 19.043-21.042 21.476-18.48 15.038 15.829zM559.601 628.746c5.95 35.209-1.075 82.24-12.281 82.24-3.795 0-9.351-11.16-12.351-24.795-6.229-28.37 2.233-90.094 12.351-90.094 3.722 0 9.245 14.69 12.281 32.649zM182.625 683.232c-6.741 26.871 0.2 34.685 16.421 18.464 6.988-6.988 10.106-18.436 7.136-26.182-7.693-20.045-17.386-16.868-23.556 7.718zM129.997 682.916c-15.132 6.368-30.274 9.872-33.646 7.791-5.437-3.364-2.79 69.020 3.295 90.033 1.309 4.514 7.23-2.133 13.162-14.767 9.264-19.74 14.903-22.628 40.056-20.516 35.792 3.004 39.193 22.1 6.705 37.671-12.412 5.95-22.568 16.063-22.568 22.481 0 6.413-7.373 23.754-16.384 38.533-22.162 36.35-20.716 49.341 7.846 70.459 29.924 22.125 36.248 22.646 25.239 2.080-15.579-29.112-10.045-57.252 14.254-72.463 12.51-7.833 23.13-20.705 23.593-28.604 1.633-27.767 2.991-30.774 13.89-30.774 18.928 0 30.753 37.002 17.443 54.577-19.203 25.342-13.606 28.049 20.856 10.085 18.086-9.425 38.636-14.927 45.672-12.228 10.171 3.903 11.555 1.136 6.746-13.508-3.324-10.127-5.289-29.428-4.361-42.894 1.334-19.416-0.415-22.391-8.444-14.361-28.205 28.205-56.553-2.877-38.586-42.313 13.233-29.038 3.093-36.411-20.106-14.616-34.853 32.744-90.299 20.594-70.956-15.547 12.367-23.109 8.785-24.787-23.704-11.123zM347.314 766.403c-23.609 45.653-21.005 71.782 7.157 71.782 23.42 0 24.738-1.83 27.065-37.647 3.27-50.272-15.961-69.451-34.22-34.135zM623.229 761.353c-12.338 12.462-13.446 36.961-1.994 44.044 10.361 6.402 18.522-13.73 14.953-36.884-2.17-14.077-4.714-15.485-12.957-7.16zM425.46 777.203c-22.189 23.819-31.292 64.802-16.474 74.189 33.223 21.053 49.764 1.412 44.454-52.797-3.969-40.495-7.599-43.273-27.98-21.394zM562.178 799.205c-3.020 36.486-36.847 50.809-45.135 19.112-6.2-23.712-18.961-21.389-18.961 3.456 0 11.284-6.775 27.291-15.050 35.566-14.598 14.598-14.545 15.28 1.846 22.568 9.298 4.135 25.752 20.442 36.563 36.239l19.658 28.722-5.347-30.134c-4.472-25.203-2.404-32.194 12.654-42.739 24.267-16.999 34.246-8.711 28.214 23.438-3.501 18.645-1.255 29.753 7.467 36.994 19.243 15.97 14.816 46.522-10.098 69.713l-22.568 21.008 28.722-4.974c15.797-2.738 33.404-6.41 39.128-8.165 14.8-4.542 12.002-114.902-3.233-127.548-21.739-18.041-14.098-42.652 11.292-36.379 28.743 7.099 35.414 13.88 41.913 42.631 5.224 23.117 5.458 22.957 25.789-17.705l20.516-41.032-53.817-52.418 2.289 22.108c1.423 13.741-1.592 21.792-7.969 21.284-5.642-0.452-19.396-1.375-30.564-2.052-13.561-0.821-24.529-9.405-33.035-25.85-17.099-33.063-27.204-31.008-30.277 6.155z"></path>
</svg>
