<!-- Generated by IcoMoon.io -->
<svg version="1.1" xmlns="http://www.w3.org/2000/svg" width="1024" height="1024" viewBox="0 0 1024 1024">
<title></title>
<g id="icomoon-ignore">
</g>
<path fill="#5b150f" d="M695.588 5.193c-19.814 10.524-28.311 22.993-30.433 44.676-1.389 14.187-10.55 26.363-16.887 22.446-40.536-25.055-191.158-21.53-263.305 6.164-3.851 1.477-4.96 0.415-4.98-4.77-0.122-28.881-29.794-53.127-60.346-49.309-32.948 4.116-55.26 44.86-40.81 74.521 5.437 11.158 6.33 17.646 2.429 17.646-1.389 0-4.604 5.204-7.149 11.562-3.041 7.603-13.872 20.404-31.633 37.391-25.981 24.85-65.589 73.465-64.123 78.71 0.387 1.392-0.537 2.531-2.058 2.531-1.519 0-5.154 4.775-8.079 10.612-2.922 5.838-9 17.659-13.51 26.269-15.581 29.763-34.802 85.356-39.112 113.125-0.847 5.448-2.966 17.548-4.712 26.889-8.524 45.613-1.521 139.488 13.288 178.077 1.569 4.092-30.491 20.653-54.503 28.156-8.017 2.504-25.212 9.797-38.21 16.204l-23.633 11.651 30.029-1.657c16.516-0.913 38.805-3.718 49.531-6.238 10.723-2.52 26.067-5.497 34.093-6.618l14.597-2.036 11.576 24.255c14.082 29.504 21.419 42.617 34.057 60.874 13.435 19.405 45.744 59.119 50.41 61.964 3.187 1.939 3.214 3.146 0.166 6.897-3.17 3.901-2.991 4.283 1.256 2.692 2.725-1.021 4.955-0.548 4.955 1.052s1.046 2.261 2.324 1.472c1.28-0.791 4.452 1.043 7.049 4.078 4.845 5.658 2.581 7.849-2.675 2.59-2.014-2.011-2.924-1.572-2.924 1.417 0 2.387 0.641 3.7 1.425 2.913 0.783-0.783 4.39 0.52 8.017 2.896 4.52 2.964 6.596 3.27 6.596 0.977 0-1.839 2.938-0.276 6.529 3.472 3.588 3.749 6.017 8.729 5.392 11.063-0.949 3.55-0.672 3.596 1.685 0.283 2.357-3.311 4.009-3.024 10.077 1.748 3.992 3.14 6.386 6.582 5.318 7.65-1.068 1.065 0.249 1.098 2.927 0.072 4.626-1.777 6.397 1.286 5 8.643-0.296 1.558 0.979 1.344 2.83-0.476 2.575-2.529 6.521-1.364 16.788 4.955 7.384 4.543 14.876 8.258 16.649 8.258s3.223 1.273 3.223 2.83c0 1.558 2.23 2.849 4.955 2.874 12.212 0.106 13.435 22.044 2.542 45.618-4.189 9.067-11.891 55.609-9.584 57.914 2.073 2.073 28.571-37.095 38.003-56.171 12.557-25.395 13.271-24.546 11.434 13.629-1.569 32.665 0.996 41.981 9.213 33.448 2.476-2.57 6.357-37.142 6.178-54.992-0.141-13.828 3.303-19.106 9.246-14.173 4.064 3.375 4.036 24.789-0.042 31.604-0.57 0.952-1.682 15.598-2.471 32.55-0.789 16.949-2.208 38.036-3.157 46.858-1.563 14.555-1.145 16.351 4.518 19.38 9.843 5.268 13.576-1.234 15.46-26.931 2.412-32.915 6.9-77.887 8.782-88.037l1.629-8.789 13.167 2.46c7.241 1.353 19.551 3.055 27.356 3.782 17.206 1.602 25.921 3.306 30.087 5.879 1.724 1.065 4.125 0.338 5.331-1.618 1.209-1.956 3.636-2.667 5.392-1.583 1.753 1.087 2.371 3.303 1.37 4.925-1.004 1.624-0.069 4.064 2.075 5.422 5.621 3.561 8.148 3.121 8.148-1.422 0-2.59 1.981-3.464 5.661-2.502 3.112 0.813 5.68 2.924 5.702 4.686 0.025 1.766 1.298 1.298 2.83-1.037 2.478-3.773 3.112-3.773 5.705 0 2.186 3.185 2.462 2.299 1.107-3.539-1.178-5.077-0.659-7.783 1.497-7.783 1.817 0 2.396 1.472 1.284 3.267-1.192 1.934-0.78 2.504 1.012 1.395 1.665-1.030 6.612-0.509 10.992 1.156 4.377 1.662 7.041 2.106 5.915 0.979-3.676-3.676 7.509-8.884 23.392-10.89 14.765-1.862 48.916-10.084 60.595-14.586 5.146-1.987 5.323-0.853 3.722 23.863-1.538 23.718-1.245 25.948 3.411 25.948 5.594 0 8.69-14.237 8.69-39.944 0-13.742 13.357-27.561 19.756-20.44 1.17 1.3 9.271 12.552 18.005 25.008 8.734 12.453 21.591 29.011 28.569 36.794l12.685 14.151-8.134-30.74c-4.474-16.907-11.529-37.28-15.676-45.276-8.671-16.71-11.476-12.541 24.045-35.709 122.327-79.781 190.601-205.247 194.635-357.664 0.774-29.332 2.41-51.716 3.627-49.744 1.447 2.338 2.548 0.705 3.163-4.69 0.913-8.006 1.541-8.327 19.339-9.891 26.994-2.368 39.862-13.587 48.443-42.232 12.309-41.084-39.427-78.064-77.772-55.589-13.034 7.636-20.462 9.626-17.391 4.653 0.993-1.605-0.144-2.078-2.661-1.112-2.418 0.927-4.394 0.382-4.394-1.212s1.591-3.539 3.539-4.324c2.443-0.988 2.224-1.536-0.708-1.779-2.462-0.205-11.039-14.268-20.415-33.479-23.912-48.997-54.912-89.713-97.836-128.501-10.663-9.637-14.198-14.628-12.851-18.143 1.514-3.943 0.661-4.538-4.556-3.174-3.528 0.924-5.666 0.927-4.745 0.009 0.919-0.919 0.088-3.625-1.845-6.012-1.931-2.387-2.239-3.663-0.681-2.833 1.554 0.829 5.057-0.836 7.783-3.702s3.755-5.212 2.29-5.212c-1.466 0-3.453 1.275-4.412 2.83-0.963 1.558-3.104 2.83-4.761 2.83-2.067 0-2.027-1.178 0.119-3.768 2.46-2.964 1.777-3.647-3.19-3.196-3.477 0.316-6.001 2.011-5.614 3.768 0.391 1.757-0.512 3.196-2.003 3.196s-2.36-4.443-1.934-9.874c0.761-9.639 0.645-9.758-4.85-4.955-3.096 2.708-4.753 3.42-3.682 1.583 1.074-1.839 0.639-4.153-0.963-5.143-1.718-1.063 1.165-6.773 7.030-13.93 33.825-41.278-16.088-109.218-62.233-84.715zM743.030 28.263c14.672 14.672 14.35 36.221-0.783 52.64l-12.084 13.111 1.815 19.529c0.999 10.74 2.471 21.239 3.276 23.331 0.805 2.102-1.698 5.718-5.605 8.087-24.935 15.13-59.945 74.633-69.42 117.994l-5.193 23.771 6.355 2.896c4.692 2.139 9.074 1.76 16.741-1.441 12.552-5.245 12.58-5.049 3.389 25.079-7.971 26.133-14.672 33.941-31.473 36.68-11.18 1.821-11.905 2.612-20.999 22.831l-9.42 20.943-13.211-9.697c-15.479-11.363-47.055-26.814-55.175-27.002-3.112-0.069-9.080-1.662-13.26-3.539l-7.6-3.411 6.186-14.439c3.4-7.94 7.951-16.561 10.112-19.156 3.358-4.034 3.334-5.431-0.161-9.62-15.484-18.558-9.825-48.894 13.092-70.131l7.213-6.687 5.632 11.041c8.369 16.403 14.087 18.481 21.142 7.683 33.617-51.462 45.874-83.948 48.817-129.395l1.583-24.41 13.432-6.164c16.757-7.686 23.876-17.958 22.944-33.103-1.994-32.455 39.475-50.604 62.656-27.422zM344.692 44.612c11.094 5.265 19.372 20.658 18.832 35.020-0.442 11.761 12.073 26.549 26.496 31.31 8.912 2.94 9.022 3.201 10.862 26.233 2.011 25.143 7.226 46.294 16.876 68.438 6.936 15.917 37.651 63.838 40.83 63.701 5.108-0.221 11.385-7.851 14.674-17.842l3.577-10.857 8.325 9.44c4.578 5.193 10.154 13.493 12.392 18.445 2.239 4.955 5.365 9.805 6.945 10.782 4.958 3.066 3.19 24.944-2.811 34.787l-5.663 9.288 11.874 23.273-12.292-2.080c-28.109-4.75-55.922-3.298-112.796 5.89-10.679 1.726-16.431-8.895-21.165-39.087l-1.632-10.411 10.095 2.789c13.866 3.829 22.243 0.899 20.024-7.005-0.944-3.353-2.526-11.828-3.519-18.832-4.269-30.079-42.714-92.444-67.146-108.925l-8.804-5.937 0.996-24.719c0.966-23.848 0.738-24.924-6.424-30.557-35.72-28.098-1.64-82.642 39.453-63.142zM581.747 114.812c25.426 4.167 27.895 5.915 28.569 20.218l0.495 10.552-19.026-1.594c-10.464-0.877-21.507-2.924-24.54-4.549-6.881-3.68-78.229-1.751-98.079 2.656-7.785 1.726-17.84 3.865-22.349 4.753-4.507 0.888-11.503 3.331-15.546 5.428-7.274 3.773-13.543-1.474-9.7-8.114 0.675-1.167 0.232-3.716-0.979-5.661-5.489-8.795-3.876-13.446 4.664-13.446 4.629 0 13.216-1.779 19.087-3.956 26.294-9.75 96.633-12.968 137.404-6.289zM774.061 210.913c43.010 43.319 91.576 118.793 79.114 122.946-1.854 0.619-2.728 2.161-1.945 3.431 0.783 1.267-3.207 2.113-8.864 1.881-9.81-0.407-10.809-1.417-21.386-21.655-22.57-43.184-61.035-88.267-98.055-114.92-1.28-0.924 3.395-9.204 5.212-9.23 1.337-0.017 4.224-0.869 14.151-4.18 2.335-0.78 5.168-1.516 6.3-1.64 1.129-0.122 12.591 10.391 25.472 23.366zM300.357 198.957c-2.993 1.895-2.747 2.443 1.112 2.476 3.099 0.028 4.952 2.224 4.952 5.871 0 3.207 1.273 5.040 2.83 4.078 12.9-7.971-2.272 11.821-27.796 36.268-5.17 4.949-12.090 13.463-15.382 18.916-3.289 5.453-9.135 13.736-12.99 18.406s-11.366 18.041-16.691 29.716c-5.325 11.675-11.401 23.145-13.507 25.486-4.836 5.387-21.051 65.372-25.243 93.387-4.020 26.872-2.568 91.616 2.482 110.59 2.551 9.584-19.098 20.26-23.522 11.6-18.62-36.442-8.59-158.040 17.9-217.006 2.097-4.67 7.688-17.078 12.422-27.572 17.964-39.82 85.135-122.069 94.845-116.132 1.333 0.813 0.697 2.575-1.414 3.915zM981.771 335.163c33.916 15.451 13.943 74.378-22.963 67.76-13.872-2.489-29.146 6.161-37.161 21.045-4.064 7.548-6.366 9.177-10.884 7.71-14.348-4.648-73.396-1.638-90.641 4.624-9.341 3.389-22.924 7.882-30.187 9.982-35.275 10.192-41.701 19.029-24.535 33.722l11.792 10.093-21.87 10.106c-31.288 14.456-36.746 13.313-49.581-10.38-12.826-23.671-25.315-40.498-47.534-64.048-16.476-17.457-19.308-23.328-11.277-23.366 14.641-0.066 24.006-6.103 28.751-18.528 6.54-17.122 13.318-20.886 42.202-23.417 25.6-2.246 27.943-1.165 20.070 9.246-2.285 3.021-4.155 9.432-4.155 14.246v8.748l20.521-1.010c40.946-2.016 95.606-23.3 120.216-46.809 10.533-10.062 12.721-11.047 18.395-8.272 13.952 6.825 36.251 10.561 41.292 6.916 21.94-15.861 28.554-17.026 47.55-8.369zM505.958 372.64c44.313 6.26 53.518 9.769 91.293 34.815 21.837 14.478 57.587 49.952 73.581 73.014 9.858 14.215 39.341 67.154 41.657 74.795 1.178 3.893 4.543 11.047 7.478 15.9 9.456 15.632 7.52 18.669-15.889 24.938l-11.321 3.032-4.624 39.623c-2.542 21.792-4.772 40.099-4.955 40.678-0.179 0.581-1.978-0.316-3.995-1.989-3.499-2.905-2.294-39.338 2.106-63.453 1.007-5.517 0.243-7.785-2.615-7.785-2.83 0-4.609 5.079-5.962 17.045-2.069 18.279-4.692 22.227-11.194 16.832-2.891-2.398-3.602-6.534-2.405-14.013 2.117-13.249-4.874-15.935-29.732-11.429-74.666 13.54-136.935-0.418-194.914-43.693-28.837-21.522-34.723-27.227-46.122-44.678-3.807-5.827-7.86-10.601-9.008-10.612-2.172-0.022-15.017-18.861-21.242-31.153-1.972-3.893-7.299-12.809-11.841-19.814-4.54-7.005-8.355-14.962-8.477-17.681s-3.961-12.909-8.53-22.643c-4.567-9.733-8.707-19.314-9.199-21.292-0.93-3.746 29.027-17.595 38.116-17.617 2.775-0.009 9.78-2.009 15.568-4.446 10.513-4.429 16.439-5.303 64.296-9.476 37.219-3.245 37.134-3.248 67.929 1.101zM543.264 414.456c-44.313 43.704-81.912 144.031-64.368 171.753 6.521 10.309 47.528-36.146 67.293-76.229 5.758-11.675 12.906-24.023 15.889-27.437 3.851-4.41 5.018-8.923 4.034-15.568-0.761-5.146-0.15-18.653 1.361-30.015 5.691-42.797 0.888-47.26-24.208-22.504zM879.105 458.533c9.487 10.482 8.2 67.080-2.324 102.393-2.089 7.005-5.259 19.104-7.047 26.889-1.788 7.783-10.267 28.162-18.846 45.284-14.754 29.448-20.609 39.469-38.226 65.425-11.357 16.739-58.672 64.125-74.618 74.735-7.783 5.179-17.751 12.381-22.152 15.999-10.859 8.936-17.789 8.516-19.748-1.2-0.866-4.28-2.283-9.694-3.148-12.029-1.085-2.916 2.951-6.9 12.906-12.734 27.069-15.866 87.334-73.595 87.334-83.654 0-1.361 3.663-6.656 8.139-11.77 10.231-11.689 38.708-73.584 44.468-96.655 2.385-9.551 5.625-21.187 7.199-25.857s3.588-24.639 4.476-44.38c1.375-30.616 2.191-35.313 5.541-31.963 2.161 2.161 6.003 3.134 8.541 2.161 3.843-1.474 3.24-2.918-3.619-8.667-7.434-6.227-7.614-6.757-1.862-5.451 3.505 0.796 5.661 0.294 4.786-1.118-2.883-4.664 3.444-2.664 8.2 2.593zM365.181 542.001c6.601 8.269 15.822 18.697 20.49 23.171 4.67 4.474 8.49 8.892 8.49 9.816 0 2.825-35.789 12.018-66.513 17.089-7.785 1.284-23.068 4.352-33.963 6.817-10.895 2.467-23.907 4.485-28.911 4.485s-15.194 2.078-22.645 4.62c-7.447 2.54-20.548 5.658-29.108 6.927-16.077 2.382-76.364 13.95-112.621 21.604-11.348 2.396-21.43 3.561-22.407 2.584-0.974-0.974-0.025-1.773 2.113-1.773 2.136 0 13.49-4.321 25.234-9.606s33.454-14.334 48.242-20.11c14.788-5.776 37.079-14.691 49.531-19.812s27.738-10.912 33.963-12.865c6.227-1.954 20.874-7.924 32.55-13.269 18.713-8.565 32.422-14.149 67.165-27.362 5.033-1.912 10.020-4.35 11.086-5.417 3.444-3.444 5.108-2.186 17.303 13.1zM498.215 632.594l12.068 3.536-10.325 16.882c-5.677 9.285-17.319 30.253-25.873 46.599-8.552 16.345-17.867 33.003-20.7 37.020-2.83 4.014-11.554 19.767-19.383 35.008-7.827 15.238-15.324 29.146-16.658 30.906-1.331 1.76-4.138 7.658-6.238 13.108-2.1 5.448-7.785 16.273-12.632 24.056-4.847 7.785-16.843 30.073-26.657 49.531-23.32 46.239-32.887 58.489-18.672 23.909 3.804-9.257 6.95-20.169 6.985-24.246 0.039-4.076 3.3-16.813 7.248-28.302 8.419-24.485 17.817-56.307 20.863-70.637 1.181-5.57 3.187-11.803 4.454-13.855 2.255-3.647 17.040-58.257 20.329-75.084 0.913-4.67 2.736-9.852 4.053-11.514 1.32-1.662 4.845-13.271 7.835-25.796 2.991-12.522 8.375-30.267 11.96-39.429l6.521-16.658 21.377 10.715c11.755 5.895 26.806 12.309 33.443 14.253zM226.012 637.063c-3.658 4.042-4.012 5.91-1.417 7.515 2.205 1.361 2.723 0.952 1.433-1.134-1.112-1.799-0.672-3.27 0.977-3.27 3.766 0 14.321 10.383 14.321 14.085 0 13.207 63.981 83.267 94.815 103.823 9.341 6.227 22.294 14.827 28.784 19.109 11.803 7.785 13.139 17.502 3.848 27.946-10.15 11.41-115.501-77.814-137.399-116.367-3.621-6.377-9.86-15.886-13.861-21.131-9.529-12.494-12.394-25.998-6.032-28.438 3.212-1.234 4.001-0.716 2.531 1.657-1.17 1.898 1.629 0.65 6.222-2.772 10.342-7.703 12.107-8.015 5.776-1.021zM621.532 648.217c2.18 10.846 12.306 40.213 24.551 71.205 5.84 14.788 12.175 31.982 14.076 38.21 1.898 6.225 7.013 19.599 11.363 29.716 4.35 10.121 12.654 29.86 18.454 43.87 5.802 14.010 15.488 36.517 21.525 50.015s10.978 25.42 10.978 26.493c0 2.166-20.011-24.955-31.387-42.545-4.028-6.225-17.4-26.407-29.716-44.844-12.314-18.439-26.85-40.213-32.298-48.383-5.448-8.172-13.725-20.041-18.395-26.379-4.67-6.335-11.998-17.679-16.284-25.207-4.286-7.526-12.217-19.414-17.626-26.418-5.411-7.005-11.708-16.876-13.999-21.934-2.288-5.060-7.617-13.725-11.839-19.261l-7.675-10.062 24.598 0.542c13.529 0.299 25.207-0.066 25.95-0.811 5.597-5.597 26.305-1.269 27.725 5.793zM483.82 815.286c11.852 3.060 68.031 1.832 97.142-2.122 17.748-2.41 18.631-2.239 25.066 4.947 3.669 4.098 7.686 7.171 8.928 6.83s3.97 1.497 6.067 4.081c2.681 3.306 2.761 4.070 0.271 2.573-1.945-1.167-3.539-0.913-3.539 0.564 0 6.269-64.653 14.434-104.354 13.178-26.88-0.849-76.464-9.459-69.002-11.98 1.948-0.656 3.539-2.438 3.539-3.956s-1.14-2.056-2.535-1.195c-1.392 0.86-3.24-0.274-4.1-2.52-1.11-2.889-0.161-3.591 3.24-2.396 3.921 1.375 4.155 0.982 1.273-2.125-9.412-10.143 9.905-13.13 38.005-5.879z"></path>
</svg>
