<!-- Generated by IcoMoon.io -->
<svg version="1.1" xmlns="http://www.w3.org/2000/svg" width="1024" height="1024" viewBox="0 0 1024 1024">
<title></title>
<g id="icomoon-ignore">
</g>
<path fill="#5b150f" d="M255.937 1.705c-22.568 5.293-30.626 16.021-30.626 40.768 0 21.326-2.487 29.43-12.388 40.391-9.552 10.572-24.056 57.192-14.965 48.101 0.569-0.569 2.76 2.812 4.866 7.513 2.104 4.704 6.622 11.546 10.038 15.206l6.21 6.651-1.523 24.436c-1.671 26.827-3.857 35.293-9.114 35.293-2.748 0-3.178 1.77-2.087 8.601 1.204 7.536 0.125 10.539-8.705 24.231-12.42 19.248-28.589 51.363-35.6 70.698-3.592 9.915-7.957 16.944-13.796 22.219l-8.544 7.716 4.649 6.529c4.561 6.407 4.579 6.86 0.853 23.986-2.275 10.461-4.263 32.614-4.959 55.283l-1.163 37.826-16.213 13.366 5.581 3.88c10.505 7.309 15.722 13.958 15.894 20.255 0.096 3.465 0.583 7.821 1.085 9.681 4.199 15.527 4.274 15.29-5.818 18.314-8.276 2.478-10.406 2.354-16.192-0.966-14.463-8.303-25.928-5.447-41.245 10.264-35.531 36.444-36.941 71.607-3.23 80.582 7.071 1.883 12.983 5.815 20.15 13.403 5.577 5.905 11.823 11.645 13.88 12.751 3.261 1.756 3.52 4.6 2.020 22.298-1.399 16.514-1.111 20.78 1.552 22.948 5.359 4.364 9.593 0.955 9.593-7.728 0-4.983 1.477-9.042 3.944-10.847 2.171-1.585 4.071-4.994 4.225-7.574 0.156-2.577 0.409-6.654 0.565-9.054 0.226-3.514 1.93-4.347 8.731-4.26 14.167 0.179 27.042-4.535 35.13-12.864 9.422-9.701 12.896-9.793 18.299-0.487 7.84 13.509 28.717 40.103 45.405 57.842l16.54 17.585-1.373 11.59c-1.535 12.971-1.515 12.986 14.010 9.075 10.209-2.571 29.774 7.739 33.597 17.705 0.661 1.72 2.29 2.455 3.621 1.634 2.51-1.552 2.22 5.581-2.11 51.92-4.147 44.413-9.925 95.096-13.682 120.021-2.104 13.944-3.227 25.353-2.496 25.353s4.861-2.344 9.179-5.214c4.315-2.867 11.579-7.469 16.138-10.226l8.291-5.012 5.868 19.243c6.93 22.719 4.634 21.924 23.064 7.974 19.295-14.605 18.076-15.076 32.141 12.394 14.463 28.252 12.815 27.821 23.647 6.198l8.752-17.466 3.009 10.142c1.654 5.577 3.517 11.491 4.136 13.142 0.766 2.031 5.264-0.688 13.975-8.453 16.578-14.773 15.702-15.441 17.585 13.364 2.064 31.595 2.496 31.662 17.777 2.737 7.022-13.294 15.726-29.523 19.338-36.070l6.573-11.901 8.746 13.027c4.812 7.164 13.68 22.155 19.71 33.307l10.966 20.281 5.168-20.281c4.776-18.752 9.161-43.763 17.777-101.417 1.854-12.396 4.318-28.119 5.476-34.936 1.161-6.819 3.276-20.688 4.701-30.821l2.595-18.424 16.819-3.74c9.251-2.061 24.016-6.193 32.814-9.181 19.292-6.564 17.269-9.736 15.206 23.851-1.753 28.479-0.899 33.255 5.508 30.797 2.409-0.925 3.581-4.426 3.683-11.007 0.085-5.307 0.502-12.693 0.925-16.41 0.427-3.72 1.453-13.63 2.287-22.025 2.264-22.812 23.682-33.229 23.682-11.518 0 25.711 51.897 53.095 76.505 40.37 6.967-3.605 27.176-6.28 27.176-3.598 0 0.909 1.52 1.654 3.38 1.654 1.857 0 3.38-0.847 3.38-1.88s0.761-1.756 1.689-1.611c6.193 0.978 12.377-1.016 18.111-5.838 3.642-3.064 7.014-5.177 7.495-4.695 1.077 1.074 1.805-4.779 2.792-22.414 1.932-34.555-15.83-66.45-37.019-66.482-3.23-0.003-8.096-2.447-10.969-5.504l-5.165-5.496 10.969-12.504c9.974-11.37 11.816-12.51 20.29-12.536l9.318-0.029 1.585-12.96c1.219-9.997 4.043-16.822 12.359-29.863 13.035-20.447 27.054-48.11 33.763-66.638 4.828-13.325 5.264-13.775 17.2-17.832 14.413-4.898 14.547-5.377 4.611-16.384l-7.638-8.459 4.263-21.413c2.344-11.776 4.91-35.609 5.705-52.965 1.111-24.382 2.318-32.835 5.307-37.187 9.547-13.914 9.614-15.040 1.187-20.249-5.894-3.642-8.14-6.848-9.196-13.134-0.766-4.574-3.688-18.154-6.488-30.183-5.888-25.275-6.213-24.781 14.89-22.582 56.418 5.882 76.232-9.942 68.994-55.101-2.588-16.149-2.588-16.158 4.017-24.451 15.052-18.902 17.728-28.354 12.173-42.962-16.195-42.597-66.734-47.352-107.38-10.104-13.923 12.753-32.147 24.736-42.652 28.038-3.923 1.233-6.871-1.303-17.327-14.898-6.926-9.010-18.241-21.927-25.136-28.702-12.351-12.132-12.539-12.513-12.539-25.356 0-14.333-0.085-14.396-12.803-9.91-8.57 3.023-9.155 2.905-17.751-3.633-24.472-18.616-64.514-40.968-90.027-50.258-14.797-5.389-16.172-6.596-17.884-15.726-1.973-10.513-3.796-11.025-13.505-3.784l-8.355 6.231-19.573-4.010c-24.837-5.090-70.478-8.668-90.105-7.063-14.161 1.158-15.455 0.865-20.574-4.646-7.008-7.545-9.306-7.397-14.823 0.951-2.478 3.752-7.043 7.376-10.142 8.055-27.353 5.983-52.045 12.965-70.907 20.046-13.999 5.258-22.753 7.508-23.264 5.978-0.45-1.349-3.074-5.781-5.833-9.849-13.456-19.852-15.949-26.276-13.61-35.071 3.825-14.376-0.070-22.188-21.439-43.017-26.149-25.493-35.144-29.538-55.199-24.835zM296.894 36.937l20.583 19.721-1.28 14.799c-1.266 14.602-1.14 15.035 9.539 32.681 10.493 17.345 54.726 84.546 68.611 104.241l6.858 9.727-10.101 11.546c-5.555 6.35-13.242 17.44-17.081 24.646-5.781 10.841-14.918 18.586-12.916 10.946 0.311-1.184-3.102-5.493-7.583-9.58s-15.061-15.542-23.514-25.459c-40.835-47.904-54.056-60.623-72.448-69.685-45.335-22.341-53.957-40.968-30.948-66.873 11.448-12.89 14.442-22.1 14.46-44.462 0.029-38.955 22.742-43.939 55.821-12.248zM476.734 109.269l11.152 10.917 31.555 1.306c17.353 0.717 38.653 2.504 47.332 3.967l15.775 2.661 13.525-9.112c15.356-10.351 14.504-10.668 21.264 7.896 4.159 11.419 6.332 14.396 12.182 16.697 15.438 6.065 57.057 27.718 63.171 32.867 15.029 12.644 16.35 12.82 47.643 6.399 4.278-0.876 4.475 0.044 3.7 17.127l-0.821 18.052 13.302 13.97c7.316 7.684 15.475 17.078 18.134 20.878l4.832 6.912-36.544 15.478-26.099-25.986c-80.739-80.385-192.289-108.048-297.328-73.731l-22.838 7.461-7.359-11.17c-4.048-6.143-9.164-13.932-11.372-17.306l-4.010-6.138 19.039-6.889c21.114-7.641 43.696-13.871 50.266-13.871 3.001 0 6.538-4.393 11.799-14.649 8.982-17.51 7.832-17.312 21.701-3.737zM558.431 194.282c78.771 13.47 145.053 72.506 153.096 136.364 2.132 16.926-1.347 56.526-8.244 93.817-5.073 27.425-5.755 29.642-15.592 50.716-7.58 16.239-17.521 58.011-19.748 82.967-1.793 20.116-6.448 29.192-25.804 50.315-24.051 26.25-32.509 28.972-46.174 14.861-16.169-16.7-33.452-20.974-40.614-10.044-4.602 7.022-12.155 35.827-12.206 46.543-0.038 7.49-0.497 8.050-5.755 7.045-3.549-0.679-7.359 0.397-10.057 2.841-2.388 2.162-5.914 3.328-7.829 2.595s-6.082-0.352-9.257 0.857c-4.431 1.686-6.605 1.364-9.35-1.384-3.432-3.432-8.546-3.395-16.903 0.122-2.856 1.202-4.585 0.119-6.491-4.066-3.505-7.695-14.178-12.017-22.196-8.99-5.237 1.976-6.802 1.52-11.021-3.215-4.983-5.595-17.568-6.477-27.681-1.938-2.714 1.215-4.033 0.183-5.079-3.976-1.616-6.439-8.503-9.466-14.237-6.26-3.116 1.746-4.719 0.859-7.899-4.37-2.197-3.61-5.952-6.558-8.352-6.558-2.986 0-4.817-2.075-5.807-6.573-0.792-3.616-2.875-7.124-4.626-7.798-2.565-0.984-1.898-4.24 3.442-16.781 19.007-44.669 8.555-61.488-31.14-50.103-28.293 8.114-43.47-59.567-22.214-99.055 11.518-21.396 24.071-57.28 24.071-68.806 0-22.585 25.722-91.325 46.787-125.027 32.193-51.514 96.357-76.16 166.877-64.099zM937.674 212.569c18.21 16.451 19.025 22.373 5.577 40.469-11.088 14.921-12.051 19.866-9.049 46.386 2.992 26.436-8.601 34.216-45.029 30.214-23.845-2.621-26.056-2.173-111.094 22.403-53.812 15.551-50.167 15.522-48.603 0.36 0.734-7.095-0.244-19.039-2.414-29.541-4.652-22.496-4.872-21.079 3.677-23.624 7.348-2.185 55.504-23.7 68.183-30.461 3.717-1.982 7.484-3.613 8.371-3.618 5.742-0.052 50.092-27.292 60.434-37.124 25.951-24.666 53.113-30.67 69.947-15.464zM299.362 221.057c6.379 6.744 11.596 13.242 11.596 14.439 0 3.395-22.603 22.884-26.537 22.884-1.932 0-2.844 0.671-2.023 1.489 0.818 0.821-2.562 5.462-7.513 10.316-4.954 4.854-9.005 9.762-9.005 10.906 0 1.147-1.088 2.080-2.417 2.080-1.332 0-2.034 1.776-1.561 3.947 0.473 2.168-3.535 12.313-8.906 22.541-31.883 60.709-45.115 136.985-33.841 195.078 0.52 2.684-25.118 16.271-33.432 17.716-3.546 0.616-4.486-0.746-5.038-7.293-0.612-7.29-2.064-8.86-15.356-16.636l-14.68-8.589 24.146-23.389 0.479-16.747c0.484-16.938 4.396-56.725 6.19-62.95 0.534-1.86-3.085-8.743-8.044-15.296-12.144-16.047-12.132-16.117 4.405-21.746 7.969-2.71 15.281-6.39 16.25-8.172 0.966-1.785 5.296-11.544 9.622-21.688 4.327-10.148 12.644-26.317 18.482-35.936l10.615-17.487-2.632-12.525c-1.445-6.889-3.247-14.805-4.004-17.594-1.334-4.942-0.922-5.073 16.14-5.073h17.513l11.918-11.268c14.646-13.854 13.558-13.891 27.635 0.992zM830.042 366.002c1.909 5.888 4.75 16.985 6.317 24.657 2.838 13.897 2.908 13.987 17.167 22.327l14.315 8.371-24.382 23.615-1.523 24.468c-0.836 13.459-2.87 32.074-4.519 41.372l-2.994 16.903 19.367 27.887-16.065 6.706c-14.089 5.882-16.407 7.698-18.853 14.758-3.724 10.761-22.977 48.902-26.941 53.377-1.735 1.958-3.154 4.414-3.154 5.459s-1.486 3.54-3.299 5.545c-2.896 3.201-2.899 5.168-0.029 15.954 5.455 20.492 5.644 20.197-12.916 20.197-15.574 0-16.584 0.331-24.457 8.018l-8.212 8.018-11.605-13.395c-12.606-14.55-13.343-16.425-8.158-20.728 9.158-7.6 39.134-51.175 51.131-74.322 8.544-16.485 12.324-20.992 15.804-18.842 2.437 1.507 1.189-4.405-1.315-6.234-2.873-2.095 0.679-15.838 3.624-14.019 1.564 0.969 1.932 0.16 1.013-2.232-0.792-2.064-0.627-3.752 0.368-3.752s1.912-1.268 2.040-2.818c1.088-13.123 5.131-24.423 8.099-22.644 1.411 0.844 1.17-0.183-0.531-2.281-2.481-3.059-2.539-4.481-0.287-7.194 1.544-1.86 2.101-3.38 1.242-3.38-0.862 0 0.029-1.593 1.976-3.54 4.361-4.361 4.561-7.728 0.461-7.728-2.429 0-2.916-4.17-2.307-19.721 1.266-32.257-3.517-73.24-11.552-99.009-1.352-4.335 22.579-15.461 35.275-16.399 0.79-0.058 2.992 4.713 4.898 10.601zM377.195 382.272c-11.117 4.55-14.393 12.664-14.478 35.873-0.047 11.918-1.549 27.756-3.346 35.194-6.544 27.098-0.998 43.754 17.316 51.996 11.605 5.224 55.042 5.917 71.757 1.143 30.45-8.694 42.019-55.353 19.391-78.211-23.862-24.1-77.561-51.348-90.64-45.995zM577.084 452.304c-35.649 7.374-49.755 22.701-49.755 54.076 0 34.242 64.738 75.715 91.725 58.76 8.819-5.54 12.519-11.041 21.816-32.429 3.978-9.153 11.1-22.466 15.827-29.588 14.861-22.388 13.163-38.417-4.605-43.504-26.369-7.55-58.652-10.699-75.008-7.316zM602.38 468.78c29.509 12.33 31.364 52.956 3.038 66.668-35.824 17.342-69.735-25.725-43.647-55.438 11.836-13.485 25.905-17.373 40.608-11.23zM580.116 484.712c-17.397 7.574-14.211 33.957 4.672 38.696 22.826 5.729 35.040-29.674 13.364-38.731-9.071-3.79-9.248-3.79-18.035 0.034zM296.671 510.979c1.518 9.205 4.347 21.75 6.288 27.873 4.129 13.015 5.33 11.439-19.047 24.988-10.536 5.856-25.244 14.082-32.681 18.285-7.438 4.199-24.211 13.175-37.269 19.948-25.531 13.235-28.609 15.557-41.459 31.238-16.659 20.331-42.159 20.447-61.079 0.275-8.612-9.179-13.906-12.771-22.037-14.944-25.722-6.881-24.045-24.434 5.276-55.199 10.469-10.987 11.883-11.364 22.608-6.013 11.474 5.722 22.786 4.255 46.055-5.975 61.035-26.837 71.412-31.569 102.334-46.674 28.935-14.135 27.617-14.399 31.009 6.198zM487.886 513.498c-13.349 7.536-43.664 40.232-50.608 54.575-6.076 12.551-3.921 23.108 7.022 34.399 9.844 10.153 11.938 9.596 20.464-5.447l7.345-12.96 0.668 16.61 0.668 16.613 9.373-1.497c29.608-4.736 36.25-26.491 22.974-75.228-7.902-29.007-9.689-31.706-17.904-27.065zM355.17 584.672c2.42 14.341 2.264 15.459-3.981 28.569l-6.5 13.647 1.189-11.204c0.656-6.161 1.839-19.619 2.629-29.904 1.663-21.648 3.16-21.895 6.662-1.109zM257.084 606.041c5.952 11.465 34.239 46.653 48.826 60.736l15.62 15.081-2.469 22.333c-2.423 21.912-2.565 22.292-7.49 20.090-4.823-2.159-22.379 0.075-32.957 4.19-3.914 1.523-4.069 0.569-2.533-15.806l1.634-17.428-10.031-10.508c-12.983-13.598-32.211-37.173-37.182-45.583-2.748-4.654-6.245-6.99-11.869-7.933-17.571-2.945-17.44-3.219 8.039-16.741 28.909-15.34 27.089-14.835 30.411-8.43zM663.69 630.063c3.717 4.753 18.94 22.719 33.83 39.924 14.89 17.202 29.759 34.828 33.043 39.166 16.544 21.842 35.043 38.316 43.029 38.316 15.177 0 26.456 19.974 26.456 46.842 0 18.252-3.473 21.285-22.136 19.335-11.991-1.254-15.659-0.653-26.961 4.419-28.308 12.704-53.084-1.799-61.413-35.946-5.714-23.415-18.79-48.429-49.093-93.904-28.728-43.113-26.718-39.047-20.145-40.71 2.789-0.702 11.665-6.854 19.721-13.668 17.449-14.75 15.342-14.416 23.667-3.776zM364.151 635.805c-2.905 11.572-5.908 17.24-8.34 15.737-2.856-1.764-1.056-13.633 2.768-18.241 4.045-4.875 7.081-3.512 5.571 2.504zM585.218 636.174c1.239 3.224-0.71 17.78-8.267 61.711-1.173 6.819-3.706 23.046-5.633 36.062-4.196 28.334-7.359 48.6-10.209 65.361-1.158 6.819-3.201 20.005-4.541 29.303-1.341 9.295-3.357 21.973-4.483 28.171s-2.635 15.328-3.357 20.287c-0.723 4.957-2.339 15.607-3.592 23.665-1.251 8.058-2.673 17.692-3.157 21.413-6.845 52.517-7.374 53.983-15.208 42.147-4.706-7.112-5.615-10.632-4.634-17.954 1.282-9.556 1.489-9.216-18.906-31.209-8.224-8.865-15.33-4.455-15.385 9.556-0.049 12.061-5.467 29.878-12.176 40.049l-4.307 6.529-2.707-9.91c-6.323-23.131-4.037-22.266-19.927-7.553-15.897 14.718-16.54 14.564-20.606-4.875-4.591-21.955-7.011-22.043-17.806-0.624-12.574 24.947-12.321 24.828-19.324 9.228-6.921-15.421-20.116-20.934-31.16-13.020-2.707 1.938-7.148 5.139-9.87 7.115-4.892 3.549-4.999 3.406-9.767-12.945-2.649-9.094-5.267-17.954-5.815-19.689-0.761-2.396-2.365-1.872-6.695 2.197-6.030 5.664-6.167 5.607-12.38-5.255-1.559-2.716-1.158-14.016 1.274-36.062 1.95-17.655 4.495-41.23 5.656-52.387 1.163-11.155 4.19-38.034 6.729-59.726 4.449-38.044 11.279-102.671 11.292-106.826 0.006-2.774 9.312 7.783 13.9 15.772 2.064 3.592 6.903 7.606 10.751 8.917 3.851 1.308 8.694 4.861 10.763 7.887 2.069 3.030 4.986 6.26 6.48 7.179 1.497 0.92 7.293 11.062 12.875 22.538 27.588 56.694 56.836 61.595 104.134 17.449 8.676-8.099 18.311-15.899 21.409-17.335 3.1-1.433 9.379-4.286 13.955-6.335 10.867-4.869 14.93-11.474 19.927-32.393 6.271-26.247 26.851-58.647 30.769-48.435zM379.76 663.425c-1.596 8.505-6.288 11.596-11.294 7.441-3.758-3.119 0.052-15.162 7.376-23.314 4.654-5.183 6.48 2.211 3.918 15.873zM403.367 666.536c0 9.448-5.203 24.587-8.451 24.587-8.27 0-8.894-8.935-1.704-24.382 6.271-13.473 10.153-13.551 10.153-0.206zM435.069 661.902c5.54 2.966 5.504 9.407-0.137 25.806-6.985 20.302-11.468 23.279-22.4 14.877l-5.481-4.214 7.51-17.226c6.254-14.341 11.097-21.090 15.435-21.509 0.391-0.038 2.673 0.981 5.073 2.264zM466.534 672.038c2.191 2.641 2.388 8.070 0.839 23.102l-2.025 19.648h-10.142c-11.996 0-13.116-2.78-9.042-22.411 3.97-19.114 13.494-28.627 20.371-20.339zM537.685 689.493c-1.46 7.298-5.116 12.898-8.421 12.898-2.014 0-0.743-7.725 2.899-17.603 2.748-7.455 7.197-3.668 5.522 4.704zM493.519 690.56c-0.006 10.113-6.55 24.227-11.236 24.227-6.788 0-5.722-12.611 2.144-25.356 5.957-9.652 9.094-9.262 9.091 1.129zM516.061 694.072c0 11.305-4.382 18.731-9.817 16.645-4.994-1.915-4.66-10.113 0.777-19.031 6.082-9.977 9.039-9.196 9.039 2.385zM651.856 737.289c12.487 20.667 12.725 21.732 4.507 20.124-4.132-0.81-11.149 1.039-21.062 5.555-19.541 8.9-53.884 18.601-53.861 15.218 0.020-3.168 4.155-30.165 5.607-36.61 0.772-3.442 4.066-5.6 11.81-7.751 5.908-1.64 16.825-5.783 24.263-9.207 17.089-7.87 16.050-8.329 28.738 12.673zM446.19 741.064c18.63 3.338 20.914 5.432 10.615 9.736-12.417 5.188-16.682 4.274-27.042-5.786-8.401-8.158-8.845-9.065-3.857-7.896 3.1 0.728 12.225 2.504 20.284 3.947zM374.067 742.3c0 18.694 19.608 64.897 32.997 77.761 32.945 31.645 81.78 10.867 110.897-47.184 10.057-20.052 11.268-26.158 2.937-14.82-58.383 79.47-97.308 79.041-138.262-1.529-4.713-9.274-8.57-15.676-8.57-14.227zM496.339 854.896c-3.978 1.605-3.532 13.525 0.563 15.099 7.91 3.035 14.161-4.576 10.055-12.248-2.298-4.295-5.144-5.061-10.618-2.849zM513.632 878.021c-10.914 10.914-6.207 25.882 7.716 24.529l7.11-0.691 0.665-15.211c0.787-17.922-3.697-20.417-15.49-8.627z"></path>
</svg>
