<!-- Generated by IcoMoon.io -->
<svg version="1.1" xmlns="http://www.w3.org/2000/svg" width="1024" height="1024" viewBox="0 0 1024 1024">
<title></title>
<g id="icomoon-ignore">
</g>
<path fill="#5b150f" d="M747.851 9.738c-3.802 5.747-10.143 12.433-14.091 14.853-3.944 2.424-15.035 12.427-24.646 22.225-9.611 9.803-19.13 17.819-21.155 17.819s-9.411 6.147-16.42 13.66c-7.008 7.509-16.38 16.866-20.829 20.786l-8.085 7.131-25.809-6.273c-158.225-38.448-333.527 21.881-430.228 148.060l-7.645 9.978-44.266-4.062c-24.345-2.234-58.929-5.803-76.856-7.928-17.924-2.129-33.956-3.913-35.626-3.963-4.328-0.132-22.898 25.933-20.124 28.249 24.228 20.253 41.062 36.464 45.764 44.069 3.224 5.217 14.709 18.715 25.524 29.993s22.945 25.376 26.954 31.325c4.008 5.947 8.586 11.614 10.172 12.592 2.042 1.265 1.246 9.633-2.735 28.759-30.335 145.795 11.177 283.075 117.672 389.131l36.393 36.245-1.766 14.599c-0.969 8.027-3.571 29.262-5.78 47.189-2.206 17.924-3.882 37.282-3.719 43.020 0.161 5.735-0.864 15.709-2.277 22.16-1.413 6.455-3.575 17.739-4.809 25.081l-2.246 13.347 32.885 16.217 3.018-5.811c3.348-6.451 28.523-31.156 46.644-45.773 6.455-5.205 15.029-13.008 19.057-17.343l7.325-7.876-1.2 31.674c-1.231 32.507-0.062 37.417 8.916 37.417 7.796 0 9.803-6.094 11.158-33.919 2.154-44.232 2.688-49.511 4.999-49.511 1.209 0 1.553-1.043 0.766-2.317-0.788-1.277 2.585-5.38 7.495-9.128 10.401-7.932 12.33-8.411 10.061-2.492-1.452 3.784-1.757 11.663-1.006 25.85 0.701 13.205 11.967 2.086 12.734-12.565 0.588-11.282 1.754-14.993 4.716-14.993 2.338 0 3.169-1.237 2.049-3.051-1.267-2.052-0.464-2.504 2.461-1.382 50.271 19.29 169.082 14.3 239.012-10.042 14.647-5.098 26.904-8.913 27.237-8.479 0.33 0.437-0.252 14.872-1.292 32.080-1.898 31.35-0.874 37.131 6.094 34.455 2.812-1.077 4.212-9.359 5.646-33.402 2.393-40.070 2.147-39.497 20.951-49.41 42.496-22.409 88.399-58.217 119.014-92.839l15.779-17.848 14.731-0.378c21.161-0.545 131.662 9.811 143.796 13.475 4.052 1.225 19.511-20.022 17.819-24.489-0.898-2.372-29.978-34.753-52.683-58.667-6.983-7.356-15.355-17.479-18.607-22.498-3.249-5.017-12.328-16.165-20.176-24.769l-14.267-15.647 7.396-29.433c39.208-156.031-19.742-327.116-147.262-427.387-8.159-6.418-8.193-8.282-1.273-71.143 1.502-13.623 3.726-36.503 4.947-50.844s2.929-29.006 3.796-32.59c1.477-6.1-7.414-13.473-27.612-22.896-0.868-0.406-4.689 3.965-8.491 9.712zM762.963 52.253c-0.695 16.134-3.070 42.537-5.279 58.673-2.209 16.14-3.495 30.218-2.858 31.288 0.637 1.068-0.443 12.503-2.399 25.409s-3.501 26.397-3.431 29.984c0.068 3.584-1.12 13.555-2.643 22.16-1.52 8.605-3.532 24.736-4.47 35.851-0.935 11.113-2.197 20.204-2.803 20.204-4.215 0-12.136-6.947-18.622-16.334-9.254-13.395-20.206-25.382-23.195-25.382-4.673 0-21.151 25.293-22.929 35.199-1.031 5.735-2.913 11.744-4.184 13.353-1.267 1.609-4.163 9.165-6.426 16.798-2.267 7.63-7.104 17.786-10.752 22.566s-6.174 9.005-5.615 9.384c0.557 0.378 5.261 3.492 10.451 6.917s11.614 10.269 14.273 15.208c2.661 4.938 7.445 10.688 10.632 12.777s9.58 9.863 14.205 17.275c8.836 14.164 22.807 30.428 26.139 30.428 1.079 0 4.015-6.747 6.523-14.993 2.511-8.245 4.652-15.216 4.759-15.49 0.477-1.197 57.504 6.686 86.636 11.973 31.455 5.713 32.519 2.015-14.358 49.846l-41.863 42.715-9.956-10.587c-17.85-18.976-20.127-17.884-18.358 8.815 1.413 21.33-1.085 64.612-4.79 83.079-1.679 8.359-0.563 9.409 30.236 28.449 2.32 1.434 12.336 8.027 22.265 14.651 9.928 6.62 22.982 14.54 29.012 17.592l10.965 5.55 1.434-9.772c0.79-5.372 2.603-16.293 4.027-24.265 1.428-7.975 2.593-17.675 2.593-21.555 0-8.107 30.556 13.048 37.227 25.772 1.754 3.348 13.731 17.438 26.618 31.319 12.885 13.879 25.481 28.606 27.987 32.732 2.507 4.122 5.713 7.497 7.123 7.497s4.068 2.849 5.904 6.329c3.356 6.356 23.674 30.636 36.039 43.069 35.039 35.226 34.956 36.651-1.923 32.618-41.875-4.578-90.716-8.749-138.618-11.833-23.468-1.514-45.543-3.843-49.056-5.178-3.517-1.339-10.715-2.513-15.998-2.615-19.948-0.378-21.114-2.867-7.338-15.669 37.436-34.793 36.996-34.091 24.452-38.925-4.66-1.797-13.242-5.458-19.075-8.138-5.83-2.68-11.307-4.873-12.171-4.873s-12.522-5.184-25.902-11.521c-35.713-16.912-36.944-17.048-44.946-4.957-8.445 12.765-36.55 35.793-61.365 50.287-21.118 12.334-20.703 15.583 2.513 19.607 14.956 2.593 16.208 4.208 13.353 17.223-6.403 29.194-8.71 42.149-12.229 68.684-2.080 15.684-3.784 29.467-3.784 30.63 0 7.371-62.294-49.293-81.732-74.343-5.91-7.618-6.55-9.572-3.135-9.572 6.174 0 17.078-12.728 17.078-19.936 0-5.993-0.59-6.147-25.419-6.591-13.983-0.249-28.941-0.763-33.242-1.141-4.304-0.382-15.451-1.16-24.769-1.735-9.322-0.575-18.708-1.824-20.86-2.775-2.948-1.304-7.371 4.848-17.97 25-7.732 14.703-20.346 36.199-28.027 47.77-16.534 24.901-16.472 24.588-4.891 24.588 8.119 0 36.033 3.655 53.499 7.002l6.516 1.25-9.125 8.018c-14.296 12.561-45.949 40.808-65.93 58.834-10.024 9.042-22.459 19.548-27.64 23.352-5.178 3.802-16.493 13.419-25.142 21.37-8.648 7.946-23.717 21.493-33.485 30.095-9.772 8.605-20.429 18.284-23.684 21.512-9.549 9.46-12.583 7.643-10.857-6.519 0.827-6.812 2.686-25.289 4.128-41.062 1.44-15.773 4.433-42.762 6.651-59.968s4.489-43.607 5.048-58.664c0.557-15.057 2.283-30.677 3.833-34.716 1.551-4.037 2.83-11.663 2.849-16.946 0.099-33.157 2.653-34.224 23.443-9.803 21.386 25.12 31.101 27.803 34.747 9.586 0.819-4.092 6.24-17.442 12.045-29.664 5.809-12.227 10.558-23.896 10.558-25.935s3.658-10.457 8.126-18.706l8.122-14.998-14.752-13.149c-8.116-7.233-19.591-20.346-25.502-29.138-31.83-47.348-42.139-49.988-44.623-11.423-0.508 7.851-2.923 8.602-13.98 4.338-4.037-1.557-17.9-3.845-30.805-5.091-12.906-1.244-28.6-4.076-34.873-6.294-6.276-2.218-14.638-4.033-18.585-4.033-21.652 0-17.266-8.303 28.643-54.213 38.648-38.648 36.282-37.161 42.306-26.572 4.612 8.101 15.1 13.836 21.096 11.531 2.581-0.99 3.554-10.343 3.907-37.654 0.412-31.948 2.369-49.52 7.334-65.881 1.073-3.538-1.376-5.855-10.417-9.854-6.5-2.874-12.534-6.384-13.407-7.8s-5.91-4.378-11.189-6.584c-5.279-2.203-12.53-6.694-16.118-9.98-5.442-4.99-41.601-25.040-45.152-25.040-2.077 0-7.62 23.286-6.344 26.636 1.376 3.606-2.067 33.012-4.105 35.048-0.677 0.677-6.923-4.984-13.879-12.58-6.96-7.599-18.131-19.115-24.831-25.591-11.371-10.995-28.163-30.799-44.259-52.194-3.775-5.017-14.17-16.749-23.102-26.071-8.928-9.322-20.697-22.929-26.147-30.24s-16.693-19.336-24.985-26.727c-20.588-18.352-17.949-20.782 17.912-16.487 37.005 4.433 103.382 10.752 128.407 12.227 11.472 0.674 24.957 2.406 29.966 3.849 5.011 1.442 16.66 2.624 25.889 2.624 13.398 0 30.055 3.15 36.26 6.857 2.707 1.615-9.421 14.709-18.684 20.167-9.304 5.485-22.982 23.48-19.748 25.982 8.697 6.731 18.352 12.177 21.592 12.177 4.258 0 17.429 5.277 32.957 13.208 5.036 2.572 16.946 7.503 26.467 10.962l17.314 6.282 15.899-15.177c8.744-8.347 15.899-16.128 15.899-17.291 0-1.166 7.332-6.418 16.293-11.672 8.965-5.254 20.315-12.922 25.221-17.038l8.928-7.48-5.683-5.679c-3.123-3.125-10.987-7.101-17.475-8.836l-11.796-3.156 1.563-11.823c1.455-10.999 5.574-33.409 11.682-63.516 1.403-6.919 2.569-15.718 2.591-19.554 0.114-19.42 7.362-16.656 39.112 14.912 10.974 10.909 26.717 25.726 34.987 32.926l15.038 13.093-11.971 12.98c-13.312 14.438-16.613 26.733-6.156 22.933 8.371-3.043 81.953-1.415 95.145 2.104 13.734 3.664 17.374 1.16 25.726-17.696 3.282-7.406 9.559-17.139 13.952-21.634 6.255-6.399 19.296-28.646 30.818-52.569 0.794-1.646-23.853-5.178-36.128-5.175-3.695 0-11.647-1.455-17.675-3.233l-10.956-3.237 22.025-20.742c21.198-19.961 40.845-36.888 67.665-58.298 6.947-5.547 16.142-14.349 20.441-19.561 4.295-5.211 11.519-11.337 16.051-13.611s16.112-11.931 25.735-21.456c19.915-19.709 36.375-34.098 39.127-34.199 1.031-0.037 1.304 13.131 0.609 29.264zM564.937 145.922c25.213 3.649 23.828 2.686 15.989 11.146-6.426 6.935-6.56 6.956-25.566 4.045-34.947-5.353-106.225-1.92-125.259 6.034-8.128 3.396-9.516 3.276-15.903-1.378-7.796-5.679-9.073-9.879-3.006-9.879 2.197 0 11.082-2.387 19.746-5.308 15.663-5.277 86.811-11.165 105.32-8.716 4.301 0.569 17.207 2.393 28.68 4.055zM390.233 168.276c-1.034 2.507-2.406 6.374-3.051 8.592-0.643 2.215-14.296 10.285-30.339 17.933-28.476 13.576-61.759 34.848-61.759 39.469 0 1.271-3.655 4.2-8.119 6.51-4.467 2.308-12.974 8.592-18.902 13.964-8.258 7.476-13.072 9.809-20.545 9.949-12.26 0.231-11.14-2.036 10.166-20.551 36.596-31.806 54.446-45.010 71.585-52.951 6.894-3.193 14.081-7.092 15.971-8.66 3.621-3.003 40.808-18.622 44.637-18.748 1.231-0.040 1.39 1.981 0.357 4.491zM776.488 250.406c5.815 6.094 14.465 16.644 19.222 23.443 4.757 6.802 11.251 14.073 14.436 16.158 6.19 4.058 17.115 22.487 39.432 66.537l13.925 27.484-6.692 0.84c-8.596 1.079-11.78-1.726-19.336-17.025-16.026-32.449-33.064-60.624-44.059-72.862-29.335-32.643-34.236-39.459-34.236-47.595 0-11.051 4.658-10.238 17.309 3.022zM484.571 327.319c-2.858 4.858-4.833 20.899-5.55 45.060-0.427 14.414-1.541 26.969-2.471 27.901-2.519 2.517-30.218-25.739-31.948-32.59-0.819-3.249-5.040-8.685-9.378-12.078l-7.888-6.172-12.027 5.277c-23.218 10.187-52.732 46.201-73.274 89.414-8.59 18.065-17.060 65.386-13.479 75.29 1.667 4.606 3.028 10.23 3.028 12.495 0 5.574 19.022 9.83 46.281 10.356 22.597 0.437 24.588 1.76 17.619 11.713-2.717 3.876-5.609 5.107-9.568 4.074-4.563-1.194-5.338-0.609-3.957 2.991 1.812 4.716-0.868 7.765-22.717 25.877l-12.017 9.962 6.929 12.202c23.699 41.716 87.935 80.711 142.977 86.793 32.233 3.563 45.644-6.184 45.644-33.178 0-1.984 1.24-3.608 2.76-3.608s2.036 1.172 1.151 2.606c-0.887 1.434-0.369 2.609 1.147 2.609 1.52 0 2.762-1.176 2.762-2.609s1.76-2.606 3.911-2.606c3.581 0 5.107-3.185 4.157-8.67-0.206-1.182 0.776-1.436 2.185-0.566 1.407 0.868 1.896 3.301 1.089 5.409-2.218 5.774 3.474 4.588 7.833-1.636 3.736-5.332 4.058-5.153 13.836 7.753 12.14 16.023 15.106 15.905 40.767-1.63 41.118-28.095 71.659-89.763 74.133-149.696 1.234-29.889 1.954-29.262-32.928-28.612-20.835 0.39-39.371-3.406-39.371-8.060 0-3.932 16.825-20.732 24.769-24.732 22.293-11.224 28.68-24.059 18.902-38.005-29.019-41.396-69.066-67.079-126.662-81.227-16.964-4.169-56.594-5.587-58.646-2.098zM871.717 417.278c10.857 27.707 14.995 82.673 10.122 134.495-3.554 37.808-3.402 37.439-11.854 28.963l-6.36-6.381 3-31.796c3.142-33.27-0.031-83.387-7.002-110.744-2.622-10.275-2.467-13.232 0.972-18.902 5.38-8.87 6.036-8.615 11.121 4.365zM162.057 481.48c-3.889 42.198-0.043 100.244 7.583 114.491 2.717 5.070 2.338 7.362-2.496 15.183-3.129 5.067-4.664 10.069-3.406 11.119s6.686 5.132 12.064 9.067c5.378 3.938 9.778 9.378 9.778 12.088s0.96 5.522 2.133 6.246c1.172 0.726 6.723 11.647 12.334 24.272 8.978 20.2 21.545 38.614 49.481 72.49 20.586 24.969 22.475 29.058 17.241 37.31-2.362 3.723-21.477-15.589-39.482-39.89-5.322-7.183-14.097-18.333-19.499-24.775-5.399-6.442-13.82-20.524-18.708-31.288-4.891-10.762-10.026-21.625-11.412-24.132-9.928-17.998-20.767-44.614-20.767-51.001 0-2.954-1.31-8.673-2.907-12.709-8.085-20.4-11.55-75.65-7.63-121.623 3.821-44.85 4.064-45.573 12.324-36.66l6.403 6.91-3.034 32.907zM783.231 760.528c4.268 3.8-44.45 48.028-72.204 65.549-25.409 16.041-72.444 36.59-75.88 33.153-5.848-5.848 2.944-17.136 16.728-21.471 29.999-9.439 73.539-38.269 103.142-68.297 12.977-13.161 20.718-15.614 28.215-8.934zM608.402 858.951c9.393 8.503 5.842 10.43-29.126 15.82-37.324 5.753-70.66 6.82-106.827 3.421-37.58-3.535-37.119-3.335-28.311-12.143 6.655-6.655 6.766-6.667 29.846-3.837 29.012 3.556 67.127 3.649 79.576 0.19 5.215-1.449 18.121-3.637 28.68-4.861s19.693-2.381 20.297-2.566c0.606-0.188 3.245 1.603 5.867 3.975z"></path>
</svg>
