<!-- Generated by IcoMoon.io -->
<svg version="1.1" xmlns="http://www.w3.org/2000/svg" width="1024" height="1024" viewBox="0 0 1024 1024">
<title></title>
<g id="icomoon-ignore">
</g>
<path fill="#5b150f" d="M609.142 57.883l-88.113 61.722-33.892 0.274c-18.638 0.15-33.89 0.642-33.89 1.096 0 0.451 5.189 7.425 11.529 15.494 13.508 17.195 12.606 18.735-10.413 17.818-9.128-0.364-15.833 0.387-15.833 1.771 0 1.322-1.028 1.769-2.282 0.993-1.257-0.776-3.023-0.215-3.927 1.248s-3.189 2.068-5.076 1.343c-2.016-0.774-3.43 0.229-3.43 2.432 0 2.383-1.116 3.049-3.066 1.831-4.406-2.753-9.452-3.222-7.915-0.736 1.577 2.551-14.655 5.934-18.144 3.778-1.353-0.836-3.6 0.435-4.99 2.825-1.39 2.388-2.563 3.303-2.603 2.035-0.042-1.271-1.761-0.166-3.82 2.453-3.778 4.798-3.668-6.322 0.245-25.285 2.916-14.118-65.124 19.63-103.677 51.424-30.327 25.009-44.548 38.074-50.755 46.625-3.649 5.025-12.466 16.062-19.599 24.529-13.403 15.915-22.089 29.698-41.625 66.051-13.679 25.458-13.548 24.15-2.42 24.15h8.983l-13.889 9.946c-7.64 5.471-13.889 10.714-13.889 11.651s2.743 10.535 6.095 21.327c8.016 25.812 7.866 27.299-1.983 19.786l-8.149-6.217-5.71 17.417c-15.938 48.611-2.946 158.371 26.057 220.165l13.119 27.949-2.28 39.502c-2.035 35.252-1.853 39.833 1.696 42.569 9.509 7.327 11.913 1.278 13.887-34.953 2.187-40.105 3.299-45.115 12.501-56.414 7.39-9.071 24.36-20.561 26.786-18.137 3.171 3.171 24.307 79.176 22.225 79.921-1.348 0.484-8.214 4.464-15.256 8.85l-12.802 7.969 17.003 14.66c33.378 28.778 30.306 22.194 67.943 145.659 18.543 60.829 34.668 110.597 35.83 110.597 1.163 0 48.107-32.22 104.319-71.6l102.202-71.6 26.982-6.437c14.838-3.542 29.381-7.74 32.315-9.331 7.903-4.283 16.929-2.841 17.351 2.776 0.344 4.574 0.262 4.577-3.074 0.119-3.241-4.334-3.35-4.285-2.035 0.935 0.764 3.037 2.43 5.518 3.701 5.518 1.273 0 1.631 1.105 0.797 2.453-0.834 1.351-0.439 2.453 0.876 2.453 1.318 0 2.827-1.299 3.357-2.887 0.563-1.691 2.28-2.072 4.145-0.918 2.589 1.598 2.56 2.362-0.145 4.075-2.495 1.582-2.56 2.197-0.262 2.453 1.687 0.189 4.446 0.549 6.133 0.801 1.687 0.25 5.702-0.472 8.929-1.605l5.864-2.059-1.668 18.395-1.666 18.395 6.49 1.629c8.346 2.094 10.784-1.729 10.833-16.978 0.045-14.188 3.46-21.716 8.906-19.627 2.14 0.822 4.967-0.047 6.282-1.93 1.617-2.317 1.918 0.542 0.932 8.84-2.539 21.337-5.967 83.132-4.724 85.143 1.853 2.998 9.841 2.273 12.567-1.135 1.351-1.687 3.149-15.761 3.999-31.273 3.031-55.314 7.957-80.943 15.557-80.943 1.874 0 2.778-1.019 2.009-2.263-0.771-1.248 1.969-4.666 6.089-7.598 6.378-4.542 7.032-5.934 4.402-9.387-1.696-2.228-2.154-3.268-1.014-2.308 2.154 1.813 11.256-13.898 11.256-19.433 0-1.738 1.381-3.177 3.068-3.196 1.897-0.023 2.131-0.725 0.612-1.841-5.671-4.166-2.238-8.375 21.547-26.434 37.546-28.505 71.067-70.369 81.499-101.778 3.478-10.471 6.188-13.235 27.898-28.442l24.043-16.842-29.127-95.532c-16.018-52.543-28.68-96.696-28.133-98.119 0.546-1.421 12.17-6.939 25.83-12.261 28.746-11.2 27.601-8.041 15.026-41.52-5.397-14.365-9.812-27.647-9.812-29.514 0-17.318-48.181-93.504-78.873-124.717l-24.702-25.12-31.612-103.018c-17.386-56.659-32.446-105.527-33.468-108.597-1.746-5.245-7.201-1.841-89.972 56.138zM553.812 136.265c112.743 10.415 224.8 85.885 277.699 187.030 18.244 34.883 38.518 88.902 34.644 92.308-1.135 1-14.025 6.56-28.638 12.355s-38.102 17.167-52.195 25.274c-24.372 14.023-25.948 14.573-32.294 11.301-10.473-5.401-11.793-7.35-10.794-15.917 1.567-13.436-9.39-30.169-26.944-41.142l-14.938-9.338-16.245 3.173c-47.617 9.299-55.781 67.525-13.789 98.376 1.635 1.201 1.635 1.827 0 1.876-1.351 0.042-0.799 1.266 1.227 2.722 3.101 2.232 3 2.43-0.636 1.26-2.374-0.764-7.339-0.189-11.037 1.281-14.342 5.694-41.132 11.301-45.896 9.602-2.738-0.976-9.946-2-16.015-2.275-13.836-0.628-17.172-4.79-17.172-21.422 0-34.638-30.701-62.533-66.224-60.173-7.42 0.493-16.42 1.044-20.001 1.227s-6.039 1.093-5.463 2.028c1.409 2.28-21.088 12.114-23.829 10.417-1.19-0.733-1.549 0.255-0.806 2.197 0.824 2.145-1.678 5.687-6.378 9.034-4.252 3.027-10.798 9.738-14.546 14.913-3.748 5.173-7.689 8.614-8.758 7.649-1.073-0.968-1.24-0.521-0.379 0.993 0.862 1.512-0.614 5.266-3.285 8.346s-4.855 7.084-4.855 8.902c0 1.818-2.208 3.303-4.907 3.303-5.432 0-7.209 9.668-1.839 10.006 2.451 0.154 2.451 0.441 0 1.429-1.687 0.68-3.068 2.867-3.068 4.857s-1.102 2.937-2.453 2.103c-1.348-0.832-2.453-0.346-2.453 1.081 0 1.429 1.316 2.598 2.922 2.598s0.778 1.746-1.839 3.88c-3.532 2.876-3.738 3.563-0.799 2.656 3.418-1.056 3.876 1.070 3.34 15.539-0.352 9.509 1.423 26.666 4.104 39.654 2.598 12.59 4.252 24.753 3.675 27.026-0.579 2.273 0.379 4.682 2.126 5.352s3.937 4.883 4.866 9.357c4.007 19.293 30.285 58.853 49.618 74.693 53.354 43.721 154.485 42.574 243.119-2.755 43.927-22.466 58.189-33.194 95.549-71.88l27.729-28.713-1.173 19.622c-6.291 105.167-117.43 202.905-276.262 242.944-24.515 6.182-107.358 6.252-133.677 0.115-73.009-17.025-121.577-42.588-166.142-87.446l-18.978-19.101 12.845-7.883c36.116-22.167 42.775-53.178 18.606-86.631-18.667-25.837-65.768-28.049-84.645-3.979-1.586 2.024-4.555 5.887-6.598 8.585-7.304 9.651-30.657-52.162-39.397-104.28-5.601-33.394-6.233-108.816-0.958-114.092 0.754-0.754 9.899 4.75 20.324 12.228 21.531 15.45 37.805 17.909 59.696 9.023 71.116-28.864 46.74-131.305-29.607-124.425-19.795 1.785-19.604 2.887-4.18-24.010 30.523-53.234 89.612-111.26 142.148-139.59 27.451-14.803 26.786-14.985 26.83 7.331 0.051 24.103 1.014 37.296 2.65 36.287 0.696-0.432 4.955 5.57 9.46 13.338 6.413 11.060 11.004 15.646 21.15 21.136 7.24 3.916 12.464 8.307 11.836 9.948-1.701 4.434 3.83 6.724 7.959 3.297 1.995-1.659 4.339-2.306 5.205-1.439s0.245 1.577-1.381 1.577c-2.212 0-2.161 0.865 0.204 3.425 2.708 2.934 3.446 2.934 5.123 0 2.563-4.474 7.701-4.362 11.529 0.255 4.572 5.506 10.473 4.724 8.612-1.145-1.635-5.15 4.491-7.924 18.585-8.427 3.692-0.133 6.266-0.694 5.717-1.248-2.86-2.89 10.354-7.803 23.3-8.663 16.924-1.124 20.176-2.498 18.187-7.679-0.892-2.325-0.169-3.435 1.948-2.986 2.049 0.435 3.198-1.166 2.939-4.091-0.233-2.642 0.633-6.779 1.927-9.198 1.691-3.161 1.468-4.404-0.801-4.432-2.042-0.023-2.247-0.673-0.581-1.839 3.35-2.348 4.312-16.992 1.243-18.889-1.304-0.809-1.75-3.086-0.991-5.068s0.159-3.6-1.334-3.6c-1.493 0-2.714-1.577-2.714-3.505s-1.524-5.028-3.385-6.888c-1.86-1.862-4.203-8.24-5.205-14.174-1.652-9.773-9.462-24.475-14.097-26.535-1.011-0.449-1.841-2.381-1.841-4.292s-1.378-3.63-3.066-3.822c-5.29-0.601 16.022-3.845 27.593-4.201 6.070-0.187 23.73 0.832 39.244 2.263zM714.823 252.945c-0.762 3.859-2.080 13.154-2.932 20.655l-1.551 13.64 22.396 24.379c26.961 29.348 26.654 29.206 27.589 12.889 1.322-23.063-5.56-35.653-41.123-75.241-2.455-2.733-3.247-2.070-4.378 3.68z"></path>
</svg>
