<?xml version="1.0" standalone="no"?>
<!DOCTYPE svg PUBLIC "-//W3C//DTD SVG 20010904//EN"
 "http://www.w3.org/TR/2001/REC-SVG-20010904/DTD/svg10.dtd">
<svg version="1.0" xmlns="http://www.w3.org/2000/svg"
 width="700.000000pt" height="700.000000pt" viewBox="0 0 700.000000 700.000000"
 preserveAspectRatio="xMidYMid meet">
<metadata>
Created by potrace 1.14, written by Peter Selinger 2001-2017
</metadata>
<g transform="translate(0.000000,700.000000) scale(0.100000,-0.100000)"
fill="#000000" stroke="none">
<path d="M3004 5741 c-43 -27 -94 -90 -87 -110 17 -46 204 -241 288 -297 70
-48 96 -45 158 17 100 98 174 135 291 143 111 8 115 35 14 83 -71 34 -124 51
-388 124 -228 63 -237 64 -276 40z"/>
<path d="M2741 5499 c-94 -24 -125 -50 -118 -100 8 -59 74 -179 98 -179 4 0
33 22 65 50 68 59 134 86 209 85 30 -1 54 2 53 6 -5 11 -82 92 -121 127 -45
38 -75 40 -186 11z"/>
<path d="M4172 5468 c-32 -9 -33 -10 -20 -31 8 -12 35 -32 60 -44 88 -43 183
-180 195 -281 7 -63 21 -73 81 -57 62 16 215 76 280 109 67 34 118 80 126 112
17 65 -60 108 -260 147 -246 48 -395 63 -462 45z"/>
<path d="M1702 5408 c-71 -104 -117 -228 -141 -383 -9 -62 -8 -338 2 -365 3
-8 8 -34 11 -57 11 -92 68 -234 133 -333 l64 -98 62 -11 c64 -11 106 -17 192
-26 28 -3 67 -8 87 -11 47 -6 77 -10 158 -19 36 -4 74 -9 85 -11 11 -2 34 -7
50 -9 69 -12 142 -38 173 -62 47 -35 68 -73 104 -188 37 -118 41 -210 13 -295
-25 -78 -87 -202 -130 -261 -35 -47 -86 -85 -98 -73 -9 10 3 54 29 106 21 42
22 48 7 39 -18 -9 -46 -35 -71 -65 -25 -30 -26 -98 -2 -148 27 -59 61 -94 183
-192 53 -43 97 -81 97 -85 0 -4 9 -17 20 -29 19 -20 36 -22 110 -9 3 0 19 -3
37 -7 24 -5 44 -23 75 -66 24 -32 53 -61 64 -64 12 -3 52 5 90 18 62 22 71 23
96 10 15 -8 28 -18 28 -22 0 -4 16 -24 36 -45 34 -35 74 -49 74 -27 0 6 15 18
34 26 54 26 102 12 156 -47 l45 -49 55 28 c51 25 64 27 185 28 106 1 140 5
185 21 30 12 86 24 123 28 167 16 244 72 232 170 -3 26 -13 61 -22 78 l-17 32
-9 -47 c-17 -88 -65 -49 -86 69 -13 72 -16 199 -6 262 31 201 171 348 365 385
146 28 297 1 495 -89 109 -50 166 -64 247 -62 59 2 83 8 128 32 67 36 199 165
265 258 110 157 211 484 200 651 -5 72 -12 93 -32 100 -22 9 -31 -2 -38 -44
-8 -48 -34 -81 -87 -110 -60 -33 -85 -56 -105 -97 -18 -40 -25 -41 -58 -7
l-26 25 -29 -31 c-36 -39 -61 -36 -76 9 -16 50 -40 58 -193 60 -170 2 -213 7
-329 37 -215 55 -399 153 -637 339 -88 69 -118 76 -193 42 -118 -53 -171 -41
-126 29 9 13 73 65 143 116 224 163 229 170 175 272 -81 156 -99 165 -230 108
-49 -22 -120 -56 -159 -76 -54 -28 -72 -33 -80 -24 -6 7 -36 42 -66 78 -102
122 -159 162 -234 164 -53 1 -92 -25 -115 -77 -41 -92 -26 -192 50 -353 75
-157 96 -224 71 -224 -15 0 -73 59 -129 131 l-51 66 -148 -28 c-267 -52 -318
-57 -496 -57 -81 1 -179 7 -217 14 -89 17 -213 59 -265 89 -94 54 -162 84
-181 79 -12 -3 -36 -23 -53 -45 -36 -43 -71 -52 -71 -19 0 44 -14 70 -40 70
-38 0 -67 62 -89 189 -1 3 -7 -4 -15 -15 -12 -16 -17 -17 -28 -6 -10 10 -12
45 -11 133 1 65 -2 119 -7 119 -5 0 -22 -19 -38 -42z m2074 -1003 c53 -98 77
-247 77 -480 0 -163 -15 -251 -43 -260 -24 -8 -45 4 -111 61 -102 88 -164 99
-307 53 -58 -19 -73 -20 -86 -10 -46 38 47 302 176 501 88 136 167 203 232
198 25 -3 35 -13 62 -63z m-806 -602 c0 -9 -19 -57 -42 -107 -36 -77 -41 -99
-40 -151 2 -77 -15 -129 -99 -300 -68 -138 -129 -235 -149 -235 -51 0 -3 237
95 470 74 176 141 288 192 322 35 22 43 23 43 1z m34 -474 c-6 -56 -47 -206
-71 -259 -18 -39 -60 -99 -83 -117 -37 -30 -70 -3 -70 55 0 43 43 165 82 230
40 67 122 157 137 148 6 -4 8 -28 5 -57z m895 -122 c43 -52 59 -305 27 -409
-28 -86 -51 -86 -84 2 -27 75 -16 307 19 393 13 30 21 33 38 14z"/>
<path d="M4782 5085 c-16 -7 -32 -17 -35 -22 -9 -15 18 -59 70 -114 26 -28 60
-71 76 -95 17 -29 34 -44 47 -44 48 0 117 47 132 91 3 8 0 28 -7 45 -38 89
-205 171 -283 139z"/>
<path d="M2367 2927 c-33 -26 -59 -153 -38 -186 8 -12 15 -11 45 10 54 37 71
89 47 146 -15 37 -33 46 -54 30z"/>
<path d="M2200 2884 c-8 -3 -51 -18 -95 -34 -44 -17 -96 -31 -115 -33 l-35 -4
0 -124 c0 -114 11 -248 20 -257 8 -9 27 13 56 62 16 29 37 60 47 69 38 34 187
24 230 -16 37 -35 15 -73 -73 -122 -66 -38 -92 -67 -106 -118 -6 -23 -38 -94
-71 -157 -52 -100 -59 -120 -54 -156 6 -56 16 -70 89 -128 65 -51 123 -84 132
-74 3 3 -6 32 -21 64 -61 132 -40 226 71 314 76 59 92 86 98 164 5 66 14 79
53 79 34 0 79 -47 93 -97 16 -59 6 -94 -50 -183 -33 -52 -4 -51 113 3 90 41
112 48 170 48 66 1 68 2 68 26 0 14 -6 48 -13 75 -7 28 -12 85 -11 127 1 99
-6 111 -44 75 -34 -33 -93 -45 -127 -27 -29 16 -55 67 -55 109 0 17 11 64 25
103 29 82 31 106 11 114 -18 7 -47 -8 -110 -58 -60 -48 -104 -67 -165 -71 -53
-4 -87 6 -118 35 -29 27 -29 60 0 123 13 28 22 56 20 63 -5 13 -9 13 -33 6z"/>
<path d="M3071 2549 c-13 -12 -36 -50 -52 -83 -79 -169 -70 -258 27 -275 57
-11 103 4 116 37 6 15 12 77 14 138 3 99 0 117 -19 155 -26 51 -52 60 -86 28z"/>
<path d="M4213 2518 c-37 -41 -47 -73 -44 -135 1 -23 33 -63 51 -63 33 0 58
116 39 184 -12 42 -18 44 -46 14z"/>
<path d="M3378 2458 c-74 -76 -120 -187 -112 -269 5 -40 40 -73 94 -87 46 -11
72 -2 100 39 35 48 37 201 5 335 -10 42 -34 36 -87 -18z"/>
<path d="M3971 2463 c-5 -10 -14 -51 -20 -91 -13 -85 -30 -122 -67 -151 -55
-43 -107 -18 -135 67 -12 38 -25 52 -46 52 -14 0 -22 -23 -28 -85 -7 -62 -26
-105 -69 -153 -20 -22 -36 -46 -36 -54 0 -8 16 -22 35 -31 55 -26 121 -93 187
-189 58 -85 72 -102 63 -75 -7 20 -15 78 -22 144 -7 79 6 111 60 146 56 37 85
43 105 23 16 -16 17 -27 10 -162 -3 -66 -1 -73 27 -108 52 -66 56 -77 51 -139
-5 -70 -34 -118 -118 -196 -32 -30 -56 -56 -54 -58 7 -8 272 49 284 61 8 7 18
31 23 52 10 42 13 280 4 329 -16 92 -30 129 -61 166 -19 23 -34 46 -35 52 0 7
-2 20 -4 29 -2 10 5 28 15 40 39 48 180 10 227 -60 12 -18 27 -57 34 -87 16
-72 24 -84 43 -65 8 8 47 80 87 159 l72 144 -111 108 c-61 60 -114 104 -117
99 -3 -6 -4 -14 0 -19 3 -5 6 -34 7 -64 3 -81 -7 -89 -106 -81 -44 3 -90 10
-101 14 -32 12 -70 52 -100 106 -51 89 -84 113 -104 77z"/>
</g>
</svg>
